<?xml version="1.0" encoding="utf-8" standalone="no"?>
<!DOCTYPE svg PUBLIC "-//W3C//DTD SVG 1.1//EN"
  "http://www.w3.org/Graphics/SVG/1.1/DTD/svg11.dtd">
<svg xmlns:xlink="http://www.w3.org/1999/xlink" width="777.6pt" height="404.64pt" viewBox="0 0 777.6 404.64" xmlns="http://www.w3.org/2000/svg" version="1.1">
 <metadata>
  <rdf:RDF xmlns:dc="http://purl.org/dc/elements/1.1/" xmlns:cc="http://creativecommons.org/ns#" xmlns:rdf="http://www.w3.org/1999/02/22-rdf-syntax-ns#">
   <cc:Work>
    <dc:type rdf:resource="http://purl.org/dc/dcmitype/StillImage"/>
    <dc:date>2023-02-24T03:33:12.634064</dc:date>
    <dc:format>image/svg+xml</dc:format>
    <dc:creator>
     <cc:Agent>
      <dc:title>Matplotlib v3.6.2, https://matplotlib.org/</dc:title>
     </cc:Agent>
    </dc:creator>
   </cc:Work>
  </rdf:RDF>
 </metadata>
 <defs>
  <style type="text/css">*{stroke-linejoin: round; stroke-linecap: butt}</style>
 </defs>
 <g id="figure_1">
  <g id="patch_1">
   <path d="M 0 404.64 
L 777.6 404.64 
L 777.6 0 
L 0 0 
z
" style="fill: #ffffff"/>
  </g>
  <g id="axes_1">
   <g id="patch_2">
    <path d="M 97.2 360.1296 
L 699.84 360.1296 
L 699.84 48.5568 
L 97.2 48.5568 
z
" style="fill: #ffffff"/>
   </g>
   <g id="PolyCollection_1">
    <defs>
     <path id="m81552482c6" d="M 124.592727 -200.2968 
L 124.592727 -341.9208 
L 130.359617 -341.9208 
L 136.126507 -341.9208 
L 141.893397 -341.9208 
L 147.660287 -341.9208 
L 153.427177 -341.9208 
L 159.194067 -341.9208 
L 164.960957 -341.9208 
L 170.727847 -341.9208 
L 176.494737 -341.9208 
L 182.261627 -341.9208 
L 188.028517 -341.9208 
L 193.795407 -341.9208 
L 199.562297 -341.9208 
L 205.329187 -341.9208 
L 211.096077 -341.9208 
L 216.862967 -341.9208 
L 222.629856 -341.9208 
L 228.396746 -341.9208 
L 234.163636 -341.9208 
L 239.930526 -341.9208 
L 245.697416 -341.9208 
L 251.464306 -341.9208 
L 257.231196 -341.9208 
L 262.998086 -341.9208 
L 268.764976 -341.9208 
L 274.531866 -341.9208 
L 280.298756 -341.9208 
L 286.065646 -341.9208 
L 291.832536 -341.9208 
L 297.599426 -341.9208 
L 303.366316 -341.9208 
L 309.133206 -341.9208 
L 314.900096 -341.9208 
L 320.666986 -341.9208 
L 326.433876 -341.9208 
L 332.200766 -341.9208 
L 337.967656 -341.9208 
L 343.734545 -341.9208 
L 349.501435 -341.9208 
L 355.268325 -341.9208 
L 361.035215 -341.9208 
L 366.802105 -341.9208 
L 372.568995 -341.9208 
L 378.335885 -341.9208 
L 384.102775 -341.9208 
L 389.869665 -341.9208 
L 395.636555 -341.9208 
L 401.403445 -341.9208 
L 407.170335 -341.9208 
L 412.937225 -341.9208 
L 418.704115 -341.9208 
L 424.471005 -341.9208 
L 430.237895 -341.9208 
L 436.004785 -341.9208 
L 441.771675 -341.9208 
L 447.538565 -341.9208 
L 453.305455 -341.9208 
L 459.072344 -341.9208 
L 464.839234 -341.9208 
L 470.606124 -341.9208 
L 476.373014 -341.9208 
L 482.139904 -341.9208 
L 487.906794 -341.9208 
L 493.673684 -341.9208 
L 499.440574 -341.9208 
L 505.207464 -341.9208 
L 510.974354 -341.9208 
L 516.741244 -341.9208 
L 522.508134 -341.9208 
L 528.275024 -341.9208 
L 534.041914 -341.9208 
L 539.808804 -341.9208 
L 545.575694 -341.9208 
L 551.342584 -341.9208 
L 557.109474 -341.9208 
L 562.876364 -341.9208 
L 568.643254 -341.9208 
L 574.410144 -341.9208 
L 580.177033 -341.9208 
L 585.943923 -341.9208 
L 591.710813 -341.9208 
L 597.477703 -341.9208 
L 603.244593 -341.9208 
L 609.011483 -341.9208 
L 614.778373 -341.9208 
L 620.545263 -341.9208 
L 626.312153 -341.9208 
L 632.079043 -341.9208 
L 637.845933 -341.9208 
L 643.612823 -341.9208 
L 649.379713 -341.9208 
L 655.146603 -341.9208 
L 660.913493 -341.9208 
L 666.680383 -341.9208 
L 672.447273 -341.9208 
L 672.447273 -336.198616 
L 672.447273 -336.198616 
L 666.680383 -336.140227 
L 660.913493 -336.080633 
L 655.146603 -336.019798 
L 649.379713 -335.957682 
L 643.612823 -335.894245 
L 637.845933 -335.829443 
L 632.079043 -335.763233 
L 626.312153 -335.695567 
L 620.545263 -335.626398 
L 614.778373 -335.555674 
L 609.011483 -335.483343 
L 603.244593 -335.409349 
L 597.477703 -335.333635 
L 591.710813 -335.256139 
L 585.943923 -335.176798 
L 580.177033 -335.095545 
L 574.410144 -335.01231 
L 568.643254 -334.92702 
L 562.876364 -334.839598 
L 557.109474 -334.749962 
L 551.342584 -334.658028 
L 545.575694 -334.563707 
L 539.808804 -334.466903 
L 534.041914 -334.367517 
L 528.275024 -334.265446 
L 522.508134 -334.160578 
L 516.741244 -334.052797 
L 510.974354 -333.94198 
L 505.207464 -333.827997 
L 499.440574 -333.71071 
L 493.673684 -333.589974 
L 487.906794 -333.465633 
L 482.139904 -333.337524 
L 476.373014 -333.205474 
L 470.606124 -333.069297 
L 464.839234 -332.928797 
L 459.072344 -332.783765 
L 453.305455 -332.633977 
L 447.538565 -332.479197 
L 441.771675 -332.31917 
L 436.004785 -332.153624 
L 430.237895 -331.98227 
L 424.471005 -331.804797 
L 418.704115 -331.620869 
L 412.937225 -331.43013 
L 407.170335 -331.232193 
L 401.403445 -331.026643 
L 395.636555 -330.813032 
L 389.869665 -330.590876 
L 384.102775 -330.359653 
L 378.335885 -330.118796 
L 372.568995 -329.86769 
L 366.802105 -329.605666 
L 361.035215 -329.331996 
L 355.268325 -329.045887 
L 349.501435 -328.74647 
L 343.734545 -328.432796 
L 337.967656 -328.10382 
L 332.200766 -327.758396 
L 326.433876 -327.395257 
L 320.666986 -327.013006 
L 314.900096 -326.610093 
L 309.133206 -326.184795 
L 303.366316 -325.735195 
L 297.599426 -325.259148 
L 291.832536 -324.75425 
L 286.065646 -324.217795 
L 280.298756 -323.64673 
L 274.531866 -323.037595 
L 268.764976 -322.38645 
L 262.998086 -321.688795 
L 257.231196 -320.93946 
L 251.464306 -320.132485 
L 245.697416 -319.260953 
L 239.930526 -318.316793 
L 234.163636 -317.290531 
L 228.396746 -316.170974 
L 222.629856 -314.944792 
L 216.862967 -313.595991 
L 211.096077 -312.105212 
L 205.329187 -310.448791 
L 199.562297 -308.597496 
L 193.795407 -306.51479 
L 188.028517 -304.154389 
L 182.261627 -301.456789 
L 176.494737 -298.344173 
L 170.727847 -294.712788 
L 164.960957 -290.421151 
L 159.194067 -285.271187 
L 153.427177 -278.976787 
L 147.660287 -271.108787 
L 141.893397 -260.992787 
L 136.126507 -247.504788 
L 130.359617 -228.621591 
L 124.592727 -200.2968 
z
" style="stroke: #ff0000; stroke-opacity: 0.5"/>
    </defs>
    <g clip-path="url(#pa156a86090)">
     <use xlink:href="#m81552482c6" x="0" y="404.64" style="fill: #ff0000; fill-opacity: 0.5; stroke: #ff0000; stroke-opacity: 0.5"/>
    </g>
   </g>
   <g id="PolyCollection_2">
    <defs>
     <path id="m58028af37c" d="M 124.592727 -58.6728 
L 124.592727 -200.2968 
L 130.359617 -228.621591 
L 136.126507 -247.504788 
L 141.893397 -260.992787 
L 147.660287 -271.108787 
L 153.427177 -278.976787 
L 159.194067 -285.271187 
L 164.960957 -290.421151 
L 170.727847 -294.712788 
L 176.494737 -298.344173 
L 182.261627 -301.456789 
L 188.028517 -304.154389 
L 193.795407 -306.51479 
L 199.562297 -308.597496 
L 205.329187 -310.448791 
L 211.096077 -312.105212 
L 216.862967 -313.595991 
L 222.629856 -314.944792 
L 228.396746 -316.170974 
L 234.163636 -317.290531 
L 239.930526 -318.316793 
L 245.697416 -319.260953 
L 251.464306 -320.132485 
L 257.231196 -320.93946 
L 262.998086 -321.688795 
L 268.764976 -322.38645 
L 274.531866 -323.037595 
L 280.298756 -323.64673 
L 286.065646 -324.217795 
L 291.832536 -324.75425 
L 297.599426 -325.259148 
L 303.366316 -325.735195 
L 309.133206 -326.184795 
L 314.900096 -326.610093 
L 320.666986 -327.013006 
L 326.433876 -327.395257 
L 332.200766 -327.758396 
L 337.967656 -328.10382 
L 343.734545 -328.432796 
L 349.501435 -328.74647 
L 355.268325 -329.045887 
L 361.035215 -329.331996 
L 366.802105 -329.605666 
L 372.568995 -329.86769 
L 378.335885 -330.118796 
L 384.102775 -330.359653 
L 389.869665 -330.590876 
L 395.636555 -330.813032 
L 401.403445 -331.026643 
L 407.170335 -331.232193 
L 412.937225 -331.43013 
L 418.704115 -331.620869 
L 424.471005 -331.804797 
L 430.237895 -331.98227 
L 436.004785 -332.153624 
L 441.771675 -332.31917 
L 447.538565 -332.479197 
L 453.305455 -332.633977 
L 459.072344 -332.783765 
L 464.839234 -332.928797 
L 470.606124 -333.069297 
L 476.373014 -333.205474 
L 482.139904 -333.337524 
L 487.906794 -333.465633 
L 493.673684 -333.589974 
L 499.440574 -333.71071 
L 505.207464 -333.827997 
L 510.974354 -333.94198 
L 516.741244 -334.052797 
L 522.508134 -334.160578 
L 528.275024 -334.265446 
L 534.041914 -334.367517 
L 539.808804 -334.466903 
L 545.575694 -334.563707 
L 551.342584 -334.658028 
L 557.109474 -334.749962 
L 562.876364 -334.839598 
L 568.643254 -334.92702 
L 574.410144 -335.01231 
L 580.177033 -335.095545 
L 585.943923 -335.176798 
L 591.710813 -335.256139 
L 597.477703 -335.333635 
L 603.244593 -335.409349 
L 609.011483 -335.483343 
L 614.778373 -335.555674 
L 620.545263 -335.626398 
L 626.312153 -335.695567 
L 632.079043 -335.763233 
L 637.845933 -335.829443 
L 643.612823 -335.894245 
L 649.379713 -335.957682 
L 655.146603 -336.019798 
L 660.913493 -336.080633 
L 666.680383 -336.140227 
L 672.447273 -336.198616 
L 672.447273 -58.6728 
L 672.447273 -58.6728 
L 666.680383 -58.6728 
L 660.913493 -58.6728 
L 655.146603 -58.6728 
L 649.379713 -58.6728 
L 643.612823 -58.6728 
L 637.845933 -58.6728 
L 632.079043 -58.6728 
L 626.312153 -58.6728 
L 620.545263 -58.6728 
L 614.778373 -58.6728 
L 609.011483 -58.6728 
L 603.244593 -58.6728 
L 597.477703 -58.6728 
L 591.710813 -58.6728 
L 585.943923 -58.6728 
L 580.177033 -58.6728 
L 574.410144 -58.6728 
L 568.643254 -58.6728 
L 562.876364 -58.6728 
L 557.109474 -58.6728 
L 551.342584 -58.6728 
L 545.575694 -58.6728 
L 539.808804 -58.6728 
L 534.041914 -58.6728 
L 528.275024 -58.6728 
L 522.508134 -58.6728 
L 516.741244 -58.6728 
L 510.974354 -58.6728 
L 505.207464 -58.6728 
L 499.440574 -58.6728 
L 493.673684 -58.6728 
L 487.906794 -58.6728 
L 482.139904 -58.6728 
L 476.373014 -58.6728 
L 470.606124 -58.6728 
L 464.839234 -58.6728 
L 459.072344 -58.6728 
L 453.305455 -58.6728 
L 447.538565 -58.6728 
L 441.771675 -58.6728 
L 436.004785 -58.6728 
L 430.237895 -58.6728 
L 424.471005 -58.6728 
L 418.704115 -58.6728 
L 412.937225 -58.6728 
L 407.170335 -58.6728 
L 401.403445 -58.6728 
L 395.636555 -58.6728 
L 389.869665 -58.6728 
L 384.102775 -58.6728 
L 378.335885 -58.6728 
L 372.568995 -58.6728 
L 366.802105 -58.6728 
L 361.035215 -58.6728 
L 355.268325 -58.6728 
L 349.501435 -58.6728 
L 343.734545 -58.6728 
L 337.967656 -58.6728 
L 332.200766 -58.6728 
L 326.433876 -58.6728 
L 320.666986 -58.6728 
L 314.900096 -58.6728 
L 309.133206 -58.6728 
L 303.366316 -58.6728 
L 297.599426 -58.6728 
L 291.832536 -58.6728 
L 286.065646 -58.6728 
L 280.298756 -58.6728 
L 274.531866 -58.6728 
L 268.764976 -58.6728 
L 262.998086 -58.6728 
L 257.231196 -58.6728 
L 251.464306 -58.6728 
L 245.697416 -58.6728 
L 239.930526 -58.6728 
L 234.163636 -58.6728 
L 228.396746 -58.6728 
L 222.629856 -58.6728 
L 216.862967 -58.6728 
L 211.096077 -58.6728 
L 205.329187 -58.6728 
L 199.562297 -58.6728 
L 193.795407 -58.6728 
L 188.028517 -58.6728 
L 182.261627 -58.6728 
L 176.494737 -58.6728 
L 170.727847 -58.6728 
L 164.960957 -58.6728 
L 159.194067 -58.6728 
L 153.427177 -58.6728 
L 147.660287 -58.6728 
L 141.893397 -58.6728 
L 136.126507 -58.6728 
L 130.359617 -58.6728 
L 124.592727 -58.6728 
z
" style="stroke: #0000ff; stroke-opacity: 0.5"/>
    </defs>
    <g clip-path="url(#pa156a86090)">
     <use xlink:href="#m58028af37c" x="0" y="404.64" style="fill: #0000ff; fill-opacity: 0.5; stroke: #0000ff; stroke-opacity: 0.5"/>
    </g>
   </g>
   <g id="matplotlib.axis_1">
    <g id="xtick_1">
     <g id="line2d_1">
      <path d="M 118.825837 360.1296 
L 118.825837 48.5568 
" clip-path="url(#pa156a86090)" style="fill: none; stroke: #b0b0b0; stroke-width: 0.8; stroke-linecap: square"/>
     </g>
     <g id="line2d_2">
      <defs>
       <path id="m8348e2e85d" d="M 0 0 
L 0 3.5 
" style="stroke: #000000; stroke-width: 0.8"/>
      </defs>
      <g>
       <use xlink:href="#m8348e2e85d" x="118.825837" y="360.1296" style="stroke: #000000; stroke-width: 0.8"/>
      </g>
     </g>
     <g id="text_1">
      <!-- 0 -->
      <g transform="translate(115.644587 374.728038) scale(0.1 -0.1)">
       <defs>
        <path id="DejaVuSans-30" d="M 2034 4250 
Q 1547 4250 1301 3770 
Q 1056 3291 1056 2328 
Q 1056 1369 1301 889 
Q 1547 409 2034 409 
Q 2525 409 2770 889 
Q 3016 1369 3016 2328 
Q 3016 3291 2770 3770 
Q 2525 4250 2034 4250 
z
M 2034 4750 
Q 2819 4750 3233 4129 
Q 3647 3509 3647 2328 
Q 3647 1150 3233 529 
Q 2819 -91 2034 -91 
Q 1250 -91 836 529 
Q 422 1150 422 2328 
Q 422 3509 836 4129 
Q 1250 4750 2034 4750 
z
" transform="scale(0.015625)"/>
       </defs>
       <use xlink:href="#DejaVuSans-30"/>
      </g>
     </g>
    </g>
    <g id="xtick_2">
     <g id="line2d_3">
      <path d="M 234.163636 360.1296 
L 234.163636 48.5568 
" clip-path="url(#pa156a86090)" style="fill: none; stroke: #b0b0b0; stroke-width: 0.8; stroke-linecap: square"/>
     </g>
     <g id="line2d_4">
      <g>
       <use xlink:href="#m8348e2e85d" x="234.163636" y="360.1296" style="stroke: #000000; stroke-width: 0.8"/>
      </g>
     </g>
     <g id="text_2">
      <!-- 5 -->
      <g transform="translate(230.982386 374.728038) scale(0.1 -0.1)">
       <defs>
        <path id="DejaVuSans-35" d="M 691 4666 
L 3169 4666 
L 3169 4134 
L 1269 4134 
L 1269 2991 
Q 1406 3038 1543 3061 
Q 1681 3084 1819 3084 
Q 2600 3084 3056 2656 
Q 3513 2228 3513 1497 
Q 3513 744 3044 326 
Q 2575 -91 1722 -91 
Q 1428 -91 1123 -41 
Q 819 9 494 109 
L 494 744 
Q 775 591 1075 516 
Q 1375 441 1709 441 
Q 2250 441 2565 725 
Q 2881 1009 2881 1497 
Q 2881 1984 2565 2268 
Q 2250 2553 1709 2553 
Q 1456 2553 1204 2497 
Q 953 2441 691 2322 
L 691 4666 
z
" transform="scale(0.015625)"/>
       </defs>
       <use xlink:href="#DejaVuSans-35"/>
      </g>
     </g>
    </g>
    <g id="xtick_3">
     <g id="line2d_5">
      <path d="M 349.501435 360.1296 
L 349.501435 48.5568 
" clip-path="url(#pa156a86090)" style="fill: none; stroke: #b0b0b0; stroke-width: 0.8; stroke-linecap: square"/>
     </g>
     <g id="line2d_6">
      <g>
       <use xlink:href="#m8348e2e85d" x="349.501435" y="360.1296" style="stroke: #000000; stroke-width: 0.8"/>
      </g>
     </g>
     <g id="text_3">
      <!-- 10 -->
      <g transform="translate(343.138935 374.728038) scale(0.1 -0.1)">
       <defs>
        <path id="DejaVuSans-31" d="M 794 531 
L 1825 531 
L 1825 4091 
L 703 3866 
L 703 4441 
L 1819 4666 
L 2450 4666 
L 2450 531 
L 3481 531 
L 3481 0 
L 794 0 
L 794 531 
z
" transform="scale(0.015625)"/>
       </defs>
       <use xlink:href="#DejaVuSans-31"/>
       <use xlink:href="#DejaVuSans-30" x="63.623047"/>
      </g>
     </g>
    </g>
    <g id="xtick_4">
     <g id="line2d_7">
      <path d="M 464.839234 360.1296 
L 464.839234 48.5568 
" clip-path="url(#pa156a86090)" style="fill: none; stroke: #b0b0b0; stroke-width: 0.8; stroke-linecap: square"/>
     </g>
     <g id="line2d_8">
      <g>
       <use xlink:href="#m8348e2e85d" x="464.839234" y="360.1296" style="stroke: #000000; stroke-width: 0.8"/>
      </g>
     </g>
     <g id="text_4">
      <!-- 15 -->
      <g transform="translate(458.476734 374.728038) scale(0.1 -0.1)">
       <use xlink:href="#DejaVuSans-31"/>
       <use xlink:href="#DejaVuSans-35" x="63.623047"/>
      </g>
     </g>
    </g>
    <g id="xtick_5">
     <g id="line2d_9">
      <path d="M 580.177033 360.1296 
L 580.177033 48.5568 
" clip-path="url(#pa156a86090)" style="fill: none; stroke: #b0b0b0; stroke-width: 0.8; stroke-linecap: square"/>
     </g>
     <g id="line2d_10">
      <g>
       <use xlink:href="#m8348e2e85d" x="580.177033" y="360.1296" style="stroke: #000000; stroke-width: 0.8"/>
      </g>
     </g>
     <g id="text_5">
      <!-- 20 -->
      <g transform="translate(573.814533 374.728038) scale(0.1 -0.1)">
       <defs>
        <path id="DejaVuSans-32" d="M 1228 531 
L 3431 531 
L 3431 0 
L 469 0 
L 469 531 
Q 828 903 1448 1529 
Q 2069 2156 2228 2338 
Q 2531 2678 2651 2914 
Q 2772 3150 2772 3378 
Q 2772 3750 2511 3984 
Q 2250 4219 1831 4219 
Q 1534 4219 1204 4116 
Q 875 4013 500 3803 
L 500 4441 
Q 881 4594 1212 4672 
Q 1544 4750 1819 4750 
Q 2544 4750 2975 4387 
Q 3406 4025 3406 3419 
Q 3406 3131 3298 2873 
Q 3191 2616 2906 2266 
Q 2828 2175 2409 1742 
Q 1991 1309 1228 531 
z
" transform="scale(0.015625)"/>
       </defs>
       <use xlink:href="#DejaVuSans-32"/>
       <use xlink:href="#DejaVuSans-30" x="63.623047"/>
      </g>
     </g>
    </g>
    <g id="xtick_6">
     <g id="line2d_11">
      <path d="M 695.514833 360.1296 
L 695.514833 48.5568 
" clip-path="url(#pa156a86090)" style="fill: none; stroke: #b0b0b0; stroke-width: 0.8; stroke-linecap: square"/>
     </g>
     <g id="line2d_12">
      <g>
       <use xlink:href="#m8348e2e85d" x="695.514833" y="360.1296" style="stroke: #000000; stroke-width: 0.8"/>
      </g>
     </g>
     <g id="text_6">
      <!-- 25 -->
      <g transform="translate(689.152333 374.728038) scale(0.1 -0.1)">
       <use xlink:href="#DejaVuSans-32"/>
       <use xlink:href="#DejaVuSans-35" x="63.623047"/>
      </g>
     </g>
    </g>
    <g id="text_7">
     <!-- Months -->
     <g transform="translate(380.244219 388.406162) scale(0.1 -0.1)">
      <defs>
       <path id="DejaVuSans-4d" d="M 628 4666 
L 1569 4666 
L 2759 1491 
L 3956 4666 
L 4897 4666 
L 4897 0 
L 4281 0 
L 4281 4097 
L 3078 897 
L 2444 897 
L 1241 4097 
L 1241 0 
L 628 0 
L 628 4666 
z
" transform="scale(0.015625)"/>
       <path id="DejaVuSans-6f" d="M 1959 3097 
Q 1497 3097 1228 2736 
Q 959 2375 959 1747 
Q 959 1119 1226 758 
Q 1494 397 1959 397 
Q 2419 397 2687 759 
Q 2956 1122 2956 1747 
Q 2956 2369 2687 2733 
Q 2419 3097 1959 3097 
z
M 1959 3584 
Q 2709 3584 3137 3096 
Q 3566 2609 3566 1747 
Q 3566 888 3137 398 
Q 2709 -91 1959 -91 
Q 1206 -91 779 398 
Q 353 888 353 1747 
Q 353 2609 779 3096 
Q 1206 3584 1959 3584 
z
" transform="scale(0.015625)"/>
       <path id="DejaVuSans-6e" d="M 3513 2113 
L 3513 0 
L 2938 0 
L 2938 2094 
Q 2938 2591 2744 2837 
Q 2550 3084 2163 3084 
Q 1697 3084 1428 2787 
Q 1159 2491 1159 1978 
L 1159 0 
L 581 0 
L 581 3500 
L 1159 3500 
L 1159 2956 
Q 1366 3272 1645 3428 
Q 1925 3584 2291 3584 
Q 2894 3584 3203 3211 
Q 3513 2838 3513 2113 
z
" transform="scale(0.015625)"/>
       <path id="DejaVuSans-74" d="M 1172 4494 
L 1172 3500 
L 2356 3500 
L 2356 3053 
L 1172 3053 
L 1172 1153 
Q 1172 725 1289 603 
Q 1406 481 1766 481 
L 2356 481 
L 2356 0 
L 1766 0 
Q 1100 0 847 248 
Q 594 497 594 1153 
L 594 3053 
L 172 3053 
L 172 3500 
L 594 3500 
L 594 4494 
L 1172 4494 
z
" transform="scale(0.015625)"/>
       <path id="DejaVuSans-68" d="M 3513 2113 
L 3513 0 
L 2938 0 
L 2938 2094 
Q 2938 2591 2744 2837 
Q 2550 3084 2163 3084 
Q 1697 3084 1428 2787 
Q 1159 2491 1159 1978 
L 1159 0 
L 581 0 
L 581 4863 
L 1159 4863 
L 1159 2956 
Q 1366 3272 1645 3428 
Q 1925 3584 2291 3584 
Q 2894 3584 3203 3211 
Q 3513 2838 3513 2113 
z
" transform="scale(0.015625)"/>
       <path id="DejaVuSans-73" d="M 2834 3397 
L 2834 2853 
Q 2591 2978 2328 3040 
Q 2066 3103 1784 3103 
Q 1356 3103 1142 2972 
Q 928 2841 928 2578 
Q 928 2378 1081 2264 
Q 1234 2150 1697 2047 
L 1894 2003 
Q 2506 1872 2764 1633 
Q 3022 1394 3022 966 
Q 3022 478 2636 193 
Q 2250 -91 1575 -91 
Q 1294 -91 989 -36 
Q 684 19 347 128 
L 347 722 
Q 666 556 975 473 
Q 1284 391 1588 391 
Q 1994 391 2212 530 
Q 2431 669 2431 922 
Q 2431 1156 2273 1281 
Q 2116 1406 1581 1522 
L 1381 1569 
Q 847 1681 609 1914 
Q 372 2147 372 2553 
Q 372 3047 722 3315 
Q 1072 3584 1716 3584 
Q 2034 3584 2315 3537 
Q 2597 3491 2834 3397 
z
" transform="scale(0.015625)"/>
      </defs>
      <use xlink:href="#DejaVuSans-4d"/>
      <use xlink:href="#DejaVuSans-6f" x="86.279297"/>
      <use xlink:href="#DejaVuSans-6e" x="147.460938"/>
      <use xlink:href="#DejaVuSans-74" x="210.839844"/>
      <use xlink:href="#DejaVuSans-68" x="250.048828"/>
      <use xlink:href="#DejaVuSans-73" x="313.427734"/>
     </g>
    </g>
   </g>
   <g id="matplotlib.axis_2">
    <g id="ytick_1">
     <g id="line2d_13">
      <path d="M 97.2 345.9672 
L 699.84 345.9672 
" clip-path="url(#pa156a86090)" style="fill: none; stroke: #b0b0b0; stroke-width: 0.8; stroke-linecap: square"/>
     </g>
     <g id="line2d_14">
      <defs>
       <path id="mf5e0db9aaf" d="M 0 0 
L -3.5 0 
" style="stroke: #000000; stroke-width: 0.8"/>
      </defs>
      <g>
       <use xlink:href="#mf5e0db9aaf" x="97.2" y="345.9672" style="stroke: #000000; stroke-width: 0.8"/>
      </g>
     </g>
     <g id="text_8">
      <!-- 0.00 -->
      <g transform="translate(67.934375 349.766419) scale(0.1 -0.1)">
       <defs>
        <path id="DejaVuSans-2e" d="M 684 794 
L 1344 794 
L 1344 0 
L 684 0 
L 684 794 
z
" transform="scale(0.015625)"/>
       </defs>
       <use xlink:href="#DejaVuSans-30"/>
       <use xlink:href="#DejaVuSans-2e" x="63.623047"/>
       <use xlink:href="#DejaVuSans-30" x="95.410156"/>
       <use xlink:href="#DejaVuSans-30" x="159.033203"/>
      </g>
     </g>
    </g>
    <g id="ytick_2">
     <g id="line2d_15">
      <path d="M 97.2 310.5612 
L 699.84 310.5612 
" clip-path="url(#pa156a86090)" style="fill: none; stroke: #b0b0b0; stroke-width: 0.8; stroke-linecap: square"/>
     </g>
     <g id="line2d_16">
      <g>
       <use xlink:href="#mf5e0db9aaf" x="97.2" y="310.5612" style="stroke: #000000; stroke-width: 0.8"/>
      </g>
     </g>
     <g id="text_9">
      <!-- 0.25 -->
      <g transform="translate(67.934375 314.360419) scale(0.1 -0.1)">
       <use xlink:href="#DejaVuSans-30"/>
       <use xlink:href="#DejaVuSans-2e" x="63.623047"/>
       <use xlink:href="#DejaVuSans-32" x="95.410156"/>
       <use xlink:href="#DejaVuSans-35" x="159.033203"/>
      </g>
     </g>
    </g>
    <g id="ytick_3">
     <g id="line2d_17">
      <path d="M 97.2 275.1552 
L 699.84 275.1552 
" clip-path="url(#pa156a86090)" style="fill: none; stroke: #b0b0b0; stroke-width: 0.8; stroke-linecap: square"/>
     </g>
     <g id="line2d_18">
      <g>
       <use xlink:href="#mf5e0db9aaf" x="97.2" y="275.1552" style="stroke: #000000; stroke-width: 0.8"/>
      </g>
     </g>
     <g id="text_10">
      <!-- 0.50 -->
      <g transform="translate(67.934375 278.954419) scale(0.1 -0.1)">
       <use xlink:href="#DejaVuSans-30"/>
       <use xlink:href="#DejaVuSans-2e" x="63.623047"/>
       <use xlink:href="#DejaVuSans-35" x="95.410156"/>
       <use xlink:href="#DejaVuSans-30" x="159.033203"/>
      </g>
     </g>
    </g>
    <g id="ytick_4">
     <g id="line2d_19">
      <path d="M 97.2 239.7492 
L 699.84 239.7492 
" clip-path="url(#pa156a86090)" style="fill: none; stroke: #b0b0b0; stroke-width: 0.8; stroke-linecap: square"/>
     </g>
     <g id="line2d_20">
      <g>
       <use xlink:href="#mf5e0db9aaf" x="97.2" y="239.7492" style="stroke: #000000; stroke-width: 0.8"/>
      </g>
     </g>
     <g id="text_11">
      <!-- 0.75 -->
      <g transform="translate(67.934375 243.548419) scale(0.1 -0.1)">
       <defs>
        <path id="DejaVuSans-37" d="M 525 4666 
L 3525 4666 
L 3525 4397 
L 1831 0 
L 1172 0 
L 2766 4134 
L 525 4134 
L 525 4666 
z
" transform="scale(0.015625)"/>
       </defs>
       <use xlink:href="#DejaVuSans-30"/>
       <use xlink:href="#DejaVuSans-2e" x="63.623047"/>
       <use xlink:href="#DejaVuSans-37" x="95.410156"/>
       <use xlink:href="#DejaVuSans-35" x="159.033203"/>
      </g>
     </g>
    </g>
    <g id="ytick_5">
     <g id="line2d_21">
      <path d="M 97.2 204.3432 
L 699.84 204.3432 
" clip-path="url(#pa156a86090)" style="fill: none; stroke: #b0b0b0; stroke-width: 0.8; stroke-linecap: square"/>
     </g>
     <g id="line2d_22">
      <g>
       <use xlink:href="#mf5e0db9aaf" x="97.2" y="204.3432" style="stroke: #000000; stroke-width: 0.8"/>
      </g>
     </g>
     <g id="text_12">
      <!-- 1.00 -->
      <g transform="translate(67.934375 208.142419) scale(0.1 -0.1)">
       <use xlink:href="#DejaVuSans-31"/>
       <use xlink:href="#DejaVuSans-2e" x="63.623047"/>
       <use xlink:href="#DejaVuSans-30" x="95.410156"/>
       <use xlink:href="#DejaVuSans-30" x="159.033203"/>
      </g>
     </g>
    </g>
    <g id="ytick_6">
     <g id="line2d_23">
      <path d="M 97.2 168.9372 
L 699.84 168.9372 
" clip-path="url(#pa156a86090)" style="fill: none; stroke: #b0b0b0; stroke-width: 0.8; stroke-linecap: square"/>
     </g>
     <g id="line2d_24">
      <g>
       <use xlink:href="#mf5e0db9aaf" x="97.2" y="168.9372" style="stroke: #000000; stroke-width: 0.8"/>
      </g>
     </g>
     <g id="text_13">
      <!-- 1.25 -->
      <g transform="translate(67.934375 172.736419) scale(0.1 -0.1)">
       <use xlink:href="#DejaVuSans-31"/>
       <use xlink:href="#DejaVuSans-2e" x="63.623047"/>
       <use xlink:href="#DejaVuSans-32" x="95.410156"/>
       <use xlink:href="#DejaVuSans-35" x="159.033203"/>
      </g>
     </g>
    </g>
    <g id="ytick_7">
     <g id="line2d_25">
      <path d="M 97.2 133.5312 
L 699.84 133.5312 
" clip-path="url(#pa156a86090)" style="fill: none; stroke: #b0b0b0; stroke-width: 0.8; stroke-linecap: square"/>
     </g>
     <g id="line2d_26">
      <g>
       <use xlink:href="#mf5e0db9aaf" x="97.2" y="133.5312" style="stroke: #000000; stroke-width: 0.8"/>
      </g>
     </g>
     <g id="text_14">
      <!-- 1.50 -->
      <g transform="translate(67.934375 137.330419) scale(0.1 -0.1)">
       <use xlink:href="#DejaVuSans-31"/>
       <use xlink:href="#DejaVuSans-2e" x="63.623047"/>
       <use xlink:href="#DejaVuSans-35" x="95.410156"/>
       <use xlink:href="#DejaVuSans-30" x="159.033203"/>
      </g>
     </g>
    </g>
    <g id="ytick_8">
     <g id="line2d_27">
      <path d="M 97.2 98.1252 
L 699.84 98.1252 
" clip-path="url(#pa156a86090)" style="fill: none; stroke: #b0b0b0; stroke-width: 0.8; stroke-linecap: square"/>
     </g>
     <g id="line2d_28">
      <g>
       <use xlink:href="#mf5e0db9aaf" x="97.2" y="98.1252" style="stroke: #000000; stroke-width: 0.8"/>
      </g>
     </g>
     <g id="text_15">
      <!-- 1.75 -->
      <g transform="translate(67.934375 101.924419) scale(0.1 -0.1)">
       <use xlink:href="#DejaVuSans-31"/>
       <use xlink:href="#DejaVuSans-2e" x="63.623047"/>
       <use xlink:href="#DejaVuSans-37" x="95.410156"/>
       <use xlink:href="#DejaVuSans-35" x="159.033203"/>
      </g>
     </g>
    </g>
    <g id="ytick_9">
     <g id="line2d_29">
      <path d="M 97.2 62.7192 
L 699.84 62.7192 
" clip-path="url(#pa156a86090)" style="fill: none; stroke: #b0b0b0; stroke-width: 0.8; stroke-linecap: square"/>
     </g>
     <g id="line2d_30">
      <g>
       <use xlink:href="#mf5e0db9aaf" x="97.2" y="62.7192" style="stroke: #000000; stroke-width: 0.8"/>
      </g>
     </g>
     <g id="text_16">
      <!-- 2.00 -->
      <g transform="translate(67.934375 66.518419) scale(0.1 -0.1)">
       <use xlink:href="#DejaVuSans-32"/>
       <use xlink:href="#DejaVuSans-2e" x="63.623047"/>
       <use xlink:href="#DejaVuSans-30" x="95.410156"/>
       <use xlink:href="#DejaVuSans-30" x="159.033203"/>
      </g>
     </g>
    </g>
    <g id="text_17">
     <!-- Multiple -->
     <g transform="translate(61.854687 224.204138) rotate(-90) scale(0.1 -0.1)">
      <defs>
       <path id="DejaVuSans-75" d="M 544 1381 
L 544 3500 
L 1119 3500 
L 1119 1403 
Q 1119 906 1312 657 
Q 1506 409 1894 409 
Q 2359 409 2629 706 
Q 2900 1003 2900 1516 
L 2900 3500 
L 3475 3500 
L 3475 0 
L 2900 0 
L 2900 538 
Q 2691 219 2414 64 
Q 2138 -91 1772 -91 
Q 1169 -91 856 284 
Q 544 659 544 1381 
z
M 1991 3584 
L 1991 3584 
z
" transform="scale(0.015625)"/>
       <path id="DejaVuSans-6c" d="M 603 4863 
L 1178 4863 
L 1178 0 
L 603 0 
L 603 4863 
z
" transform="scale(0.015625)"/>
       <path id="DejaVuSans-69" d="M 603 3500 
L 1178 3500 
L 1178 0 
L 603 0 
L 603 3500 
z
M 603 4863 
L 1178 4863 
L 1178 4134 
L 603 4134 
L 603 4863 
z
" transform="scale(0.015625)"/>
       <path id="DejaVuSans-70" d="M 1159 525 
L 1159 -1331 
L 581 -1331 
L 581 3500 
L 1159 3500 
L 1159 2969 
Q 1341 3281 1617 3432 
Q 1894 3584 2278 3584 
Q 2916 3584 3314 3078 
Q 3713 2572 3713 1747 
Q 3713 922 3314 415 
Q 2916 -91 2278 -91 
Q 1894 -91 1617 61 
Q 1341 213 1159 525 
z
M 3116 1747 
Q 3116 2381 2855 2742 
Q 2594 3103 2138 3103 
Q 1681 3103 1420 2742 
Q 1159 2381 1159 1747 
Q 1159 1113 1420 752 
Q 1681 391 2138 391 
Q 2594 391 2855 752 
Q 3116 1113 3116 1747 
z
" transform="scale(0.015625)"/>
       <path id="DejaVuSans-65" d="M 3597 1894 
L 3597 1613 
L 953 1613 
Q 991 1019 1311 708 
Q 1631 397 2203 397 
Q 2534 397 2845 478 
Q 3156 559 3463 722 
L 3463 178 
Q 3153 47 2828 -22 
Q 2503 -91 2169 -91 
Q 1331 -91 842 396 
Q 353 884 353 1716 
Q 353 2575 817 3079 
Q 1281 3584 2069 3584 
Q 2775 3584 3186 3129 
Q 3597 2675 3597 1894 
z
M 3022 2063 
Q 3016 2534 2758 2815 
Q 2500 3097 2075 3097 
Q 1594 3097 1305 2825 
Q 1016 2553 972 2059 
L 3022 2063 
z
" transform="scale(0.015625)"/>
      </defs>
      <use xlink:href="#DejaVuSans-4d"/>
      <use xlink:href="#DejaVuSans-75" x="86.279297"/>
      <use xlink:href="#DejaVuSans-6c" x="149.658203"/>
      <use xlink:href="#DejaVuSans-74" x="177.441406"/>
      <use xlink:href="#DejaVuSans-69" x="216.650391"/>
      <use xlink:href="#DejaVuSans-70" x="244.433594"/>
      <use xlink:href="#DejaVuSans-6c" x="307.910156"/>
      <use xlink:href="#DejaVuSans-65" x="335.693359"/>
     </g>
    </g>
   </g>
   <g id="line2d_31">
    <path d="M 124.592727 62.7192 
L 130.359617 62.7192 
L 136.126507 62.7192 
L 141.893397 62.7192 
L 147.660287 62.7192 
L 153.427177 62.7192 
L 159.194067 62.7192 
L 164.960957 62.7192 
L 170.727847 62.7192 
L 176.494737 62.7192 
L 182.261627 62.7192 
L 188.028517 62.7192 
L 193.795407 62.7192 
L 199.562297 62.7192 
L 205.329187 62.7192 
L 211.096077 62.7192 
L 216.862967 62.7192 
L 222.629856 62.7192 
L 228.396746 62.7192 
L 234.163636 62.7192 
L 239.930526 62.7192 
L 245.697416 62.7192 
L 251.464306 62.7192 
L 257.231196 62.7192 
L 262.998086 62.7192 
L 268.764976 62.7192 
L 274.531866 62.7192 
L 280.298756 62.7192 
L 286.065646 62.7192 
L 291.832536 62.7192 
L 297.599426 62.7192 
L 303.366316 62.7192 
L 309.133206 62.7192 
L 314.900096 62.7192 
L 320.666986 62.7192 
L 326.433876 62.7192 
L 332.200766 62.7192 
L 337.967656 62.7192 
L 343.734545 62.7192 
L 349.501435 62.7192 
L 355.268325 62.7192 
L 361.035215 62.7192 
L 366.802105 62.7192 
L 372.568995 62.7192 
L 378.335885 62.7192 
L 384.102775 62.7192 
L 389.869665 62.7192 
L 395.636555 62.7192 
L 401.403445 62.7192 
L 407.170335 62.7192 
L 412.937225 62.7192 
L 418.704115 62.7192 
L 424.471005 62.7192 
L 430.237895 62.7192 
L 436.004785 62.7192 
L 441.771675 62.7192 
L 447.538565 62.7192 
L 453.305455 62.7192 
L 459.072344 62.7192 
L 464.839234 62.7192 
L 470.606124 62.7192 
L 476.373014 62.7192 
L 482.139904 62.7192 
L 487.906794 62.7192 
L 493.673684 62.7192 
L 499.440574 62.7192 
L 505.207464 62.7192 
L 510.974354 62.7192 
L 516.741244 62.7192 
L 522.508134 62.7192 
L 528.275024 62.7192 
L 534.041914 62.7192 
L 539.808804 62.7192 
L 545.575694 62.7192 
L 551.342584 62.7192 
L 557.109474 62.7192 
L 562.876364 62.7192 
L 568.643254 62.7192 
L 574.410144 62.7192 
L 580.177033 62.7192 
L 585.943923 62.7192 
L 591.710813 62.7192 
L 597.477703 62.7192 
L 603.244593 62.7192 
L 609.011483 62.7192 
L 614.778373 62.7192 
L 620.545263 62.7192 
L 626.312153 62.7192 
L 632.079043 62.7192 
L 637.845933 62.7192 
L 643.612823 62.7192 
L 649.379713 62.7192 
L 655.146603 62.7192 
L 660.913493 62.7192 
L 666.680383 62.7192 
L 672.447273 62.7192 
" clip-path="url(#pa156a86090)" style="fill: none; stroke: #000000; stroke-width: 1.5; stroke-linecap: square"/>
   </g>
   <g id="line2d_32">
    <path d="M 124.592727 204.3432 
L 130.359617 176.018409 
L 136.126507 157.135212 
L 141.893397 143.647213 
L 147.660287 133.531213 
L 153.427177 125.663213 
L 159.194067 119.368813 
L 164.960957 114.218849 
L 170.727847 109.927212 
L 176.494737 106.295827 
L 182.261627 103.183211 
L 188.028517 100.485611 
L 193.795407 98.12521 
L 199.562297 96.042504 
L 205.329187 94.191209 
L 211.096077 92.534788 
L 216.862967 91.044009 
L 222.629856 89.695208 
L 228.396746 88.469026 
L 234.163636 87.349469 
L 239.930526 86.323207 
L 245.697416 85.379047 
L 251.464306 84.507515 
L 257.231196 83.70054 
L 262.998086 82.951205 
L 268.764976 82.25355 
L 274.531866 81.602405 
L 280.298756 80.99327 
L 286.065646 80.422205 
L 291.832536 79.88575 
L 297.599426 79.380852 
L 303.366316 78.904805 
L 309.133206 78.455205 
L 314.900096 78.029907 
L 320.666986 77.626994 
L 326.433876 77.244743 
L 332.200766 76.881604 
L 337.967656 76.53618 
L 343.734545 76.207204 
L 349.501435 75.89353 
L 355.268325 75.594113 
L 361.035215 75.308004 
L 366.802105 75.034334 
L 372.568995 74.77231 
L 378.335885 74.521204 
L 384.102775 74.280347 
L 389.869665 74.049124 
L 395.636555 73.826968 
L 401.403445 73.613357 
L 407.170335 73.407807 
L 412.937225 73.20987 
L 418.704115 73.019131 
L 424.471005 72.835203 
L 430.237895 72.65773 
L 436.004785 72.486376 
L 441.771675 72.32083 
L 447.538565 72.160803 
L 453.305455 72.006023 
L 459.072344 71.856235 
L 464.839234 71.711203 
L 470.606124 71.570703 
L 476.373014 71.434526 
L 482.139904 71.302476 
L 487.906794 71.174367 
L 493.673684 71.050026 
L 499.440574 70.92929 
L 505.207464 70.812003 
L 510.974354 70.69802 
L 516.741244 70.587203 
L 522.508134 70.479422 
L 528.275024 70.374554 
L 534.041914 70.272483 
L 539.808804 70.173097 
L 545.575694 70.076293 
L 551.342584 69.981972 
L 557.109474 69.890038 
L 562.876364 69.800402 
L 568.643254 69.71298 
L 574.410144 69.62769 
L 580.177033 69.544455 
L 585.943923 69.463202 
L 591.710813 69.383861 
L 597.477703 69.306365 
L 603.244593 69.230651 
L 609.011483 69.156657 
L 614.778373 69.084326 
L 620.545263 69.013602 
L 626.312153 68.944433 
L 632.079043 68.876767 
L 637.845933 68.810557 
L 643.612823 68.745755 
L 649.379713 68.682318 
L 655.146603 68.620202 
L 660.913493 68.559367 
L 666.680383 68.499773 
L 672.447273 68.441384 
" clip-path="url(#pa156a86090)" style="fill: none; stroke-dasharray: 5.55,2.4; stroke-dashoffset: 0; stroke: #000000; stroke-width: 1.5"/>
   </g>
   <g id="patch_3">
    <path d="M 97.2 360.1296 
L 97.2 48.5568 
" style="fill: none; stroke: #000000; stroke-width: 0.8; stroke-linejoin: miter; stroke-linecap: square"/>
   </g>
   <g id="patch_4">
    <path d="M 699.84 360.1296 
L 699.84 48.5568 
" style="fill: none; stroke: #000000; stroke-width: 0.8; stroke-linejoin: miter; stroke-linecap: square"/>
   </g>
   <g id="patch_5">
    <path d="M 97.2 360.1296 
L 699.84 360.1296 
" style="fill: none; stroke: #000000; stroke-width: 0.8; stroke-linejoin: miter; stroke-linecap: square"/>
   </g>
   <g id="patch_6">
    <path d="M 97.2 48.5568 
L 699.84 48.5568 
" style="fill: none; stroke: #000000; stroke-width: 0.8; stroke-linejoin: miter; stroke-linecap: square"/>
   </g>
   <g id="text_18">
    <!-- Treasury Share Reparametrization -->
    <g transform="translate(282.344063 42.5568) scale(0.12 -0.12)">
     <defs>
      <path id="DejaVuSans-Bold-54" d="M 31 4666 
L 4331 4666 
L 4331 3756 
L 2784 3756 
L 2784 0 
L 1581 0 
L 1581 3756 
L 31 3756 
L 31 4666 
z
" transform="scale(0.015625)"/>
      <path id="DejaVuSans-Bold-72" d="M 3138 2547 
Q 2991 2616 2845 2648 
Q 2700 2681 2553 2681 
Q 2122 2681 1889 2404 
Q 1656 2128 1656 1613 
L 1656 0 
L 538 0 
L 538 3500 
L 1656 3500 
L 1656 2925 
Q 1872 3269 2151 3426 
Q 2431 3584 2822 3584 
Q 2878 3584 2943 3579 
Q 3009 3575 3134 3559 
L 3138 2547 
z
" transform="scale(0.015625)"/>
      <path id="DejaVuSans-Bold-65" d="M 4031 1759 
L 4031 1441 
L 1416 1441 
Q 1456 1047 1700 850 
Q 1944 653 2381 653 
Q 2734 653 3104 758 
Q 3475 863 3866 1075 
L 3866 213 
Q 3469 63 3072 -14 
Q 2675 -91 2278 -91 
Q 1328 -91 801 392 
Q 275 875 275 1747 
Q 275 2603 792 3093 
Q 1309 3584 2216 3584 
Q 3041 3584 3536 3087 
Q 4031 2591 4031 1759 
z
M 2881 2131 
Q 2881 2450 2695 2645 
Q 2509 2841 2209 2841 
Q 1884 2841 1681 2658 
Q 1478 2475 1428 2131 
L 2881 2131 
z
" transform="scale(0.015625)"/>
      <path id="DejaVuSans-Bold-61" d="M 2106 1575 
Q 1756 1575 1579 1456 
Q 1403 1338 1403 1106 
Q 1403 894 1545 773 
Q 1688 653 1941 653 
Q 2256 653 2472 879 
Q 2688 1106 2688 1447 
L 2688 1575 
L 2106 1575 
z
M 3816 1997 
L 3816 0 
L 2688 0 
L 2688 519 
Q 2463 200 2181 54 
Q 1900 -91 1497 -91 
Q 953 -91 614 226 
Q 275 544 275 1050 
Q 275 1666 698 1953 
Q 1122 2241 2028 2241 
L 2688 2241 
L 2688 2328 
Q 2688 2594 2478 2717 
Q 2269 2841 1825 2841 
Q 1466 2841 1156 2769 
Q 847 2697 581 2553 
L 581 3406 
Q 941 3494 1303 3539 
Q 1666 3584 2028 3584 
Q 2975 3584 3395 3211 
Q 3816 2838 3816 1997 
z
" transform="scale(0.015625)"/>
      <path id="DejaVuSans-Bold-73" d="M 3272 3391 
L 3272 2541 
Q 2913 2691 2578 2766 
Q 2244 2841 1947 2841 
Q 1628 2841 1473 2761 
Q 1319 2681 1319 2516 
Q 1319 2381 1436 2309 
Q 1553 2238 1856 2203 
L 2053 2175 
Q 2913 2066 3209 1816 
Q 3506 1566 3506 1031 
Q 3506 472 3093 190 
Q 2681 -91 1863 -91 
Q 1516 -91 1145 -36 
Q 775 19 384 128 
L 384 978 
Q 719 816 1070 734 
Q 1422 653 1784 653 
Q 2113 653 2278 743 
Q 2444 834 2444 1013 
Q 2444 1163 2330 1236 
Q 2216 1309 1875 1350 
L 1678 1375 
Q 931 1469 631 1722 
Q 331 1975 331 2491 
Q 331 3047 712 3315 
Q 1094 3584 1881 3584 
Q 2191 3584 2531 3537 
Q 2872 3491 3272 3391 
z
" transform="scale(0.015625)"/>
      <path id="DejaVuSans-Bold-75" d="M 500 1363 
L 500 3500 
L 1625 3500 
L 1625 3150 
Q 1625 2866 1622 2436 
Q 1619 2006 1619 1863 
Q 1619 1441 1641 1255 
Q 1663 1069 1716 984 
Q 1784 875 1895 815 
Q 2006 756 2150 756 
Q 2500 756 2700 1025 
Q 2900 1294 2900 1772 
L 2900 3500 
L 4019 3500 
L 4019 0 
L 2900 0 
L 2900 506 
Q 2647 200 2364 54 
Q 2081 -91 1741 -91 
Q 1134 -91 817 281 
Q 500 653 500 1363 
z
" transform="scale(0.015625)"/>
      <path id="DejaVuSans-Bold-79" d="M 78 3500 
L 1197 3500 
L 2138 1125 
L 2938 3500 
L 4056 3500 
L 2584 -331 
Q 2363 -916 2067 -1148 
Q 1772 -1381 1288 -1381 
L 641 -1381 
L 641 -647 
L 991 -647 
Q 1275 -647 1404 -556 
Q 1534 -466 1606 -231 
L 1638 -134 
L 78 3500 
z
" transform="scale(0.015625)"/>
      <path id="DejaVuSans-Bold-20" transform="scale(0.015625)"/>
      <path id="DejaVuSans-Bold-53" d="M 3834 4519 
L 3834 3531 
Q 3450 3703 3084 3790 
Q 2719 3878 2394 3878 
Q 1963 3878 1756 3759 
Q 1550 3641 1550 3391 
Q 1550 3203 1689 3098 
Q 1828 2994 2194 2919 
L 2706 2816 
Q 3484 2659 3812 2340 
Q 4141 2022 4141 1434 
Q 4141 663 3683 286 
Q 3225 -91 2284 -91 
Q 1841 -91 1394 -6 
Q 947 78 500 244 
L 500 1259 
Q 947 1022 1364 901 
Q 1781 781 2169 781 
Q 2563 781 2772 912 
Q 2981 1044 2981 1288 
Q 2981 1506 2839 1625 
Q 2697 1744 2272 1838 
L 1806 1941 
Q 1106 2091 782 2419 
Q 459 2747 459 3303 
Q 459 4000 909 4375 
Q 1359 4750 2203 4750 
Q 2588 4750 2994 4692 
Q 3400 4634 3834 4519 
z
" transform="scale(0.015625)"/>
      <path id="DejaVuSans-Bold-68" d="M 4056 2131 
L 4056 0 
L 2931 0 
L 2931 347 
L 2931 1625 
Q 2931 2084 2911 2256 
Q 2891 2428 2841 2509 
Q 2775 2619 2662 2680 
Q 2550 2741 2406 2741 
Q 2056 2741 1856 2470 
Q 1656 2200 1656 1722 
L 1656 0 
L 538 0 
L 538 4863 
L 1656 4863 
L 1656 2988 
Q 1909 3294 2193 3439 
Q 2478 3584 2822 3584 
Q 3428 3584 3742 3212 
Q 4056 2841 4056 2131 
z
" transform="scale(0.015625)"/>
      <path id="DejaVuSans-Bold-52" d="M 2297 2597 
Q 2675 2597 2839 2737 
Q 3003 2878 3003 3200 
Q 3003 3519 2839 3656 
Q 2675 3794 2297 3794 
L 1791 3794 
L 1791 2597 
L 2297 2597 
z
M 1791 1766 
L 1791 0 
L 588 0 
L 588 4666 
L 2425 4666 
Q 3347 4666 3776 4356 
Q 4206 4047 4206 3378 
Q 4206 2916 3982 2619 
Q 3759 2322 3309 2181 
Q 3556 2125 3751 1926 
Q 3947 1728 4147 1325 
L 4800 0 
L 3519 0 
L 2950 1159 
Q 2778 1509 2601 1637 
Q 2425 1766 2131 1766 
L 1791 1766 
z
" transform="scale(0.015625)"/>
      <path id="DejaVuSans-Bold-70" d="M 1656 506 
L 1656 -1331 
L 538 -1331 
L 538 3500 
L 1656 3500 
L 1656 2988 
Q 1888 3294 2169 3439 
Q 2450 3584 2816 3584 
Q 3463 3584 3878 3070 
Q 4294 2556 4294 1747 
Q 4294 938 3878 423 
Q 3463 -91 2816 -91 
Q 2450 -91 2169 54 
Q 1888 200 1656 506 
z
M 2400 2772 
Q 2041 2772 1848 2508 
Q 1656 2244 1656 1747 
Q 1656 1250 1848 986 
Q 2041 722 2400 722 
Q 2759 722 2948 984 
Q 3138 1247 3138 1747 
Q 3138 2247 2948 2509 
Q 2759 2772 2400 2772 
z
" transform="scale(0.015625)"/>
      <path id="DejaVuSans-Bold-6d" d="M 3781 2919 
Q 3994 3244 4286 3414 
Q 4578 3584 4928 3584 
Q 5531 3584 5847 3212 
Q 6163 2841 6163 2131 
L 6163 0 
L 5038 0 
L 5038 1825 
Q 5041 1866 5042 1909 
Q 5044 1953 5044 2034 
Q 5044 2406 4934 2573 
Q 4825 2741 4581 2741 
Q 4263 2741 4089 2478 
Q 3916 2216 3909 1719 
L 3909 0 
L 2784 0 
L 2784 1825 
Q 2784 2406 2684 2573 
Q 2584 2741 2328 2741 
Q 2006 2741 1831 2477 
Q 1656 2213 1656 1722 
L 1656 0 
L 531 0 
L 531 3500 
L 1656 3500 
L 1656 2988 
Q 1863 3284 2130 3434 
Q 2397 3584 2719 3584 
Q 3081 3584 3359 3409 
Q 3638 3234 3781 2919 
z
" transform="scale(0.015625)"/>
      <path id="DejaVuSans-Bold-74" d="M 1759 4494 
L 1759 3500 
L 2913 3500 
L 2913 2700 
L 1759 2700 
L 1759 1216 
Q 1759 972 1856 886 
Q 1953 800 2241 800 
L 2816 800 
L 2816 0 
L 1856 0 
Q 1194 0 917 276 
Q 641 553 641 1216 
L 641 2700 
L 84 2700 
L 84 3500 
L 641 3500 
L 641 4494 
L 1759 4494 
z
" transform="scale(0.015625)"/>
      <path id="DejaVuSans-Bold-69" d="M 538 3500 
L 1656 3500 
L 1656 0 
L 538 0 
L 538 3500 
z
M 538 4863 
L 1656 4863 
L 1656 3950 
L 538 3950 
L 538 4863 
z
" transform="scale(0.015625)"/>
      <path id="DejaVuSans-Bold-7a" d="M 366 3500 
L 3419 3500 
L 3419 2719 
L 1575 800 
L 3419 800 
L 3419 0 
L 288 0 
L 288 781 
L 2131 2700 
L 366 2700 
L 366 3500 
z
" transform="scale(0.015625)"/>
      <path id="DejaVuSans-Bold-6f" d="M 2203 2784 
Q 1831 2784 1636 2517 
Q 1441 2250 1441 1747 
Q 1441 1244 1636 976 
Q 1831 709 2203 709 
Q 2569 709 2762 976 
Q 2956 1244 2956 1747 
Q 2956 2250 2762 2517 
Q 2569 2784 2203 2784 
z
M 2203 3584 
Q 3106 3584 3614 3096 
Q 4122 2609 4122 1747 
Q 4122 884 3614 396 
Q 3106 -91 2203 -91 
Q 1297 -91 786 396 
Q 275 884 275 1747 
Q 275 2609 786 3096 
Q 1297 3584 2203 3584 
z
" transform="scale(0.015625)"/>
      <path id="DejaVuSans-Bold-6e" d="M 4056 2131 
L 4056 0 
L 2931 0 
L 2931 347 
L 2931 1631 
Q 2931 2084 2911 2256 
Q 2891 2428 2841 2509 
Q 2775 2619 2662 2680 
Q 2550 2741 2406 2741 
Q 2056 2741 1856 2470 
Q 1656 2200 1656 1722 
L 1656 0 
L 538 0 
L 538 3500 
L 1656 3500 
L 1656 2988 
Q 1909 3294 2193 3439 
Q 2478 3584 2822 3584 
Q 3428 3584 3742 3212 
Q 4056 2841 4056 2131 
z
" transform="scale(0.015625)"/>
     </defs>
     <use xlink:href="#DejaVuSans-Bold-54"/>
     <use xlink:href="#DejaVuSans-Bold-72" x="57.212891"/>
     <use xlink:href="#DejaVuSans-Bold-65" x="106.529297"/>
     <use xlink:href="#DejaVuSans-Bold-61" x="174.351562"/>
     <use xlink:href="#DejaVuSans-Bold-73" x="241.832031"/>
     <use xlink:href="#DejaVuSans-Bold-75" x="301.353516"/>
     <use xlink:href="#DejaVuSans-Bold-72" x="372.544922"/>
     <use xlink:href="#DejaVuSans-Bold-79" x="421.861328"/>
     <use xlink:href="#DejaVuSans-Bold-20" x="487.046875"/>
     <use xlink:href="#DejaVuSans-Bold-53" x="521.861328"/>
     <use xlink:href="#DejaVuSans-Bold-68" x="593.882812"/>
     <use xlink:href="#DejaVuSans-Bold-61" x="665.074219"/>
     <use xlink:href="#DejaVuSans-Bold-72" x="732.554688"/>
     <use xlink:href="#DejaVuSans-Bold-65" x="781.871094"/>
     <use xlink:href="#DejaVuSans-Bold-20" x="849.693359"/>
     <use xlink:href="#DejaVuSans-Bold-52" x="884.507812"/>
     <use xlink:href="#DejaVuSans-Bold-65" x="961.509766"/>
     <use xlink:href="#DejaVuSans-Bold-70" x="1029.332031"/>
     <use xlink:href="#DejaVuSans-Bold-61" x="1100.914062"/>
     <use xlink:href="#DejaVuSans-Bold-72" x="1168.394531"/>
     <use xlink:href="#DejaVuSans-Bold-61" x="1217.710938"/>
     <use xlink:href="#DejaVuSans-Bold-6d" x="1285.191406"/>
     <use xlink:href="#DejaVuSans-Bold-65" x="1389.390625"/>
     <use xlink:href="#DejaVuSans-Bold-74" x="1457.212891"/>
     <use xlink:href="#DejaVuSans-Bold-72" x="1505.015625"/>
     <use xlink:href="#DejaVuSans-Bold-69" x="1554.332031"/>
     <use xlink:href="#DejaVuSans-Bold-7a" x="1588.609375"/>
     <use xlink:href="#DejaVuSans-Bold-61" x="1646.8125"/>
     <use xlink:href="#DejaVuSans-Bold-74" x="1714.292969"/>
     <use xlink:href="#DejaVuSans-Bold-69" x="1762.095703"/>
     <use xlink:href="#DejaVuSans-Bold-6f" x="1796.373047"/>
     <use xlink:href="#DejaVuSans-Bold-6e" x="1865.074219"/>
    </g>
   </g>
   <g id="legend_1">
    <g id="patch_7">
     <path d="M 104.2 355.1296 
L 244.192187 355.1296 
Q 246.192187 355.1296 246.192187 353.1296 
L 246.192187 324.77335 
Q 246.192187 322.77335 244.192187 322.77335 
L 104.2 322.77335 
Q 102.2 322.77335 102.2 324.77335 
L 102.2 353.1296 
Q 102.2 355.1296 104.2 355.1296 
z
" style="fill: #ffffff; opacity: 0.8; stroke: #cccccc; stroke-linejoin: miter"/>
    </g>
    <g id="line2d_33">
     <path d="M 106.2 330.871787 
L 116.2 330.871787 
L 126.2 330.871787 
" style="fill: none; stroke: #000000; stroke-width: 1.5; stroke-linecap: square"/>
    </g>
    <g id="text_19">
     <!-- Treasury Share target -->
     <g transform="translate(134.2 334.371787) scale(0.1 -0.1)">
      <defs>
       <path id="DejaVuSans-54" d="M -19 4666 
L 3928 4666 
L 3928 4134 
L 2272 4134 
L 2272 0 
L 1638 0 
L 1638 4134 
L -19 4134 
L -19 4666 
z
" transform="scale(0.015625)"/>
       <path id="DejaVuSans-72" d="M 2631 2963 
Q 2534 3019 2420 3045 
Q 2306 3072 2169 3072 
Q 1681 3072 1420 2755 
Q 1159 2438 1159 1844 
L 1159 0 
L 581 0 
L 581 3500 
L 1159 3500 
L 1159 2956 
Q 1341 3275 1631 3429 
Q 1922 3584 2338 3584 
Q 2397 3584 2469 3576 
Q 2541 3569 2628 3553 
L 2631 2963 
z
" transform="scale(0.015625)"/>
       <path id="DejaVuSans-61" d="M 2194 1759 
Q 1497 1759 1228 1600 
Q 959 1441 959 1056 
Q 959 750 1161 570 
Q 1363 391 1709 391 
Q 2188 391 2477 730 
Q 2766 1069 2766 1631 
L 2766 1759 
L 2194 1759 
z
M 3341 1997 
L 3341 0 
L 2766 0 
L 2766 531 
Q 2569 213 2275 61 
Q 1981 -91 1556 -91 
Q 1019 -91 701 211 
Q 384 513 384 1019 
Q 384 1609 779 1909 
Q 1175 2209 1959 2209 
L 2766 2209 
L 2766 2266 
Q 2766 2663 2505 2880 
Q 2244 3097 1772 3097 
Q 1472 3097 1187 3025 
Q 903 2953 641 2809 
L 641 3341 
Q 956 3463 1253 3523 
Q 1550 3584 1831 3584 
Q 2591 3584 2966 3190 
Q 3341 2797 3341 1997 
z
" transform="scale(0.015625)"/>
       <path id="DejaVuSans-79" d="M 2059 -325 
Q 1816 -950 1584 -1140 
Q 1353 -1331 966 -1331 
L 506 -1331 
L 506 -850 
L 844 -850 
Q 1081 -850 1212 -737 
Q 1344 -625 1503 -206 
L 1606 56 
L 191 3500 
L 800 3500 
L 1894 763 
L 2988 3500 
L 3597 3500 
L 2059 -325 
z
" transform="scale(0.015625)"/>
       <path id="DejaVuSans-20" transform="scale(0.015625)"/>
       <path id="DejaVuSans-53" d="M 3425 4513 
L 3425 3897 
Q 3066 4069 2747 4153 
Q 2428 4238 2131 4238 
Q 1616 4238 1336 4038 
Q 1056 3838 1056 3469 
Q 1056 3159 1242 3001 
Q 1428 2844 1947 2747 
L 2328 2669 
Q 3034 2534 3370 2195 
Q 3706 1856 3706 1288 
Q 3706 609 3251 259 
Q 2797 -91 1919 -91 
Q 1588 -91 1214 -16 
Q 841 59 441 206 
L 441 856 
Q 825 641 1194 531 
Q 1563 422 1919 422 
Q 2459 422 2753 634 
Q 3047 847 3047 1241 
Q 3047 1584 2836 1778 
Q 2625 1972 2144 2069 
L 1759 2144 
Q 1053 2284 737 2584 
Q 422 2884 422 3419 
Q 422 4038 858 4394 
Q 1294 4750 2059 4750 
Q 2388 4750 2728 4690 
Q 3069 4631 3425 4513 
z
" transform="scale(0.015625)"/>
       <path id="DejaVuSans-67" d="M 2906 1791 
Q 2906 2416 2648 2759 
Q 2391 3103 1925 3103 
Q 1463 3103 1205 2759 
Q 947 2416 947 1791 
Q 947 1169 1205 825 
Q 1463 481 1925 481 
Q 2391 481 2648 825 
Q 2906 1169 2906 1791 
z
M 3481 434 
Q 3481 -459 3084 -895 
Q 2688 -1331 1869 -1331 
Q 1566 -1331 1297 -1286 
Q 1028 -1241 775 -1147 
L 775 -588 
Q 1028 -725 1275 -790 
Q 1522 -856 1778 -856 
Q 2344 -856 2625 -561 
Q 2906 -266 2906 331 
L 2906 616 
Q 2728 306 2450 153 
Q 2172 0 1784 0 
Q 1141 0 747 490 
Q 353 981 353 1791 
Q 353 2603 747 3093 
Q 1141 3584 1784 3584 
Q 2172 3584 2450 3431 
Q 2728 3278 2906 2969 
L 2906 3500 
L 3481 3500 
L 3481 434 
z
" transform="scale(0.015625)"/>
      </defs>
      <use xlink:href="#DejaVuSans-54"/>
      <use xlink:href="#DejaVuSans-72" x="46.333984"/>
      <use xlink:href="#DejaVuSans-65" x="85.197266"/>
      <use xlink:href="#DejaVuSans-61" x="146.720703"/>
      <use xlink:href="#DejaVuSans-73" x="208"/>
      <use xlink:href="#DejaVuSans-75" x="260.099609"/>
      <use xlink:href="#DejaVuSans-72" x="323.478516"/>
      <use xlink:href="#DejaVuSans-79" x="364.591797"/>
      <use xlink:href="#DejaVuSans-20" x="423.771484"/>
      <use xlink:href="#DejaVuSans-53" x="455.558594"/>
      <use xlink:href="#DejaVuSans-68" x="519.035156"/>
      <use xlink:href="#DejaVuSans-61" x="582.414062"/>
      <use xlink:href="#DejaVuSans-72" x="643.693359"/>
      <use xlink:href="#DejaVuSans-65" x="682.556641"/>
      <use xlink:href="#DejaVuSans-20" x="744.080078"/>
      <use xlink:href="#DejaVuSans-74" x="775.867188"/>
      <use xlink:href="#DejaVuSans-61" x="815.076172"/>
      <use xlink:href="#DejaVuSans-72" x="876.355469"/>
      <use xlink:href="#DejaVuSans-67" x="915.71875"/>
      <use xlink:href="#DejaVuSans-65" x="979.195312"/>
      <use xlink:href="#DejaVuSans-74" x="1040.71875"/>
     </g>
    </g>
    <g id="line2d_34">
     <path d="M 106.2 345.549913 
L 116.2 345.549913 
L 126.2 345.549913 
" style="fill: none; stroke-dasharray: 5.55,2.4; stroke-dashoffset: 0; stroke: #000000; stroke-width: 1.5"/>
    </g>
    <g id="text_20">
     <!-- Treasury Share value -->
     <g transform="translate(134.2 349.049913) scale(0.1 -0.1)">
      <defs>
       <path id="DejaVuSans-76" d="M 191 3500 
L 800 3500 
L 1894 563 
L 2988 3500 
L 3597 3500 
L 2284 0 
L 1503 0 
L 191 3500 
z
" transform="scale(0.015625)"/>
      </defs>
      <use xlink:href="#DejaVuSans-54"/>
      <use xlink:href="#DejaVuSans-72" x="46.333984"/>
      <use xlink:href="#DejaVuSans-65" x="85.197266"/>
      <use xlink:href="#DejaVuSans-61" x="146.720703"/>
      <use xlink:href="#DejaVuSans-73" x="208"/>
      <use xlink:href="#DejaVuSans-75" x="260.099609"/>
      <use xlink:href="#DejaVuSans-72" x="323.478516"/>
      <use xlink:href="#DejaVuSans-79" x="364.591797"/>
      <use xlink:href="#DejaVuSans-20" x="423.771484"/>
      <use xlink:href="#DejaVuSans-53" x="455.558594"/>
      <use xlink:href="#DejaVuSans-68" x="519.035156"/>
      <use xlink:href="#DejaVuSans-61" x="582.414062"/>
      <use xlink:href="#DejaVuSans-72" x="643.693359"/>
      <use xlink:href="#DejaVuSans-65" x="682.556641"/>
      <use xlink:href="#DejaVuSans-20" x="744.080078"/>
      <use xlink:href="#DejaVuSans-76" x="775.867188"/>
      <use xlink:href="#DejaVuSans-61" x="835.046875"/>
      <use xlink:href="#DejaVuSans-6c" x="896.326172"/>
      <use xlink:href="#DejaVuSans-75" x="924.109375"/>
      <use xlink:href="#DejaVuSans-65" x="987.488281"/>
     </g>
    </g>
   </g>
  </g>
 </g>
 <defs>
  <clipPath id="pa156a86090">
   <rect x="97.2" y="48.5568" width="602.64" height="311.5728"/>
  </clipPath>
 </defs>
</svg>
