<?xml version="1.0" encoding="utf-8" standalone="no"?>
<!DOCTYPE svg PUBLIC "-//W3C//DTD SVG 1.1//EN"
  "http://www.w3.org/Graphics/SVG/1.1/DTD/svg11.dtd">
<svg xmlns:xlink="http://www.w3.org/1999/xlink" width="777.6pt" height="404.64pt" viewBox="0 0 777.6 404.64" xmlns="http://www.w3.org/2000/svg" version="1.1">
 <metadata>
  <rdf:RDF xmlns:dc="http://purl.org/dc/elements/1.1/" xmlns:cc="http://creativecommons.org/ns#" xmlns:rdf="http://www.w3.org/1999/02/22-rdf-syntax-ns#">
   <cc:Work>
    <dc:type rdf:resource="http://purl.org/dc/dcmitype/StillImage"/>
    <dc:date>2023-02-24T02:56:57.685384</dc:date>
    <dc:format>image/svg+xml</dc:format>
    <dc:creator>
     <cc:Agent>
      <dc:title>Matplotlib v3.6.2, https://matplotlib.org/</dc:title>
     </cc:Agent>
    </dc:creator>
   </cc:Work>
  </rdf:RDF>
 </metadata>
 <defs>
  <style type="text/css">*{stroke-linejoin: round; stroke-linecap: butt}</style>
 </defs>
 <g id="figure_1">
  <g id="patch_1">
   <path d="M 0 404.64 
L 777.6 404.64 
L 777.6 0 
L 0 0 
z
" style="fill: #ffffff"/>
  </g>
  <g id="axes_1">
   <g id="patch_2">
    <path d="M 97.2 360.1296 
L 699.84 360.1296 
L 699.84 48.5568 
L 97.2 48.5568 
z
" style="fill: #ffffff"/>
   </g>
   <g id="PolyCollection_1">
    <defs>
     <path id="m09048ebb74" d="M 124.592727 -58.6728 
L 124.592727 -83.460034 
L 131.897455 -83.460034 
L 139.202182 -83.460034 
L 146.506909 -83.460034 
L 153.811636 -83.460034 
L 161.116364 -83.460034 
L 168.421091 -83.460034 
L 175.725818 -83.460034 
L 183.030545 -83.460034 
L 190.335273 -83.460034 
L 197.64 -83.460034 
L 204.944727 -83.460034 
L 212.249455 -83.460034 
L 219.554182 -83.460034 
L 226.858909 -83.460034 
L 234.163636 -83.460034 
L 241.468364 -83.460034 
L 248.773091 -246.530621 
L 256.077818 -246.530621 
L 263.382545 -246.530621 
L 270.687273 -246.530621 
L 277.992 -246.530621 
L 285.296727 -246.530621 
L 292.601455 -246.530621 
L 299.906182 -246.530621 
L 307.210909 -246.530621 
L 314.515636 -246.530621 
L 321.820364 -246.530621 
L 329.125091 -246.530621 
L 336.429818 -246.530621 
L 343.734545 -246.530621 
L 351.039273 -246.530621 
L 358.344 -246.530621 
L 365.648727 -246.530621 
L 372.953455 -246.530621 
L 380.258182 -246.530621 
L 387.562909 -246.530621 
L 394.867636 -246.530621 
L 402.172364 -246.530621 
L 409.477091 -246.530621 
L 416.781818 -246.530621 
L 424.086545 -246.530621 
L 431.391273 -246.530621 
L 438.696 -246.530621 
L 446.000727 -246.530621 
L 453.305455 -246.530621 
L 460.610182 -246.530621 
L 467.914909 -246.530621 
L 475.219636 -246.530621 
L 482.524364 -246.530621 
L 489.829091 -246.530621 
L 497.133818 -246.530621 
L 504.438545 -246.530621 
L 511.743273 -246.530621 
L 519.048 -246.530621 
L 526.352727 -246.530621 
L 533.657455 -246.530621 
L 540.962182 -246.530621 
L 548.266909 -246.530621 
L 555.571636 -246.530621 
L 562.876364 -246.530621 
L 570.181091 -246.530621 
L 577.485818 -246.530621 
L 584.790545 -246.530621 
L 592.095273 -246.530621 
L 599.4 -341.9208 
L 606.704727 -341.9208 
L 614.009455 -341.9208 
L 621.314182 -341.9208 
L 628.618909 -341.9208 
L 635.923636 -341.9208 
L 643.228364 -341.9208 
L 650.533091 -341.9208 
L 657.837818 -341.9208 
L 665.142545 -341.9208 
L 672.447273 -341.9208 
L 672.447273 -329.853482 
L 672.447273 -329.853482 
L 665.142545 -329.853482 
L 657.837818 -329.853482 
L 650.533091 -329.853482 
L 643.228364 -329.853482 
L 635.923636 -329.853482 
L 628.618909 -329.853482 
L 621.314182 -329.853482 
L 614.009455 -329.853482 
L 606.704727 -329.853482 
L 599.4 -329.853482 
L 592.095273 -234.463303 
L 584.790545 -234.463303 
L 577.485818 -234.463303 
L 570.181091 -234.463303 
L 562.876364 -234.463303 
L 555.571636 -234.463303 
L 548.266909 -234.463303 
L 540.962182 -234.463303 
L 533.657455 -234.463303 
L 526.352727 -234.463303 
L 519.048 -234.463303 
L 511.743273 -234.463303 
L 504.438545 -234.463303 
L 497.133818 -234.463303 
L 489.829091 -234.463303 
L 482.524364 -234.463303 
L 475.219636 -234.463303 
L 467.914909 -234.463303 
L 460.610182 -234.463303 
L 453.305455 -234.463303 
L 446.000727 -234.463303 
L 438.696 -234.463303 
L 431.391273 -234.463303 
L 424.086545 -234.463303 
L 416.781818 -234.463303 
L 409.477091 -234.463303 
L 402.172364 -234.463303 
L 394.867636 -234.463303 
L 387.562909 -234.463303 
L 380.258182 -234.463303 
L 372.953455 -234.463303 
L 365.648727 -234.463303 
L 358.344 -234.463303 
L 351.039273 -234.463303 
L 343.734545 -234.463303 
L 336.429818 -228.189301 
L 329.125091 -228.189301 
L 321.820364 -228.189301 
L 314.515636 -228.189301 
L 307.210909 -228.189301 
L 299.906182 -228.189301 
L 292.601455 -228.189301 
L 285.296727 -228.189301 
L 277.992 -228.189301 
L 270.687273 -228.189301 
L 263.382545 -228.189301 
L 256.077818 -228.189301 
L 248.773091 -228.189301 
L 241.468364 -58.6728 
L 234.163636 -58.6728 
L 226.858909 -58.6728 
L 219.554182 -58.6728 
L 212.249455 -58.6728 
L 204.944727 -58.6728 
L 197.64 -58.6728 
L 190.335273 -58.6728 
L 183.030545 -58.6728 
L 175.725818 -58.6728 
L 168.421091 -58.6728 
L 161.116364 -58.6728 
L 153.811636 -58.6728 
L 146.506909 -58.6728 
L 139.202182 -58.6728 
L 131.897455 -58.6728 
L 124.592727 -58.6728 
z
" style="stroke: #ff0000; stroke-opacity: 0.5"/>
    </defs>
    <g clip-path="url(#p9257b95122)">
     <use xlink:href="#m09048ebb74" x="0" y="404.64" style="fill: #ff0000; fill-opacity: 0.5; stroke: #ff0000; stroke-opacity: 0.5"/>
    </g>
   </g>
   <g id="PolyCollection_2">
    <defs>
     <path id="m734d8942c1" d="M 124.592727 -83.460034 
L 124.592727 -58.6728 
L 131.897455 -58.6728 
L 139.202182 -58.6728 
L 146.506909 -58.6728 
L 153.811636 -58.6728 
L 161.116364 -58.6728 
L 168.421091 -58.6728 
L 175.725818 -58.6728 
L 183.030545 -58.6728 
L 190.335273 -58.6728 
L 197.64 -58.6728 
L 204.944727 -58.6728 
L 212.249455 -58.6728 
L 219.554182 -58.6728 
L 226.858909 -58.6728 
L 234.163636 -58.6728 
L 241.468364 -58.6728 
L 248.773091 -228.189301 
L 256.077818 -228.189301 
L 263.382545 -228.189301 
L 270.687273 -228.189301 
L 277.992 -228.189301 
L 285.296727 -228.189301 
L 292.601455 -228.189301 
L 299.906182 -228.189301 
L 307.210909 -228.189301 
L 314.515636 -228.189301 
L 321.820364 -228.189301 
L 329.125091 -228.189301 
L 336.429818 -228.189301 
L 343.734545 -234.463303 
L 351.039273 -234.463303 
L 358.344 -234.463303 
L 365.648727 -234.463303 
L 372.953455 -234.463303 
L 380.258182 -234.463303 
L 387.562909 -234.463303 
L 394.867636 -234.463303 
L 402.172364 -234.463303 
L 409.477091 -234.463303 
L 416.781818 -234.463303 
L 424.086545 -234.463303 
L 431.391273 -234.463303 
L 438.696 -234.463303 
L 446.000727 -234.463303 
L 453.305455 -234.463303 
L 460.610182 -234.463303 
L 467.914909 -234.463303 
L 475.219636 -234.463303 
L 482.524364 -234.463303 
L 489.829091 -234.463303 
L 497.133818 -234.463303 
L 504.438545 -234.463303 
L 511.743273 -234.463303 
L 519.048 -234.463303 
L 526.352727 -234.463303 
L 533.657455 -234.463303 
L 540.962182 -234.463303 
L 548.266909 -234.463303 
L 555.571636 -234.463303 
L 562.876364 -234.463303 
L 570.181091 -234.463303 
L 577.485818 -234.463303 
L 584.790545 -234.463303 
L 592.095273 -234.463303 
L 599.4 -329.853482 
L 606.704727 -329.853482 
L 614.009455 -329.853482 
L 621.314182 -329.853482 
L 628.618909 -329.853482 
L 635.923636 -329.853482 
L 643.228364 -329.853482 
L 650.533091 -329.853482 
L 657.837818 -329.853482 
L 665.142545 -329.853482 
L 672.447273 -329.853482 
L 672.447273 -83.460034 
L 672.447273 -83.460034 
L 665.142545 -83.460034 
L 657.837818 -83.460034 
L 650.533091 -83.460034 
L 643.228364 -83.460034 
L 635.923636 -83.460034 
L 628.618909 -83.460034 
L 621.314182 -83.460034 
L 614.009455 -83.460034 
L 606.704727 -83.460034 
L 599.4 -83.460034 
L 592.095273 -83.460034 
L 584.790545 -83.460034 
L 577.485818 -83.460034 
L 570.181091 -83.460034 
L 562.876364 -83.460034 
L 555.571636 -83.460034 
L 548.266909 -83.460034 
L 540.962182 -83.460034 
L 533.657455 -83.460034 
L 526.352727 -83.460034 
L 519.048 -83.460034 
L 511.743273 -83.460034 
L 504.438545 -83.460034 
L 497.133818 -83.460034 
L 489.829091 -83.460034 
L 482.524364 -83.460034 
L 475.219636 -83.460034 
L 467.914909 -83.460034 
L 460.610182 -83.460034 
L 453.305455 -83.460034 
L 446.000727 -83.460034 
L 438.696 -83.460034 
L 431.391273 -83.460034 
L 424.086545 -83.460034 
L 416.781818 -83.460034 
L 409.477091 -83.460034 
L 402.172364 -83.460034 
L 394.867636 -83.460034 
L 387.562909 -83.460034 
L 380.258182 -83.460034 
L 372.953455 -83.460034 
L 365.648727 -83.460034 
L 358.344 -83.460034 
L 351.039273 -83.460034 
L 343.734545 -83.460034 
L 336.429818 -83.460034 
L 329.125091 -83.460034 
L 321.820364 -83.460034 
L 314.515636 -83.460034 
L 307.210909 -83.460034 
L 299.906182 -83.460034 
L 292.601455 -83.460034 
L 285.296727 -83.460034 
L 277.992 -83.460034 
L 270.687273 -83.460034 
L 263.382545 -83.460034 
L 256.077818 -83.460034 
L 248.773091 -83.460034 
L 241.468364 -83.460034 
L 234.163636 -83.460034 
L 226.858909 -83.460034 
L 219.554182 -83.460034 
L 212.249455 -83.460034 
L 204.944727 -83.460034 
L 197.64 -83.460034 
L 190.335273 -83.460034 
L 183.030545 -83.460034 
L 175.725818 -83.460034 
L 168.421091 -83.460034 
L 161.116364 -83.460034 
L 153.811636 -83.460034 
L 146.506909 -83.460034 
L 139.202182 -83.460034 
L 131.897455 -83.460034 
L 124.592727 -83.460034 
z
" style="stroke: #0000ff; stroke-opacity: 0.5"/>
    </defs>
    <g clip-path="url(#p9257b95122)">
     <use xlink:href="#m734d8942c1" x="0" y="404.64" style="fill: #0000ff; fill-opacity: 0.5; stroke: #0000ff; stroke-opacity: 0.5"/>
    </g>
   </g>
   <g id="matplotlib.axis_1">
    <g id="xtick_1">
     <g id="line2d_1">
      <path d="M 117.288 360.1296 
L 117.288 48.5568 
" clip-path="url(#p9257b95122)" style="fill: none; stroke: #b0b0b0; stroke-width: 0.8; stroke-linecap: square"/>
     </g>
     <g id="line2d_2">
      <defs>
       <path id="maab6a8b555" d="M 0 0 
L 0 3.5 
" style="stroke: #000000; stroke-width: 0.8"/>
      </defs>
      <g>
       <use xlink:href="#maab6a8b555" x="117.288" y="360.1296" style="stroke: #000000; stroke-width: 0.8"/>
      </g>
     </g>
     <g id="text_1">
      <!-- 5.0 -->
      <g transform="translate(109.336438 374.728038) scale(0.1 -0.1)">
       <defs>
        <path id="DejaVuSans-35" d="M 691 4666 
L 3169 4666 
L 3169 4134 
L 1269 4134 
L 1269 2991 
Q 1406 3038 1543 3061 
Q 1681 3084 1819 3084 
Q 2600 3084 3056 2656 
Q 3513 2228 3513 1497 
Q 3513 744 3044 326 
Q 2575 -91 1722 -91 
Q 1428 -91 1123 -41 
Q 819 9 494 109 
L 494 744 
Q 775 591 1075 516 
Q 1375 441 1709 441 
Q 2250 441 2565 725 
Q 2881 1009 2881 1497 
Q 2881 1984 2565 2268 
Q 2250 2553 1709 2553 
Q 1456 2553 1204 2497 
Q 953 2441 691 2322 
L 691 4666 
z
" transform="scale(0.015625)"/>
        <path id="DejaVuSans-2e" d="M 684 794 
L 1344 794 
L 1344 0 
L 684 0 
L 684 794 
z
" transform="scale(0.015625)"/>
        <path id="DejaVuSans-30" d="M 2034 4250 
Q 1547 4250 1301 3770 
Q 1056 3291 1056 2328 
Q 1056 1369 1301 889 
Q 1547 409 2034 409 
Q 2525 409 2770 889 
Q 3016 1369 3016 2328 
Q 3016 3291 2770 3770 
Q 2525 4250 2034 4250 
z
M 2034 4750 
Q 2819 4750 3233 4129 
Q 3647 3509 3647 2328 
Q 3647 1150 3233 529 
Q 2819 -91 2034 -91 
Q 1250 -91 836 529 
Q 422 1150 422 2328 
Q 422 3509 836 4129 
Q 1250 4750 2034 4750 
z
" transform="scale(0.015625)"/>
       </defs>
       <use xlink:href="#DejaVuSans-35"/>
       <use xlink:href="#DejaVuSans-2e" x="63.623047"/>
       <use xlink:href="#DejaVuSans-30" x="95.410156"/>
      </g>
     </g>
    </g>
    <g id="xtick_2">
     <g id="line2d_3">
      <path d="M 190.335273 360.1296 
L 190.335273 48.5568 
" clip-path="url(#p9257b95122)" style="fill: none; stroke: #b0b0b0; stroke-width: 0.8; stroke-linecap: square"/>
     </g>
     <g id="line2d_4">
      <g>
       <use xlink:href="#maab6a8b555" x="190.335273" y="360.1296" style="stroke: #000000; stroke-width: 0.8"/>
      </g>
     </g>
     <g id="text_2">
      <!-- 7.5 -->
      <g transform="translate(182.38371 374.728038) scale(0.1 -0.1)">
       <defs>
        <path id="DejaVuSans-37" d="M 525 4666 
L 3525 4666 
L 3525 4397 
L 1831 0 
L 1172 0 
L 2766 4134 
L 525 4134 
L 525 4666 
z
" transform="scale(0.015625)"/>
       </defs>
       <use xlink:href="#DejaVuSans-37"/>
       <use xlink:href="#DejaVuSans-2e" x="63.623047"/>
       <use xlink:href="#DejaVuSans-35" x="95.410156"/>
      </g>
     </g>
    </g>
    <g id="xtick_3">
     <g id="line2d_5">
      <path d="M 263.382545 360.1296 
L 263.382545 48.5568 
" clip-path="url(#p9257b95122)" style="fill: none; stroke: #b0b0b0; stroke-width: 0.8; stroke-linecap: square"/>
     </g>
     <g id="line2d_6">
      <g>
       <use xlink:href="#maab6a8b555" x="263.382545" y="360.1296" style="stroke: #000000; stroke-width: 0.8"/>
      </g>
     </g>
     <g id="text_3">
      <!-- 10.0 -->
      <g transform="translate(252.249733 374.728038) scale(0.1 -0.1)">
       <defs>
        <path id="DejaVuSans-31" d="M 794 531 
L 1825 531 
L 1825 4091 
L 703 3866 
L 703 4441 
L 1819 4666 
L 2450 4666 
L 2450 531 
L 3481 531 
L 3481 0 
L 794 0 
L 794 531 
z
" transform="scale(0.015625)"/>
       </defs>
       <use xlink:href="#DejaVuSans-31"/>
       <use xlink:href="#DejaVuSans-30" x="63.623047"/>
       <use xlink:href="#DejaVuSans-2e" x="127.246094"/>
       <use xlink:href="#DejaVuSans-30" x="159.033203"/>
      </g>
     </g>
    </g>
    <g id="xtick_4">
     <g id="line2d_7">
      <path d="M 336.429818 360.1296 
L 336.429818 48.5568 
" clip-path="url(#p9257b95122)" style="fill: none; stroke: #b0b0b0; stroke-width: 0.8; stroke-linecap: square"/>
     </g>
     <g id="line2d_8">
      <g>
       <use xlink:href="#maab6a8b555" x="336.429818" y="360.1296" style="stroke: #000000; stroke-width: 0.8"/>
      </g>
     </g>
     <g id="text_4">
      <!-- 12.5 -->
      <g transform="translate(325.297006 374.728038) scale(0.1 -0.1)">
       <defs>
        <path id="DejaVuSans-32" d="M 1228 531 
L 3431 531 
L 3431 0 
L 469 0 
L 469 531 
Q 828 903 1448 1529 
Q 2069 2156 2228 2338 
Q 2531 2678 2651 2914 
Q 2772 3150 2772 3378 
Q 2772 3750 2511 3984 
Q 2250 4219 1831 4219 
Q 1534 4219 1204 4116 
Q 875 4013 500 3803 
L 500 4441 
Q 881 4594 1212 4672 
Q 1544 4750 1819 4750 
Q 2544 4750 2975 4387 
Q 3406 4025 3406 3419 
Q 3406 3131 3298 2873 
Q 3191 2616 2906 2266 
Q 2828 2175 2409 1742 
Q 1991 1309 1228 531 
z
" transform="scale(0.015625)"/>
       </defs>
       <use xlink:href="#DejaVuSans-31"/>
       <use xlink:href="#DejaVuSans-32" x="63.623047"/>
       <use xlink:href="#DejaVuSans-2e" x="127.246094"/>
       <use xlink:href="#DejaVuSans-35" x="159.033203"/>
      </g>
     </g>
    </g>
    <g id="xtick_5">
     <g id="line2d_9">
      <path d="M 409.477091 360.1296 
L 409.477091 48.5568 
" clip-path="url(#p9257b95122)" style="fill: none; stroke: #b0b0b0; stroke-width: 0.8; stroke-linecap: square"/>
     </g>
     <g id="line2d_10">
      <g>
       <use xlink:href="#maab6a8b555" x="409.477091" y="360.1296" style="stroke: #000000; stroke-width: 0.8"/>
      </g>
     </g>
     <g id="text_5">
      <!-- 15.0 -->
      <g transform="translate(398.344278 374.728038) scale(0.1 -0.1)">
       <use xlink:href="#DejaVuSans-31"/>
       <use xlink:href="#DejaVuSans-35" x="63.623047"/>
       <use xlink:href="#DejaVuSans-2e" x="127.246094"/>
       <use xlink:href="#DejaVuSans-30" x="159.033203"/>
      </g>
     </g>
    </g>
    <g id="xtick_6">
     <g id="line2d_11">
      <path d="M 482.524364 360.1296 
L 482.524364 48.5568 
" clip-path="url(#p9257b95122)" style="fill: none; stroke: #b0b0b0; stroke-width: 0.8; stroke-linecap: square"/>
     </g>
     <g id="line2d_12">
      <g>
       <use xlink:href="#maab6a8b555" x="482.524364" y="360.1296" style="stroke: #000000; stroke-width: 0.8"/>
      </g>
     </g>
     <g id="text_6">
      <!-- 17.5 -->
      <g transform="translate(471.391551 374.728038) scale(0.1 -0.1)">
       <use xlink:href="#DejaVuSans-31"/>
       <use xlink:href="#DejaVuSans-37" x="63.623047"/>
       <use xlink:href="#DejaVuSans-2e" x="127.246094"/>
       <use xlink:href="#DejaVuSans-35" x="159.033203"/>
      </g>
     </g>
    </g>
    <g id="xtick_7">
     <g id="line2d_13">
      <path d="M 555.571636 360.1296 
L 555.571636 48.5568 
" clip-path="url(#p9257b95122)" style="fill: none; stroke: #b0b0b0; stroke-width: 0.8; stroke-linecap: square"/>
     </g>
     <g id="line2d_14">
      <g>
       <use xlink:href="#maab6a8b555" x="555.571636" y="360.1296" style="stroke: #000000; stroke-width: 0.8"/>
      </g>
     </g>
     <g id="text_7">
      <!-- 20.0 -->
      <g transform="translate(544.438824 374.728038) scale(0.1 -0.1)">
       <use xlink:href="#DejaVuSans-32"/>
       <use xlink:href="#DejaVuSans-30" x="63.623047"/>
       <use xlink:href="#DejaVuSans-2e" x="127.246094"/>
       <use xlink:href="#DejaVuSans-30" x="159.033203"/>
      </g>
     </g>
    </g>
    <g id="xtick_8">
     <g id="line2d_15">
      <path d="M 628.618909 360.1296 
L 628.618909 48.5568 
" clip-path="url(#p9257b95122)" style="fill: none; stroke: #b0b0b0; stroke-width: 0.8; stroke-linecap: square"/>
     </g>
     <g id="line2d_16">
      <g>
       <use xlink:href="#maab6a8b555" x="628.618909" y="360.1296" style="stroke: #000000; stroke-width: 0.8"/>
      </g>
     </g>
     <g id="text_8">
      <!-- 22.5 -->
      <g transform="translate(617.486097 374.728038) scale(0.1 -0.1)">
       <use xlink:href="#DejaVuSans-32"/>
       <use xlink:href="#DejaVuSans-32" x="63.623047"/>
       <use xlink:href="#DejaVuSans-2e" x="127.246094"/>
       <use xlink:href="#DejaVuSans-35" x="159.033203"/>
      </g>
     </g>
    </g>
    <g id="text_9">
     <!-- Months -->
     <g transform="translate(380.244219 388.406162) scale(0.1 -0.1)">
      <defs>
       <path id="DejaVuSans-4d" d="M 628 4666 
L 1569 4666 
L 2759 1491 
L 3956 4666 
L 4897 4666 
L 4897 0 
L 4281 0 
L 4281 4097 
L 3078 897 
L 2444 897 
L 1241 4097 
L 1241 0 
L 628 0 
L 628 4666 
z
" transform="scale(0.015625)"/>
       <path id="DejaVuSans-6f" d="M 1959 3097 
Q 1497 3097 1228 2736 
Q 959 2375 959 1747 
Q 959 1119 1226 758 
Q 1494 397 1959 397 
Q 2419 397 2687 759 
Q 2956 1122 2956 1747 
Q 2956 2369 2687 2733 
Q 2419 3097 1959 3097 
z
M 1959 3584 
Q 2709 3584 3137 3096 
Q 3566 2609 3566 1747 
Q 3566 888 3137 398 
Q 2709 -91 1959 -91 
Q 1206 -91 779 398 
Q 353 888 353 1747 
Q 353 2609 779 3096 
Q 1206 3584 1959 3584 
z
" transform="scale(0.015625)"/>
       <path id="DejaVuSans-6e" d="M 3513 2113 
L 3513 0 
L 2938 0 
L 2938 2094 
Q 2938 2591 2744 2837 
Q 2550 3084 2163 3084 
Q 1697 3084 1428 2787 
Q 1159 2491 1159 1978 
L 1159 0 
L 581 0 
L 581 3500 
L 1159 3500 
L 1159 2956 
Q 1366 3272 1645 3428 
Q 1925 3584 2291 3584 
Q 2894 3584 3203 3211 
Q 3513 2838 3513 2113 
z
" transform="scale(0.015625)"/>
       <path id="DejaVuSans-74" d="M 1172 4494 
L 1172 3500 
L 2356 3500 
L 2356 3053 
L 1172 3053 
L 1172 1153 
Q 1172 725 1289 603 
Q 1406 481 1766 481 
L 2356 481 
L 2356 0 
L 1766 0 
Q 1100 0 847 248 
Q 594 497 594 1153 
L 594 3053 
L 172 3053 
L 172 3500 
L 594 3500 
L 594 4494 
L 1172 4494 
z
" transform="scale(0.015625)"/>
       <path id="DejaVuSans-68" d="M 3513 2113 
L 3513 0 
L 2938 0 
L 2938 2094 
Q 2938 2591 2744 2837 
Q 2550 3084 2163 3084 
Q 1697 3084 1428 2787 
Q 1159 2491 1159 1978 
L 1159 0 
L 581 0 
L 581 4863 
L 1159 4863 
L 1159 2956 
Q 1366 3272 1645 3428 
Q 1925 3584 2291 3584 
Q 2894 3584 3203 3211 
Q 3513 2838 3513 2113 
z
" transform="scale(0.015625)"/>
       <path id="DejaVuSans-73" d="M 2834 3397 
L 2834 2853 
Q 2591 2978 2328 3040 
Q 2066 3103 1784 3103 
Q 1356 3103 1142 2972 
Q 928 2841 928 2578 
Q 928 2378 1081 2264 
Q 1234 2150 1697 2047 
L 1894 2003 
Q 2506 1872 2764 1633 
Q 3022 1394 3022 966 
Q 3022 478 2636 193 
Q 2250 -91 1575 -91 
Q 1294 -91 989 -36 
Q 684 19 347 128 
L 347 722 
Q 666 556 975 473 
Q 1284 391 1588 391 
Q 1994 391 2212 530 
Q 2431 669 2431 922 
Q 2431 1156 2273 1281 
Q 2116 1406 1581 1522 
L 1381 1569 
Q 847 1681 609 1914 
Q 372 2147 372 2553 
Q 372 3047 722 3315 
Q 1072 3584 1716 3584 
Q 2034 3584 2315 3537 
Q 2597 3491 2834 3397 
z
" transform="scale(0.015625)"/>
      </defs>
      <use xlink:href="#DejaVuSans-4d"/>
      <use xlink:href="#DejaVuSans-6f" x="86.279297"/>
      <use xlink:href="#DejaVuSans-6e" x="147.460938"/>
      <use xlink:href="#DejaVuSans-74" x="210.839844"/>
      <use xlink:href="#DejaVuSans-68" x="250.048828"/>
      <use xlink:href="#DejaVuSans-73" x="313.427734"/>
     </g>
    </g>
   </g>
   <g id="matplotlib.axis_2">
    <g id="ytick_1">
     <g id="line2d_17">
      <path d="M 97.2 321.179966 
L 699.84 321.179966 
" clip-path="url(#p9257b95122)" style="fill: none; stroke: #b0b0b0; stroke-width: 0.8; stroke-linecap: square"/>
     </g>
     <g id="line2d_18">
      <defs>
       <path id="mc6f88c961f" d="M 0 0 
L -3.5 0 
" style="stroke: #000000; stroke-width: 0.8"/>
      </defs>
      <g>
       <use xlink:href="#mc6f88c961f" x="97.2" y="321.179966" style="stroke: #000000; stroke-width: 0.8"/>
      </g>
     </g>
     <g id="text_10">
      <!-- $\mathdefault{10^{0}}$ -->
      <g transform="translate(72.6 324.979185) scale(0.1 -0.1)">
       <use xlink:href="#DejaVuSans-31" transform="translate(0 0.765625)"/>
       <use xlink:href="#DejaVuSans-30" transform="translate(63.623047 0.765625)"/>
       <use xlink:href="#DejaVuSans-30" transform="translate(128.203125 39.046875) scale(0.7)"/>
      </g>
     </g>
    </g>
    <g id="ytick_2">
     <g id="line2d_19">
      <defs>
       <path id="m5285d497f5" d="M 0 0 
L -2 0 
" style="stroke: #000000; stroke-width: 0.6"/>
      </defs>
      <g>
       <use xlink:href="#m5285d497f5" x="97.2" y="345.9672" style="stroke: #000000; stroke-width: 0.6"/>
      </g>
     </g>
    </g>
    <g id="ytick_3">
     <g id="line2d_20">
      <g>
       <use xlink:href="#m5285d497f5" x="97.2" y="158.109379" style="stroke: #000000; stroke-width: 0.6"/>
      </g>
     </g>
     <g id="text_11">
      <!-- $\mathdefault{2\times10^{0}}$ -->
      <g transform="translate(55.6 161.908597) scale(0.1 -0.1)">
       <defs>
        <path id="DejaVuSans-d7" d="M 4488 3438 
L 3059 2003 
L 4488 575 
L 4116 197 
L 2681 1631 
L 1247 197 
L 878 575 
L 2303 2003 
L 878 3438 
L 1247 3816 
L 2681 2381 
L 4116 3816 
L 4488 3438 
z
" transform="scale(0.015625)"/>
       </defs>
       <use xlink:href="#DejaVuSans-32" transform="translate(0 0.765625)"/>
       <use xlink:href="#DejaVuSans-d7" transform="translate(83.105469 0.765625)"/>
       <use xlink:href="#DejaVuSans-31" transform="translate(186.376953 0.765625)"/>
       <use xlink:href="#DejaVuSans-30" transform="translate(250 0.765625)"/>
       <use xlink:href="#DejaVuSans-30" transform="translate(314.580078 39.046875) scale(0.7)"/>
      </g>
     </g>
    </g>
    <g id="ytick_4">
     <g id="line2d_21">
      <g>
       <use xlink:href="#m5285d497f5" x="97.2" y="62.7192" style="stroke: #000000; stroke-width: 0.6"/>
      </g>
     </g>
     <g id="text_12">
      <!-- $\mathdefault{3\times10^{0}}$ -->
      <g transform="translate(55.6 66.518419) scale(0.1 -0.1)">
       <defs>
        <path id="DejaVuSans-33" d="M 2597 2516 
Q 3050 2419 3304 2112 
Q 3559 1806 3559 1356 
Q 3559 666 3084 287 
Q 2609 -91 1734 -91 
Q 1441 -91 1130 -33 
Q 819 25 488 141 
L 488 750 
Q 750 597 1062 519 
Q 1375 441 1716 441 
Q 2309 441 2620 675 
Q 2931 909 2931 1356 
Q 2931 1769 2642 2001 
Q 2353 2234 1838 2234 
L 1294 2234 
L 1294 2753 
L 1863 2753 
Q 2328 2753 2575 2939 
Q 2822 3125 2822 3475 
Q 2822 3834 2567 4026 
Q 2313 4219 1838 4219 
Q 1578 4219 1281 4162 
Q 984 4106 628 3988 
L 628 4550 
Q 988 4650 1302 4700 
Q 1616 4750 1894 4750 
Q 2613 4750 3031 4423 
Q 3450 4097 3450 3541 
Q 3450 3153 3228 2886 
Q 3006 2619 2597 2516 
z
" transform="scale(0.015625)"/>
       </defs>
       <use xlink:href="#DejaVuSans-33" transform="translate(0 0.765625)"/>
       <use xlink:href="#DejaVuSans-d7" transform="translate(83.105469 0.765625)"/>
       <use xlink:href="#DejaVuSans-31" transform="translate(186.376953 0.765625)"/>
       <use xlink:href="#DejaVuSans-30" transform="translate(250 0.765625)"/>
       <use xlink:href="#DejaVuSans-30" transform="translate(314.580078 39.046875) scale(0.7)"/>
      </g>
     </g>
    </g>
    <g id="text_13">
     <!-- Multiple -->
     <g transform="translate(49.520312 224.204138) rotate(-90) scale(0.1 -0.1)">
      <defs>
       <path id="DejaVuSans-75" d="M 544 1381 
L 544 3500 
L 1119 3500 
L 1119 1403 
Q 1119 906 1312 657 
Q 1506 409 1894 409 
Q 2359 409 2629 706 
Q 2900 1003 2900 1516 
L 2900 3500 
L 3475 3500 
L 3475 0 
L 2900 0 
L 2900 538 
Q 2691 219 2414 64 
Q 2138 -91 1772 -91 
Q 1169 -91 856 284 
Q 544 659 544 1381 
z
M 1991 3584 
L 1991 3584 
z
" transform="scale(0.015625)"/>
       <path id="DejaVuSans-6c" d="M 603 4863 
L 1178 4863 
L 1178 0 
L 603 0 
L 603 4863 
z
" transform="scale(0.015625)"/>
       <path id="DejaVuSans-69" d="M 603 3500 
L 1178 3500 
L 1178 0 
L 603 0 
L 603 3500 
z
M 603 4863 
L 1178 4863 
L 1178 4134 
L 603 4134 
L 603 4863 
z
" transform="scale(0.015625)"/>
       <path id="DejaVuSans-70" d="M 1159 525 
L 1159 -1331 
L 581 -1331 
L 581 3500 
L 1159 3500 
L 1159 2969 
Q 1341 3281 1617 3432 
Q 1894 3584 2278 3584 
Q 2916 3584 3314 3078 
Q 3713 2572 3713 1747 
Q 3713 922 3314 415 
Q 2916 -91 2278 -91 
Q 1894 -91 1617 61 
Q 1341 213 1159 525 
z
M 3116 1747 
Q 3116 2381 2855 2742 
Q 2594 3103 2138 3103 
Q 1681 3103 1420 2742 
Q 1159 2381 1159 1747 
Q 1159 1113 1420 752 
Q 1681 391 2138 391 
Q 2594 391 2855 752 
Q 3116 1113 3116 1747 
z
" transform="scale(0.015625)"/>
       <path id="DejaVuSans-65" d="M 3597 1894 
L 3597 1613 
L 953 1613 
Q 991 1019 1311 708 
Q 1631 397 2203 397 
Q 2534 397 2845 478 
Q 3156 559 3463 722 
L 3463 178 
Q 3153 47 2828 -22 
Q 2503 -91 2169 -91 
Q 1331 -91 842 396 
Q 353 884 353 1716 
Q 353 2575 817 3079 
Q 1281 3584 2069 3584 
Q 2775 3584 3186 3129 
Q 3597 2675 3597 1894 
z
M 3022 2063 
Q 3016 2534 2758 2815 
Q 2500 3097 2075 3097 
Q 1594 3097 1305 2825 
Q 1016 2553 972 2059 
L 3022 2063 
z
" transform="scale(0.015625)"/>
      </defs>
      <use xlink:href="#DejaVuSans-4d"/>
      <use xlink:href="#DejaVuSans-75" x="86.279297"/>
      <use xlink:href="#DejaVuSans-6c" x="149.658203"/>
      <use xlink:href="#DejaVuSans-74" x="177.441406"/>
      <use xlink:href="#DejaVuSans-69" x="216.650391"/>
      <use xlink:href="#DejaVuSans-70" x="244.433594"/>
      <use xlink:href="#DejaVuSans-6c" x="307.910156"/>
      <use xlink:href="#DejaVuSans-65" x="335.693359"/>
     </g>
    </g>
   </g>
   <g id="line2d_22">
    <path d="M 124.592727 321.179966 
L 131.897455 321.179966 
L 139.202182 321.179966 
L 146.506909 321.179966 
L 153.811636 321.179966 
L 161.116364 321.179966 
L 168.421091 321.179966 
L 175.725818 321.179966 
L 183.030545 321.179966 
L 190.335273 321.179966 
L 197.64 321.179966 
L 204.944727 321.179966 
L 212.249455 321.179966 
L 219.554182 321.179966 
L 226.858909 321.179966 
L 234.163636 321.179966 
L 241.468364 321.179966 
L 248.773091 158.109379 
L 256.077818 158.109379 
L 263.382545 158.109379 
L 270.687273 158.109379 
L 277.992 158.109379 
L 285.296727 158.109379 
L 292.601455 158.109379 
L 299.906182 158.109379 
L 307.210909 158.109379 
L 314.515636 158.109379 
L 321.820364 158.109379 
L 329.125091 158.109379 
L 336.429818 158.109379 
L 343.734545 158.109379 
L 351.039273 158.109379 
L 358.344 158.109379 
L 365.648727 158.109379 
L 372.953455 158.109379 
L 380.258182 158.109379 
L 387.562909 158.109379 
L 394.867636 158.109379 
L 402.172364 158.109379 
L 409.477091 158.109379 
L 416.781818 158.109379 
L 424.086545 158.109379 
L 431.391273 158.109379 
L 438.696 158.109379 
L 446.000727 158.109379 
L 453.305455 158.109379 
L 460.610182 158.109379 
L 467.914909 158.109379 
L 475.219636 158.109379 
L 482.524364 158.109379 
L 489.829091 158.109379 
L 497.133818 158.109379 
L 504.438545 158.109379 
L 511.743273 158.109379 
L 519.048 158.109379 
L 526.352727 158.109379 
L 533.657455 158.109379 
L 540.962182 158.109379 
L 548.266909 158.109379 
L 555.571636 158.109379 
L 562.876364 158.109379 
L 570.181091 158.109379 
L 577.485818 158.109379 
L 584.790545 158.109379 
L 592.095273 158.109379 
L 599.4 62.7192 
L 606.704727 62.7192 
L 614.009455 62.7192 
L 621.314182 62.7192 
L 628.618909 62.7192 
L 635.923636 62.7192 
L 643.228364 62.7192 
L 650.533091 62.7192 
L 657.837818 62.7192 
L 665.142545 62.7192 
L 672.447273 62.7192 
" clip-path="url(#p9257b95122)" style="fill: none; stroke: #000000; stroke-width: 1.5; stroke-linecap: square"/>
   </g>
   <g id="line2d_23">
    <path d="M 124.592727 345.9672 
L 131.897455 345.9672 
L 139.202182 345.9672 
L 146.506909 345.9672 
L 153.811636 345.9672 
L 161.116364 345.9672 
L 168.421091 345.9672 
L 175.725818 345.9672 
L 183.030545 345.9672 
L 190.335273 345.9672 
L 197.64 345.9672 
L 204.944727 345.9672 
L 212.249455 345.9672 
L 219.554182 345.9672 
L 226.858909 345.9672 
L 234.163636 345.9672 
L 241.468364 345.9672 
L 248.773091 176.450699 
L 256.077818 176.450699 
L 263.382545 176.450699 
L 270.687273 176.450699 
L 277.992 176.450699 
L 285.296727 176.450699 
L 292.601455 176.450699 
L 299.906182 176.450699 
L 307.210909 176.450699 
L 314.515636 176.450699 
L 321.820364 176.450699 
L 329.125091 176.450699 
L 336.429818 176.450699 
L 343.734545 170.176697 
L 351.039273 170.176697 
L 358.344 170.176697 
L 365.648727 170.176697 
L 372.953455 170.176697 
L 380.258182 170.176697 
L 387.562909 170.176697 
L 394.867636 170.176697 
L 402.172364 170.176697 
L 409.477091 170.176697 
L 416.781818 170.176697 
L 424.086545 170.176697 
L 431.391273 170.176697 
L 438.696 170.176697 
L 446.000727 170.176697 
L 453.305455 170.176697 
L 460.610182 170.176697 
L 467.914909 170.176697 
L 475.219636 170.176697 
L 482.524364 170.176697 
L 489.829091 170.176697 
L 497.133818 170.176697 
L 504.438545 170.176697 
L 511.743273 170.176697 
L 519.048 170.176697 
L 526.352727 170.176697 
L 533.657455 170.176697 
L 540.962182 170.176697 
L 548.266909 170.176697 
L 555.571636 170.176697 
L 562.876364 170.176697 
L 570.181091 170.176697 
L 577.485818 170.176697 
L 584.790545 170.176697 
L 592.095273 170.176697 
L 599.4 74.786518 
L 606.704727 74.786518 
L 614.009455 74.786518 
L 621.314182 74.786518 
L 628.618909 74.786518 
L 635.923636 74.786518 
L 643.228364 74.786518 
L 650.533091 74.786518 
L 657.837818 74.786518 
L 665.142545 74.786518 
L 672.447273 74.786518 
" clip-path="url(#p9257b95122)" style="fill: none; stroke-dasharray: 5.55,2.4; stroke-dashoffset: 0; stroke: #000000; stroke-width: 1.5"/>
   </g>
   <g id="patch_3">
    <path d="M 97.2 360.1296 
L 97.2 48.5568 
" style="fill: none; stroke: #000000; stroke-width: 0.8; stroke-linejoin: miter; stroke-linecap: square"/>
   </g>
   <g id="patch_4">
    <path d="M 699.84 360.1296 
L 699.84 48.5568 
" style="fill: none; stroke: #000000; stroke-width: 0.8; stroke-linejoin: miter; stroke-linecap: square"/>
   </g>
   <g id="patch_5">
    <path d="M 97.2 360.1296 
L 699.84 360.1296 
" style="fill: none; stroke: #000000; stroke-width: 0.8; stroke-linejoin: miter; stroke-linecap: square"/>
   </g>
   <g id="patch_6">
    <path d="M 97.2 48.5568 
L 699.84 48.5568 
" style="fill: none; stroke: #000000; stroke-width: 0.8; stroke-linejoin: miter; stroke-linecap: square"/>
   </g>
   <g id="text_14">
    <!-- APR Bonus Reparametrization -->
    <g transform="translate(296.766562 42.5568) scale(0.12 -0.12)">
     <defs>
      <path id="DejaVuSans-Bold-41" d="M 3419 850 
L 1538 850 
L 1241 0 
L 31 0 
L 1759 4666 
L 3194 4666 
L 4922 0 
L 3713 0 
L 3419 850 
z
M 1838 1716 
L 3116 1716 
L 2478 3572 
L 1838 1716 
z
" transform="scale(0.015625)"/>
      <path id="DejaVuSans-Bold-50" d="M 588 4666 
L 2584 4666 
Q 3475 4666 3951 4270 
Q 4428 3875 4428 3144 
Q 4428 2409 3951 2014 
Q 3475 1619 2584 1619 
L 1791 1619 
L 1791 0 
L 588 0 
L 588 4666 
z
M 1791 3794 
L 1791 2491 
L 2456 2491 
Q 2806 2491 2997 2661 
Q 3188 2831 3188 3144 
Q 3188 3456 2997 3625 
Q 2806 3794 2456 3794 
L 1791 3794 
z
" transform="scale(0.015625)"/>
      <path id="DejaVuSans-Bold-52" d="M 2297 2597 
Q 2675 2597 2839 2737 
Q 3003 2878 3003 3200 
Q 3003 3519 2839 3656 
Q 2675 3794 2297 3794 
L 1791 3794 
L 1791 2597 
L 2297 2597 
z
M 1791 1766 
L 1791 0 
L 588 0 
L 588 4666 
L 2425 4666 
Q 3347 4666 3776 4356 
Q 4206 4047 4206 3378 
Q 4206 2916 3982 2619 
Q 3759 2322 3309 2181 
Q 3556 2125 3751 1926 
Q 3947 1728 4147 1325 
L 4800 0 
L 3519 0 
L 2950 1159 
Q 2778 1509 2601 1637 
Q 2425 1766 2131 1766 
L 1791 1766 
z
" transform="scale(0.015625)"/>
      <path id="DejaVuSans-Bold-20" transform="scale(0.015625)"/>
      <path id="DejaVuSans-Bold-42" d="M 2456 2859 
Q 2741 2859 2887 2984 
Q 3034 3109 3034 3353 
Q 3034 3594 2887 3720 
Q 2741 3847 2456 3847 
L 1791 3847 
L 1791 2859 
L 2456 2859 
z
M 2497 819 
Q 2859 819 3042 972 
Q 3225 1125 3225 1434 
Q 3225 1738 3044 1889 
Q 2863 2041 2497 2041 
L 1791 2041 
L 1791 819 
L 2497 819 
z
M 3616 2497 
Q 4003 2384 4215 2081 
Q 4428 1778 4428 1338 
Q 4428 663 3972 331 
Q 3516 0 2584 0 
L 588 0 
L 588 4666 
L 2394 4666 
Q 3366 4666 3802 4372 
Q 4238 4078 4238 3431 
Q 4238 3091 4078 2852 
Q 3919 2613 3616 2497 
z
" transform="scale(0.015625)"/>
      <path id="DejaVuSans-Bold-6f" d="M 2203 2784 
Q 1831 2784 1636 2517 
Q 1441 2250 1441 1747 
Q 1441 1244 1636 976 
Q 1831 709 2203 709 
Q 2569 709 2762 976 
Q 2956 1244 2956 1747 
Q 2956 2250 2762 2517 
Q 2569 2784 2203 2784 
z
M 2203 3584 
Q 3106 3584 3614 3096 
Q 4122 2609 4122 1747 
Q 4122 884 3614 396 
Q 3106 -91 2203 -91 
Q 1297 -91 786 396 
Q 275 884 275 1747 
Q 275 2609 786 3096 
Q 1297 3584 2203 3584 
z
" transform="scale(0.015625)"/>
      <path id="DejaVuSans-Bold-6e" d="M 4056 2131 
L 4056 0 
L 2931 0 
L 2931 347 
L 2931 1631 
Q 2931 2084 2911 2256 
Q 2891 2428 2841 2509 
Q 2775 2619 2662 2680 
Q 2550 2741 2406 2741 
Q 2056 2741 1856 2470 
Q 1656 2200 1656 1722 
L 1656 0 
L 538 0 
L 538 3500 
L 1656 3500 
L 1656 2988 
Q 1909 3294 2193 3439 
Q 2478 3584 2822 3584 
Q 3428 3584 3742 3212 
Q 4056 2841 4056 2131 
z
" transform="scale(0.015625)"/>
      <path id="DejaVuSans-Bold-75" d="M 500 1363 
L 500 3500 
L 1625 3500 
L 1625 3150 
Q 1625 2866 1622 2436 
Q 1619 2006 1619 1863 
Q 1619 1441 1641 1255 
Q 1663 1069 1716 984 
Q 1784 875 1895 815 
Q 2006 756 2150 756 
Q 2500 756 2700 1025 
Q 2900 1294 2900 1772 
L 2900 3500 
L 4019 3500 
L 4019 0 
L 2900 0 
L 2900 506 
Q 2647 200 2364 54 
Q 2081 -91 1741 -91 
Q 1134 -91 817 281 
Q 500 653 500 1363 
z
" transform="scale(0.015625)"/>
      <path id="DejaVuSans-Bold-73" d="M 3272 3391 
L 3272 2541 
Q 2913 2691 2578 2766 
Q 2244 2841 1947 2841 
Q 1628 2841 1473 2761 
Q 1319 2681 1319 2516 
Q 1319 2381 1436 2309 
Q 1553 2238 1856 2203 
L 2053 2175 
Q 2913 2066 3209 1816 
Q 3506 1566 3506 1031 
Q 3506 472 3093 190 
Q 2681 -91 1863 -91 
Q 1516 -91 1145 -36 
Q 775 19 384 128 
L 384 978 
Q 719 816 1070 734 
Q 1422 653 1784 653 
Q 2113 653 2278 743 
Q 2444 834 2444 1013 
Q 2444 1163 2330 1236 
Q 2216 1309 1875 1350 
L 1678 1375 
Q 931 1469 631 1722 
Q 331 1975 331 2491 
Q 331 3047 712 3315 
Q 1094 3584 1881 3584 
Q 2191 3584 2531 3537 
Q 2872 3491 3272 3391 
z
" transform="scale(0.015625)"/>
      <path id="DejaVuSans-Bold-65" d="M 4031 1759 
L 4031 1441 
L 1416 1441 
Q 1456 1047 1700 850 
Q 1944 653 2381 653 
Q 2734 653 3104 758 
Q 3475 863 3866 1075 
L 3866 213 
Q 3469 63 3072 -14 
Q 2675 -91 2278 -91 
Q 1328 -91 801 392 
Q 275 875 275 1747 
Q 275 2603 792 3093 
Q 1309 3584 2216 3584 
Q 3041 3584 3536 3087 
Q 4031 2591 4031 1759 
z
M 2881 2131 
Q 2881 2450 2695 2645 
Q 2509 2841 2209 2841 
Q 1884 2841 1681 2658 
Q 1478 2475 1428 2131 
L 2881 2131 
z
" transform="scale(0.015625)"/>
      <path id="DejaVuSans-Bold-70" d="M 1656 506 
L 1656 -1331 
L 538 -1331 
L 538 3500 
L 1656 3500 
L 1656 2988 
Q 1888 3294 2169 3439 
Q 2450 3584 2816 3584 
Q 3463 3584 3878 3070 
Q 4294 2556 4294 1747 
Q 4294 938 3878 423 
Q 3463 -91 2816 -91 
Q 2450 -91 2169 54 
Q 1888 200 1656 506 
z
M 2400 2772 
Q 2041 2772 1848 2508 
Q 1656 2244 1656 1747 
Q 1656 1250 1848 986 
Q 2041 722 2400 722 
Q 2759 722 2948 984 
Q 3138 1247 3138 1747 
Q 3138 2247 2948 2509 
Q 2759 2772 2400 2772 
z
" transform="scale(0.015625)"/>
      <path id="DejaVuSans-Bold-61" d="M 2106 1575 
Q 1756 1575 1579 1456 
Q 1403 1338 1403 1106 
Q 1403 894 1545 773 
Q 1688 653 1941 653 
Q 2256 653 2472 879 
Q 2688 1106 2688 1447 
L 2688 1575 
L 2106 1575 
z
M 3816 1997 
L 3816 0 
L 2688 0 
L 2688 519 
Q 2463 200 2181 54 
Q 1900 -91 1497 -91 
Q 953 -91 614 226 
Q 275 544 275 1050 
Q 275 1666 698 1953 
Q 1122 2241 2028 2241 
L 2688 2241 
L 2688 2328 
Q 2688 2594 2478 2717 
Q 2269 2841 1825 2841 
Q 1466 2841 1156 2769 
Q 847 2697 581 2553 
L 581 3406 
Q 941 3494 1303 3539 
Q 1666 3584 2028 3584 
Q 2975 3584 3395 3211 
Q 3816 2838 3816 1997 
z
" transform="scale(0.015625)"/>
      <path id="DejaVuSans-Bold-72" d="M 3138 2547 
Q 2991 2616 2845 2648 
Q 2700 2681 2553 2681 
Q 2122 2681 1889 2404 
Q 1656 2128 1656 1613 
L 1656 0 
L 538 0 
L 538 3500 
L 1656 3500 
L 1656 2925 
Q 1872 3269 2151 3426 
Q 2431 3584 2822 3584 
Q 2878 3584 2943 3579 
Q 3009 3575 3134 3559 
L 3138 2547 
z
" transform="scale(0.015625)"/>
      <path id="DejaVuSans-Bold-6d" d="M 3781 2919 
Q 3994 3244 4286 3414 
Q 4578 3584 4928 3584 
Q 5531 3584 5847 3212 
Q 6163 2841 6163 2131 
L 6163 0 
L 5038 0 
L 5038 1825 
Q 5041 1866 5042 1909 
Q 5044 1953 5044 2034 
Q 5044 2406 4934 2573 
Q 4825 2741 4581 2741 
Q 4263 2741 4089 2478 
Q 3916 2216 3909 1719 
L 3909 0 
L 2784 0 
L 2784 1825 
Q 2784 2406 2684 2573 
Q 2584 2741 2328 2741 
Q 2006 2741 1831 2477 
Q 1656 2213 1656 1722 
L 1656 0 
L 531 0 
L 531 3500 
L 1656 3500 
L 1656 2988 
Q 1863 3284 2130 3434 
Q 2397 3584 2719 3584 
Q 3081 3584 3359 3409 
Q 3638 3234 3781 2919 
z
" transform="scale(0.015625)"/>
      <path id="DejaVuSans-Bold-74" d="M 1759 4494 
L 1759 3500 
L 2913 3500 
L 2913 2700 
L 1759 2700 
L 1759 1216 
Q 1759 972 1856 886 
Q 1953 800 2241 800 
L 2816 800 
L 2816 0 
L 1856 0 
Q 1194 0 917 276 
Q 641 553 641 1216 
L 641 2700 
L 84 2700 
L 84 3500 
L 641 3500 
L 641 4494 
L 1759 4494 
z
" transform="scale(0.015625)"/>
      <path id="DejaVuSans-Bold-69" d="M 538 3500 
L 1656 3500 
L 1656 0 
L 538 0 
L 538 3500 
z
M 538 4863 
L 1656 4863 
L 1656 3950 
L 538 3950 
L 538 4863 
z
" transform="scale(0.015625)"/>
      <path id="DejaVuSans-Bold-7a" d="M 366 3500 
L 3419 3500 
L 3419 2719 
L 1575 800 
L 3419 800 
L 3419 0 
L 288 0 
L 288 781 
L 2131 2700 
L 366 2700 
L 366 3500 
z
" transform="scale(0.015625)"/>
     </defs>
     <use xlink:href="#DejaVuSans-Bold-41"/>
     <use xlink:href="#DejaVuSans-Bold-50" x="77.392578"/>
     <use xlink:href="#DejaVuSans-Bold-52" x="150.683594"/>
     <use xlink:href="#DejaVuSans-Bold-20" x="227.685547"/>
     <use xlink:href="#DejaVuSans-Bold-42" x="262.5"/>
     <use xlink:href="#DejaVuSans-Bold-6f" x="338.720703"/>
     <use xlink:href="#DejaVuSans-Bold-6e" x="407.421875"/>
     <use xlink:href="#DejaVuSans-Bold-75" x="478.613281"/>
     <use xlink:href="#DejaVuSans-Bold-73" x="549.804688"/>
     <use xlink:href="#DejaVuSans-Bold-20" x="609.326172"/>
     <use xlink:href="#DejaVuSans-Bold-52" x="644.140625"/>
     <use xlink:href="#DejaVuSans-Bold-65" x="721.142578"/>
     <use xlink:href="#DejaVuSans-Bold-70" x="788.964844"/>
     <use xlink:href="#DejaVuSans-Bold-61" x="860.546875"/>
     <use xlink:href="#DejaVuSans-Bold-72" x="928.027344"/>
     <use xlink:href="#DejaVuSans-Bold-61" x="977.34375"/>
     <use xlink:href="#DejaVuSans-Bold-6d" x="1044.824219"/>
     <use xlink:href="#DejaVuSans-Bold-65" x="1149.023438"/>
     <use xlink:href="#DejaVuSans-Bold-74" x="1216.845703"/>
     <use xlink:href="#DejaVuSans-Bold-72" x="1264.648438"/>
     <use xlink:href="#DejaVuSans-Bold-69" x="1313.964844"/>
     <use xlink:href="#DejaVuSans-Bold-7a" x="1348.242188"/>
     <use xlink:href="#DejaVuSans-Bold-61" x="1406.445312"/>
     <use xlink:href="#DejaVuSans-Bold-74" x="1473.925781"/>
     <use xlink:href="#DejaVuSans-Bold-69" x="1521.728516"/>
     <use xlink:href="#DejaVuSans-Bold-6f" x="1556.005859"/>
     <use xlink:href="#DejaVuSans-Bold-6e" x="1624.707031"/>
    </g>
   </g>
   <g id="legend_1">
    <g id="patch_7">
     <path d="M 104.2 85.91305 
L 249.871875 85.91305 
Q 251.871875 85.91305 251.871875 83.91305 
L 251.871875 55.5568 
Q 251.871875 53.5568 249.871875 53.5568 
L 104.2 53.5568 
Q 102.2 53.5568 102.2 55.5568 
L 102.2 83.91305 
Q 102.2 85.91305 104.2 85.91305 
z
" style="fill: #ffffff; opacity: 0.8; stroke: #cccccc; stroke-linejoin: miter"/>
    </g>
    <g id="line2d_24">
     <path d="M 106.2 61.655237 
L 116.2 61.655237 
L 126.2 61.655237 
" style="fill: none; stroke: #000000; stroke-width: 1.5; stroke-linecap: square"/>
    </g>
    <g id="text_15">
     <!-- APR Bonus target (log) -->
     <g transform="translate(134.2 65.155237) scale(0.1 -0.1)">
      <defs>
       <path id="DejaVuSans-41" d="M 2188 4044 
L 1331 1722 
L 3047 1722 
L 2188 4044 
z
M 1831 4666 
L 2547 4666 
L 4325 0 
L 3669 0 
L 3244 1197 
L 1141 1197 
L 716 0 
L 50 0 
L 1831 4666 
z
" transform="scale(0.015625)"/>
       <path id="DejaVuSans-50" d="M 1259 4147 
L 1259 2394 
L 2053 2394 
Q 2494 2394 2734 2622 
Q 2975 2850 2975 3272 
Q 2975 3691 2734 3919 
Q 2494 4147 2053 4147 
L 1259 4147 
z
M 628 4666 
L 2053 4666 
Q 2838 4666 3239 4311 
Q 3641 3956 3641 3272 
Q 3641 2581 3239 2228 
Q 2838 1875 2053 1875 
L 1259 1875 
L 1259 0 
L 628 0 
L 628 4666 
z
" transform="scale(0.015625)"/>
       <path id="DejaVuSans-52" d="M 2841 2188 
Q 3044 2119 3236 1894 
Q 3428 1669 3622 1275 
L 4263 0 
L 3584 0 
L 2988 1197 
Q 2756 1666 2539 1819 
Q 2322 1972 1947 1972 
L 1259 1972 
L 1259 0 
L 628 0 
L 628 4666 
L 2053 4666 
Q 2853 4666 3247 4331 
Q 3641 3997 3641 3322 
Q 3641 2881 3436 2590 
Q 3231 2300 2841 2188 
z
M 1259 4147 
L 1259 2491 
L 2053 2491 
Q 2509 2491 2742 2702 
Q 2975 2913 2975 3322 
Q 2975 3731 2742 3939 
Q 2509 4147 2053 4147 
L 1259 4147 
z
" transform="scale(0.015625)"/>
       <path id="DejaVuSans-20" transform="scale(0.015625)"/>
       <path id="DejaVuSans-42" d="M 1259 2228 
L 1259 519 
L 2272 519 
Q 2781 519 3026 730 
Q 3272 941 3272 1375 
Q 3272 1813 3026 2020 
Q 2781 2228 2272 2228 
L 1259 2228 
z
M 1259 4147 
L 1259 2741 
L 2194 2741 
Q 2656 2741 2882 2914 
Q 3109 3088 3109 3444 
Q 3109 3797 2882 3972 
Q 2656 4147 2194 4147 
L 1259 4147 
z
M 628 4666 
L 2241 4666 
Q 2963 4666 3353 4366 
Q 3744 4066 3744 3513 
Q 3744 3084 3544 2831 
Q 3344 2578 2956 2516 
Q 3422 2416 3680 2098 
Q 3938 1781 3938 1306 
Q 3938 681 3513 340 
Q 3088 0 2303 0 
L 628 0 
L 628 4666 
z
" transform="scale(0.015625)"/>
       <path id="DejaVuSans-61" d="M 2194 1759 
Q 1497 1759 1228 1600 
Q 959 1441 959 1056 
Q 959 750 1161 570 
Q 1363 391 1709 391 
Q 2188 391 2477 730 
Q 2766 1069 2766 1631 
L 2766 1759 
L 2194 1759 
z
M 3341 1997 
L 3341 0 
L 2766 0 
L 2766 531 
Q 2569 213 2275 61 
Q 1981 -91 1556 -91 
Q 1019 -91 701 211 
Q 384 513 384 1019 
Q 384 1609 779 1909 
Q 1175 2209 1959 2209 
L 2766 2209 
L 2766 2266 
Q 2766 2663 2505 2880 
Q 2244 3097 1772 3097 
Q 1472 3097 1187 3025 
Q 903 2953 641 2809 
L 641 3341 
Q 956 3463 1253 3523 
Q 1550 3584 1831 3584 
Q 2591 3584 2966 3190 
Q 3341 2797 3341 1997 
z
" transform="scale(0.015625)"/>
       <path id="DejaVuSans-72" d="M 2631 2963 
Q 2534 3019 2420 3045 
Q 2306 3072 2169 3072 
Q 1681 3072 1420 2755 
Q 1159 2438 1159 1844 
L 1159 0 
L 581 0 
L 581 3500 
L 1159 3500 
L 1159 2956 
Q 1341 3275 1631 3429 
Q 1922 3584 2338 3584 
Q 2397 3584 2469 3576 
Q 2541 3569 2628 3553 
L 2631 2963 
z
" transform="scale(0.015625)"/>
       <path id="DejaVuSans-67" d="M 2906 1791 
Q 2906 2416 2648 2759 
Q 2391 3103 1925 3103 
Q 1463 3103 1205 2759 
Q 947 2416 947 1791 
Q 947 1169 1205 825 
Q 1463 481 1925 481 
Q 2391 481 2648 825 
Q 2906 1169 2906 1791 
z
M 3481 434 
Q 3481 -459 3084 -895 
Q 2688 -1331 1869 -1331 
Q 1566 -1331 1297 -1286 
Q 1028 -1241 775 -1147 
L 775 -588 
Q 1028 -725 1275 -790 
Q 1522 -856 1778 -856 
Q 2344 -856 2625 -561 
Q 2906 -266 2906 331 
L 2906 616 
Q 2728 306 2450 153 
Q 2172 0 1784 0 
Q 1141 0 747 490 
Q 353 981 353 1791 
Q 353 2603 747 3093 
Q 1141 3584 1784 3584 
Q 2172 3584 2450 3431 
Q 2728 3278 2906 2969 
L 2906 3500 
L 3481 3500 
L 3481 434 
z
" transform="scale(0.015625)"/>
       <path id="DejaVuSans-28" d="M 1984 4856 
Q 1566 4138 1362 3434 
Q 1159 2731 1159 2009 
Q 1159 1288 1364 580 
Q 1569 -128 1984 -844 
L 1484 -844 
Q 1016 -109 783 600 
Q 550 1309 550 2009 
Q 550 2706 781 3412 
Q 1013 4119 1484 4856 
L 1984 4856 
z
" transform="scale(0.015625)"/>
       <path id="DejaVuSans-29" d="M 513 4856 
L 1013 4856 
Q 1481 4119 1714 3412 
Q 1947 2706 1947 2009 
Q 1947 1309 1714 600 
Q 1481 -109 1013 -844 
L 513 -844 
Q 928 -128 1133 580 
Q 1338 1288 1338 2009 
Q 1338 2731 1133 3434 
Q 928 4138 513 4856 
z
" transform="scale(0.015625)"/>
      </defs>
      <use xlink:href="#DejaVuSans-41"/>
      <use xlink:href="#DejaVuSans-50" x="68.408203"/>
      <use xlink:href="#DejaVuSans-52" x="128.710938"/>
      <use xlink:href="#DejaVuSans-20" x="198.193359"/>
      <use xlink:href="#DejaVuSans-42" x="229.980469"/>
      <use xlink:href="#DejaVuSans-6f" x="298.583984"/>
      <use xlink:href="#DejaVuSans-6e" x="359.765625"/>
      <use xlink:href="#DejaVuSans-75" x="423.144531"/>
      <use xlink:href="#DejaVuSans-73" x="486.523438"/>
      <use xlink:href="#DejaVuSans-20" x="538.623047"/>
      <use xlink:href="#DejaVuSans-74" x="570.410156"/>
      <use xlink:href="#DejaVuSans-61" x="609.619141"/>
      <use xlink:href="#DejaVuSans-72" x="670.898438"/>
      <use xlink:href="#DejaVuSans-67" x="710.261719"/>
      <use xlink:href="#DejaVuSans-65" x="773.738281"/>
      <use xlink:href="#DejaVuSans-74" x="835.261719"/>
      <use xlink:href="#DejaVuSans-20" x="874.470703"/>
      <use xlink:href="#DejaVuSans-28" x="906.257812"/>
      <use xlink:href="#DejaVuSans-6c" x="945.271484"/>
      <use xlink:href="#DejaVuSans-6f" x="973.054688"/>
      <use xlink:href="#DejaVuSans-67" x="1034.236328"/>
      <use xlink:href="#DejaVuSans-29" x="1097.712891"/>
     </g>
    </g>
    <g id="line2d_25">
     <path d="M 106.2 76.333363 
L 116.2 76.333363 
L 126.2 76.333363 
" style="fill: none; stroke-dasharray: 5.55,2.4; stroke-dashoffset: 0; stroke: #000000; stroke-width: 1.5"/>
    </g>
    <g id="text_16">
     <!-- APR Bonus value (log) -->
     <g transform="translate(134.2 79.833363) scale(0.1 -0.1)">
      <defs>
       <path id="DejaVuSans-76" d="M 191 3500 
L 800 3500 
L 1894 563 
L 2988 3500 
L 3597 3500 
L 2284 0 
L 1503 0 
L 191 3500 
z
" transform="scale(0.015625)"/>
      </defs>
      <use xlink:href="#DejaVuSans-41"/>
      <use xlink:href="#DejaVuSans-50" x="68.408203"/>
      <use xlink:href="#DejaVuSans-52" x="128.710938"/>
      <use xlink:href="#DejaVuSans-20" x="198.193359"/>
      <use xlink:href="#DejaVuSans-42" x="229.980469"/>
      <use xlink:href="#DejaVuSans-6f" x="298.583984"/>
      <use xlink:href="#DejaVuSans-6e" x="359.765625"/>
      <use xlink:href="#DejaVuSans-75" x="423.144531"/>
      <use xlink:href="#DejaVuSans-73" x="486.523438"/>
      <use xlink:href="#DejaVuSans-20" x="538.623047"/>
      <use xlink:href="#DejaVuSans-76" x="570.410156"/>
      <use xlink:href="#DejaVuSans-61" x="629.589844"/>
      <use xlink:href="#DejaVuSans-6c" x="690.869141"/>
      <use xlink:href="#DejaVuSans-75" x="718.652344"/>
      <use xlink:href="#DejaVuSans-65" x="782.03125"/>
      <use xlink:href="#DejaVuSans-20" x="843.554688"/>
      <use xlink:href="#DejaVuSans-28" x="875.341797"/>
      <use xlink:href="#DejaVuSans-6c" x="914.355469"/>
      <use xlink:href="#DejaVuSans-6f" x="942.138672"/>
      <use xlink:href="#DejaVuSans-67" x="1003.320312"/>
      <use xlink:href="#DejaVuSans-29" x="1066.796875"/>
     </g>
    </g>
   </g>
  </g>
 </g>
 <defs>
  <clipPath id="p9257b95122">
   <rect x="97.2" y="48.5568" width="602.64" height="311.5728"/>
  </clipPath>
 </defs>
</svg>
