<?xml version="1.0" encoding="utf-8" standalone="no"?>
<!DOCTYPE svg PUBLIC "-//W3C//DTD SVG 1.1//EN"
  "http://www.w3.org/Graphics/SVG/1.1/DTD/svg11.dtd">
<svg xmlns:xlink="http://www.w3.org/1999/xlink" width="777.6pt" height="404.64pt" viewBox="0 0 777.6 404.64" xmlns="http://www.w3.org/2000/svg" version="1.1">
 <metadata>
  <rdf:RDF xmlns:dc="http://purl.org/dc/elements/1.1/" xmlns:cc="http://creativecommons.org/ns#" xmlns:rdf="http://www.w3.org/1999/02/22-rdf-syntax-ns#">
   <cc:Work>
    <dc:type rdf:resource="http://purl.org/dc/dcmitype/StillImage"/>
    <dc:date>2023-01-23T17:40:38.985208</dc:date>
    <dc:format>image/svg+xml</dc:format>
    <dc:creator>
     <cc:Agent>
      <dc:title>Matplotlib v3.6.2, https://matplotlib.org/</dc:title>
     </cc:Agent>
    </dc:creator>
   </cc:Work>
  </rdf:RDF>
 </metadata>
 <defs>
  <style type="text/css">*{stroke-linejoin: round; stroke-linecap: butt}</style>
 </defs>
 <g id="figure_1">
  <g id="patch_1">
   <path d="M 0 404.64 
L 777.6 404.64 
L 777.6 0 
L 0 0 
z
" style="fill: #ffffff"/>
  </g>
  <g id="axes_1">
   <g id="patch_2">
    <path d="M 97.2 360.1296 
L 699.84 360.1296 
L 699.84 48.5568 
L 97.2 48.5568 
z
" style="fill: #ffffff"/>
   </g>
   <g id="PolyCollection_1">
    <defs>
     <path id="m8ddaa57a2b" d="M 124.592727 -63.367157 
L 124.592727 -64.512532 
L 136.249207 -70.080548 
L 147.905687 -76.437304 
L 159.562166 -82.473411 
L 171.218646 -88.219671 
L 182.875126 -93.702649 
L 194.531605 -99.797314 
L 206.188085 -105.596616 
L 217.844565 -111.897585 
L 229.501044 -117.88337 
L 241.157524 -123.584008 
L 252.814004 -129.688542 
L 264.470484 -135.496781 
L 276.126963 -141.636115 
L 287.783443 -147.475846 
L 299.439923 -153.586679 
L 311.096402 -159.400618 
L 322.752882 -165.436725 
L 334.409362 -171.182985 
L 346.065841 -177.11174 
L 357.722321 -183.184313 
L 369.378801 -188.96361 
L 381.03528 -195.24391 
L 392.69176 -200.846685 
L 404.34824 -206.894756 
L 416.00472 -212.982039 
L 427.661199 -218.774657 
L 439.317679 -224.599429 
L 450.974159 -230.439161 
L 462.630638 -236.549993 
L 474.287118 -242.363933 
L 485.943598 -248.15452 
L 497.600077 -254.1463 
L 509.256557 -260.075054 
L 520.913037 -265.935972 
L 532.569516 -271.725255 
L 544.225996 -277.632248 
L 555.882476 -283.444531 
L 567.538956 -289.336541 
L 579.195435 -295.118185 
L 590.851915 -301.108019 
L 602.508395 -306.812329 
L 614.164874 -312.687902 
L 625.821354 -318.561758 
L 637.477834 -324.420985 
L 649.134313 -330.254528 
L 660.790793 -336.052995 
L 672.447273 -341.9208 
L 672.447273 -288.637615 
L 672.447273 -288.637615 
L 660.790793 -283.992316 
L 649.134313 -279.159424 
L 637.477834 -274.518166 
L 625.821354 -269.689649 
L 614.164874 -264.872048 
L 602.508395 -260.297321 
L 590.851915 -255.540771 
L 579.195435 -250.587343 
L 567.538956 -245.921882 
L 555.882476 -241.067162 
L 544.225996 -236.278893 
L 532.569516 -231.573679 
L 520.913037 -226.969621 
L 509.256557 -222.181352 
L 497.600077 -217.193515 
L 485.943598 -212.651857 
L 474.287118 -207.586612 
L 462.630638 -203.016365 
L 450.974159 -198.264658 
L 439.317679 -193.316481 
L 427.661199 -188.559931 
L 416.00472 -183.606503 
L 404.34824 -178.878425 
L 392.69176 -173.955868 
L 381.03528 -169.298053 
L 369.378801 -164.451611 
L 357.722321 -159.400618 
L 346.065841 -154.664981 
L 334.409362 -149.73423 
L 322.752882 -145.17403 
L 311.096402 -140.433182 
L 299.439923 -135.496781 
L 287.783443 -130.347997 
L 276.126963 -125.65364 
L 264.470484 -120.767625 
L 252.814004 -116.414754 
L 241.157524 -111.127867 
L 229.501044 -106.402618 
L 217.844565 -101.483127 
L 206.188085 -96.352737 
L 194.531605 -91.902754 
L 182.875126 -87.280915 
L 171.218646 -82.473411 
L 159.562166 -77.464698 
L 147.905687 -73.301122 
L 136.249207 -67.884326 
L 124.592727 -63.367157 
z
" style="stroke: #ff0000; stroke-opacity: 0.2"/>
    </defs>
    <g clip-path="url(#pe9de58ae58)">
     <use xlink:href="#m8ddaa57a2b" x="0" y="404.64" style="fill: #ff0000; fill-opacity: 0.2; stroke: #ff0000; stroke-opacity: 0.2"/>
    </g>
   </g>
   <g id="PolyCollection_2">
    <defs>
     <path id="mec68f6b12a" d="M 124.592727 -62.210716 
L 124.592727 -63.367157 
L 136.249207 -67.884326 
L 147.905687 -73.301122 
L 159.562166 -77.464698 
L 171.218646 -82.473411 
L 182.875126 -87.280915 
L 194.531605 -91.902754 
L 206.188085 -96.352737 
L 217.844565 -101.483127 
L 229.501044 -106.402618 
L 241.157524 -111.127867 
L 252.814004 -116.414754 
L 264.470484 -120.767625 
L 276.126963 -125.65364 
L 287.783443 -130.347997 
L 299.439923 -135.496781 
L 311.096402 -140.433182 
L 322.752882 -145.17403 
L 334.409362 -149.73423 
L 346.065841 -154.664981 
L 357.722321 -159.400618 
L 369.378801 -164.451611 
L 381.03528 -169.298053 
L 392.69176 -173.955868 
L 404.34824 -178.878425 
L 416.00472 -183.606503 
L 427.661199 -188.559931 
L 439.317679 -193.316481 
L 450.974159 -198.264658 
L 462.630638 -203.016365 
L 474.287118 -207.586612 
L 485.943598 -212.651857 
L 497.600077 -217.193515 
L 509.256557 -222.181352 
L 520.913037 -226.969621 
L 532.569516 -231.573679 
L 544.225996 -236.278893 
L 555.882476 -241.067162 
L 567.538956 -245.921882 
L 579.195435 -250.587343 
L 590.851915 -255.540771 
L 602.508395 -260.297321 
L 614.164874 -264.872048 
L 625.821354 -269.689649 
L 637.477834 -274.518166 
L 649.134313 -279.159424 
L 660.790793 -283.992316 
L 672.447273 -288.637615 
L 672.447273 -235.734843 
L 672.447273 -235.734843 
L 660.790793 -232.136931 
L 649.134313 -228.427504 
L 637.477834 -224.898283 
L 625.821354 -221.261828 
L 614.164874 -217.511419 
L 602.508395 -213.639682 
L 590.851915 -209.977092 
L 579.195435 -206.547322 
L 567.538956 -202.657472 
L 555.882476 -199.008081 
L 544.225996 -195.24391 
L 532.569516 -191.751874 
L 520.913037 -187.748465 
L 509.256557 -184.027209 
L 497.600077 -180.619413 
L 485.943598 -176.665964 
L 474.287118 -173.038693 
L 462.630638 -169.298053 
L 450.974159 -165.436725 
L 439.317679 -161.952757 
L 427.661199 -158.364328 
L 416.00472 -154.664981 
L 404.34824 -150.84764 
L 392.69176 -146.904529 
L 381.03528 -143.418144 
L 369.378801 -139.827152 
L 357.722321 -136.12508 
L 346.065841 -132.304838 
L 334.409362 -128.358631 
L 322.752882 -124.967731 
L 311.096402 -120.767625 
L 299.439923 -117.151314 
L 287.783443 -113.422329 
L 276.126963 -109.573419 
L 264.470484 -106.402618 
L 252.814004 -102.317212 
L 241.157524 -98.945419 
L 229.501044 -94.592547 
L 217.844565 -90.992554 
L 206.188085 -87.280915 
L 194.531605 -83.450484 
L 182.875126 -80.495006 
L 171.218646 -76.437304 
L 159.562166 -73.301122 
L 147.905687 -68.987474 
L 136.249207 -65.64705 
L 124.592727 -62.210716 
z
" style="stroke: #ff0000; stroke-opacity: 0.4"/>
    </defs>
    <g clip-path="url(#pe9de58ae58)">
     <use xlink:href="#mec68f6b12a" x="0" y="404.64" style="fill: #ff0000; fill-opacity: 0.4; stroke: #ff0000; stroke-opacity: 0.4"/>
    </g>
   </g>
   <g id="PolyCollection_3">
    <defs>
     <path id="mb404ffe65b" d="M 124.592727 -61.042992 
L 124.592727 -62.210716 
L 136.249207 -65.64705 
L 147.905687 -68.987474 
L 159.562166 -73.301122 
L 171.218646 -76.437304 
L 182.875126 -80.495006 
L 194.531605 -83.450484 
L 206.188085 -87.280915 
L 217.844565 -90.992554 
L 229.501044 -94.592547 
L 241.157524 -98.945419 
L 252.814004 -102.317212 
L 264.470484 -106.402618 
L 276.126963 -109.573419 
L 287.783443 -113.422329 
L 299.439923 -117.151314 
L 311.096402 -120.767625 
L 322.752882 -124.967731 
L 334.409362 -128.358631 
L 346.065841 -132.304838 
L 357.722321 -136.12508 
L 369.378801 -139.827152 
L 381.03528 -143.418144 
L 392.69176 -146.904529 
L 404.34824 -150.84764 
L 416.00472 -154.664981 
L 427.661199 -158.364328 
L 439.317679 -161.952757 
L 450.974159 -165.436725 
L 462.630638 -169.298053 
L 474.287118 -173.038693 
L 485.943598 -176.665964 
L 497.600077 -180.619413 
L 509.256557 -184.027209 
L 520.913037 -187.748465 
L 532.569516 -191.751874 
L 544.225996 -195.24391 
L 555.882476 -199.008081 
L 567.538956 -202.657472 
L 579.195435 -206.547322 
L 590.851915 -209.977092 
L 602.508395 -213.639682 
L 614.164874 -217.511419 
L 625.821354 -221.261828 
L 637.477834 -224.898283 
L 649.134313 -228.427504 
L 660.790793 -232.136931 
L 672.447273 -235.734843 
L 672.447273 -184.027209 
L 672.447273 -184.027209 
L 660.790793 -181.050731 
L 649.134313 -178.439193 
L 637.477834 -175.7694 
L 625.821354 -173.038693 
L 614.164874 -170.714528 
L 602.508395 -167.864613 
L 590.851915 -165.436725 
L 579.195435 -162.456718 
L 567.538956 -159.915418 
L 555.882476 -157.318987 
L 544.225996 -154.664981 
L 532.569516 -151.950789 
L 520.913037 -149.173616 
L 509.256557 -146.330472 
L 497.600077 -144.006306 
L 485.943598 -141.03616 
L 474.287118 -138.605807 
L 462.630638 -136.12508 
L 450.974159 -132.950073 
L 439.317679 -130.347997 
L 427.661199 -127.688093 
L 416.00472 -124.967731 
L 404.34824 -122.886101 
L 392.69176 -120.053051 
L 381.03528 -117.151314 
L 369.378801 -114.927893 
L 357.722321 -111.897585 
L 346.065841 -109.573419 
L 334.409362 -106.402618 
L 322.752882 -103.968146 
L 311.096402 -101.483127 
L 299.439923 -98.945419 
L 287.783443 -96.352737 
L 276.126963 -93.702649 
L 264.470484 -90.992554 
L 252.814004 -88.219671 
L 241.157524 -86.334738 
L 229.501044 -83.450484 
L 217.844565 -80.495006 
L 206.188085 -78.483349 
L 194.531605 -75.401013 
L 182.875126 -73.301122 
L 171.218646 -71.16373 
L 159.562166 -67.884326 
L 147.905687 -65.64705 
L 136.249207 -63.367157 
L 124.592727 -61.042992 
z
" style="stroke: #ff0000; stroke-opacity: 0.6"/>
    </defs>
    <g clip-path="url(#pe9de58ae58)">
     <use xlink:href="#mb404ffe65b" x="0" y="404.64" style="fill: #ff0000; fill-opacity: 0.6; stroke: #ff0000; stroke-opacity: 0.6"/>
    </g>
   </g>
   <g id="PolyCollection_4">
    <defs>
     <path id="me4282c8e0c" d="M 124.592727 -59.863763 
L 124.592727 -61.042992 
L 136.249207 -63.367157 
L 147.905687 -65.64705 
L 159.562166 -67.884326 
L 171.218646 -71.16373 
L 182.875126 -73.301122 
L 194.531605 -75.401013 
L 206.188085 -78.483349 
L 217.844565 -80.495006 
L 229.501044 -83.450484 
L 241.157524 -86.334738 
L 252.814004 -88.219671 
L 264.470484 -90.992554 
L 276.126963 -93.702649 
L 287.783443 -96.352737 
L 299.439923 -98.945419 
L 311.096402 -101.483127 
L 322.752882 -103.968146 
L 334.409362 -106.402618 
L 346.065841 -109.573419 
L 357.722321 -111.897585 
L 369.378801 -114.927893 
L 381.03528 -117.151314 
L 392.69176 -120.053051 
L 404.34824 -122.886101 
L 416.00472 -124.967731 
L 427.661199 -127.688093 
L 439.317679 -130.347997 
L 450.974159 -132.950073 
L 462.630638 -136.12508 
L 474.287118 -138.605807 
L 485.943598 -141.03616 
L 497.600077 -144.006306 
L 509.256557 -146.330472 
L 520.913037 -149.173616 
L 532.569516 -151.950789 
L 544.225996 -154.664981 
L 555.882476 -157.318987 
L 567.538956 -159.915418 
L 579.195435 -162.456718 
L 590.851915 -165.436725 
L 602.508395 -167.864613 
L 614.164874 -170.714528 
L 625.821354 -173.038693 
L 637.477834 -175.7694 
L 649.134313 -178.439193 
L 660.790793 -181.050731 
L 672.447273 -184.027209 
L 672.447273 -133.591848 
L 672.447273 -133.591848 
L 660.790793 -131.656106 
L 649.134313 -130.347997 
L 637.477834 -128.358631 
L 625.821354 -126.335641 
L 614.164874 -124.967731 
L 602.508395 -122.886101 
L 590.851915 -121.477958 
L 579.195435 -119.334185 
L 567.538956 -117.88337 
L 555.882476 -115.673632 
L 544.225996 -114.177478 
L 532.569516 -112.662385 
L 520.913037 -111.127867 
L 509.256557 -109.573419 
L 497.600077 -107.203228 
L 485.943598 -105.596616 
L 474.287118 -103.968146 
L 462.630638 -102.317212 
L 450.974159 -100.643188 
L 439.317679 -98.945419 
L 427.661199 -97.22322 
L 416.00472 -96.352737 
L 404.34824 -94.592547 
L 392.69176 -92.806085 
L 381.03528 -90.992554 
L 369.378801 -89.151121 
L 357.722321 -88.219671 
L 346.065841 -86.334738 
L 334.409362 -84.419645 
L 322.752882 -83.450484 
L 311.096402 -81.488296 
L 299.439923 -80.495006 
L 287.783443 -78.483349 
L 276.126963 -77.464698 
L 264.470484 -76.437304 
L 252.814004 -74.355673 
L 241.157524 -73.301122 
L 229.501044 -71.16373 
L 217.844565 -70.080548 
L 206.188085 -68.987474 
L 194.531605 -67.884326 
L 182.875126 -66.770915 
L 171.218646 -64.512532 
L 159.562166 -63.367157 
L 147.905687 -62.210716 
L 136.249207 -61.042992 
L 124.592727 -59.863763 
z
" style="stroke: #ff0000; stroke-opacity: 0.8"/>
    </defs>
    <g clip-path="url(#pe9de58ae58)">
     <use xlink:href="#me4282c8e0c" x="0" y="404.64" style="fill: #ff0000; fill-opacity: 0.8; stroke: #ff0000; stroke-opacity: 0.8"/>
    </g>
   </g>
   <g id="PolyCollection_5">
    <defs>
     <path id="m0eecb3ea9d" d="M 124.592727 -58.6728 
L 124.592727 -59.863763 
L 136.249207 -61.042992 
L 147.905687 -62.210716 
L 159.562166 -63.367157 
L 171.218646 -64.512532 
L 182.875126 -66.770915 
L 194.531605 -67.884326 
L 206.188085 -68.987474 
L 217.844565 -70.080548 
L 229.501044 -71.16373 
L 241.157524 -73.301122 
L 252.814004 -74.355673 
L 264.470484 -76.437304 
L 276.126963 -77.464698 
L 287.783443 -78.483349 
L 299.439923 -80.495006 
L 311.096402 -81.488296 
L 322.752882 -83.450484 
L 334.409362 -84.419645 
L 346.065841 -86.334738 
L 357.722321 -88.219671 
L 369.378801 -89.151121 
L 381.03528 -90.992554 
L 392.69176 -92.806085 
L 404.34824 -94.592547 
L 416.00472 -96.352737 
L 427.661199 -97.22322 
L 439.317679 -98.945419 
L 450.974159 -100.643188 
L 462.630638 -102.317212 
L 474.287118 -103.968146 
L 485.943598 -105.596616 
L 497.600077 -107.203228 
L 509.256557 -109.573419 
L 520.913037 -111.127867 
L 532.569516 -112.662385 
L 544.225996 -114.177478 
L 555.882476 -115.673632 
L 567.538956 -117.88337 
L 579.195435 -119.334185 
L 590.851915 -121.477958 
L 602.508395 -122.886101 
L 614.164874 -124.967731 
L 625.821354 -126.335641 
L 637.477834 -128.358631 
L 649.134313 -130.347997 
L 660.790793 -131.656106 
L 672.447273 -133.591848 
L 672.447273 -58.6728 
L 672.447273 -58.6728 
L 660.790793 -58.6728 
L 649.134313 -58.6728 
L 637.477834 -58.6728 
L 625.821354 -58.6728 
L 614.164874 -58.6728 
L 602.508395 -58.6728 
L 590.851915 -58.6728 
L 579.195435 -58.6728 
L 567.538956 -58.6728 
L 555.882476 -58.6728 
L 544.225996 -58.6728 
L 532.569516 -58.6728 
L 520.913037 -58.6728 
L 509.256557 -58.6728 
L 497.600077 -58.6728 
L 485.943598 -58.6728 
L 474.287118 -58.6728 
L 462.630638 -58.6728 
L 450.974159 -58.6728 
L 439.317679 -58.6728 
L 427.661199 -58.6728 
L 416.00472 -58.6728 
L 404.34824 -58.6728 
L 392.69176 -58.6728 
L 381.03528 -58.6728 
L 369.378801 -58.6728 
L 357.722321 -58.6728 
L 346.065841 -58.6728 
L 334.409362 -58.6728 
L 322.752882 -58.6728 
L 311.096402 -58.6728 
L 299.439923 -58.6728 
L 287.783443 -58.6728 
L 276.126963 -58.6728 
L 264.470484 -58.6728 
L 252.814004 -58.6728 
L 241.157524 -58.6728 
L 229.501044 -58.6728 
L 217.844565 -58.6728 
L 206.188085 -58.6728 
L 194.531605 -58.6728 
L 182.875126 -58.6728 
L 171.218646 -58.6728 
L 159.562166 -58.6728 
L 147.905687 -58.6728 
L 136.249207 -58.6728 
L 124.592727 -58.6728 
z
" style="stroke: #ff0000"/>
    </defs>
    <g clip-path="url(#pe9de58ae58)">
     <use xlink:href="#m0eecb3ea9d" x="0" y="404.64" style="fill: #ff0000; stroke: #ff0000"/>
    </g>
   </g>
   <g id="matplotlib.axis_1">
    <g id="xtick_1">
     <g id="line2d_1">
      <path d="M 112.936248 360.1296 
L 112.936248 48.5568 
" clip-path="url(#pe9de58ae58)" style="fill: none; stroke: #b0b0b0; stroke-width: 0.8; stroke-linecap: square"/>
     </g>
     <g id="line2d_2">
      <defs>
       <path id="m7b599266c8" d="M 0 0 
L 0 3.5 
" style="stroke: #000000; stroke-width: 0.8"/>
      </defs>
      <g>
       <use xlink:href="#m7b599266c8" x="112.936248" y="360.1296" style="stroke: #000000; stroke-width: 0.8"/>
      </g>
     </g>
     <g id="text_1">
      <!-- 0 -->
      <g transform="translate(109.754998 374.728038) scale(0.1 -0.1)">
       <defs>
        <path id="DejaVuSans-30" d="M 2034 4250 
Q 1547 4250 1301 3770 
Q 1056 3291 1056 2328 
Q 1056 1369 1301 889 
Q 1547 409 2034 409 
Q 2525 409 2770 889 
Q 3016 1369 3016 2328 
Q 3016 3291 2770 3770 
Q 2525 4250 2034 4250 
z
M 2034 4750 
Q 2819 4750 3233 4129 
Q 3647 3509 3647 2328 
Q 3647 1150 3233 529 
Q 2819 -91 2034 -91 
Q 1250 -91 836 529 
Q 422 1150 422 2328 
Q 422 3509 836 4129 
Q 1250 4750 2034 4750 
z
" transform="scale(0.015625)"/>
       </defs>
       <use xlink:href="#DejaVuSans-30"/>
      </g>
     </g>
    </g>
    <g id="xtick_2">
     <g id="line2d_3">
      <path d="M 229.501044 360.1296 
L 229.501044 48.5568 
" clip-path="url(#pe9de58ae58)" style="fill: none; stroke: #b0b0b0; stroke-width: 0.8; stroke-linecap: square"/>
     </g>
     <g id="line2d_4">
      <g>
       <use xlink:href="#m7b599266c8" x="229.501044" y="360.1296" style="stroke: #000000; stroke-width: 0.8"/>
      </g>
     </g>
     <g id="text_2">
      <!-- 10 -->
      <g transform="translate(223.138544 374.728038) scale(0.1 -0.1)">
       <defs>
        <path id="DejaVuSans-31" d="M 794 531 
L 1825 531 
L 1825 4091 
L 703 3866 
L 703 4441 
L 1819 4666 
L 2450 4666 
L 2450 531 
L 3481 531 
L 3481 0 
L 794 0 
L 794 531 
z
" transform="scale(0.015625)"/>
       </defs>
       <use xlink:href="#DejaVuSans-31"/>
       <use xlink:href="#DejaVuSans-30" x="63.623047"/>
      </g>
     </g>
    </g>
    <g id="xtick_3">
     <g id="line2d_5">
      <path d="M 346.065841 360.1296 
L 346.065841 48.5568 
" clip-path="url(#pe9de58ae58)" style="fill: none; stroke: #b0b0b0; stroke-width: 0.8; stroke-linecap: square"/>
     </g>
     <g id="line2d_6">
      <g>
       <use xlink:href="#m7b599266c8" x="346.065841" y="360.1296" style="stroke: #000000; stroke-width: 0.8"/>
      </g>
     </g>
     <g id="text_3">
      <!-- 20 -->
      <g transform="translate(339.703341 374.728038) scale(0.1 -0.1)">
       <defs>
        <path id="DejaVuSans-32" d="M 1228 531 
L 3431 531 
L 3431 0 
L 469 0 
L 469 531 
Q 828 903 1448 1529 
Q 2069 2156 2228 2338 
Q 2531 2678 2651 2914 
Q 2772 3150 2772 3378 
Q 2772 3750 2511 3984 
Q 2250 4219 1831 4219 
Q 1534 4219 1204 4116 
Q 875 4013 500 3803 
L 500 4441 
Q 881 4594 1212 4672 
Q 1544 4750 1819 4750 
Q 2544 4750 2975 4387 
Q 3406 4025 3406 3419 
Q 3406 3131 3298 2873 
Q 3191 2616 2906 2266 
Q 2828 2175 2409 1742 
Q 1991 1309 1228 531 
z
" transform="scale(0.015625)"/>
       </defs>
       <use xlink:href="#DejaVuSans-32"/>
       <use xlink:href="#DejaVuSans-30" x="63.623047"/>
      </g>
     </g>
    </g>
    <g id="xtick_4">
     <g id="line2d_7">
      <path d="M 462.630638 360.1296 
L 462.630638 48.5568 
" clip-path="url(#pe9de58ae58)" style="fill: none; stroke: #b0b0b0; stroke-width: 0.8; stroke-linecap: square"/>
     </g>
     <g id="line2d_8">
      <g>
       <use xlink:href="#m7b599266c8" x="462.630638" y="360.1296" style="stroke: #000000; stroke-width: 0.8"/>
      </g>
     </g>
     <g id="text_4">
      <!-- 30 -->
      <g transform="translate(456.268138 374.728038) scale(0.1 -0.1)">
       <defs>
        <path id="DejaVuSans-33" d="M 2597 2516 
Q 3050 2419 3304 2112 
Q 3559 1806 3559 1356 
Q 3559 666 3084 287 
Q 2609 -91 1734 -91 
Q 1441 -91 1130 -33 
Q 819 25 488 141 
L 488 750 
Q 750 597 1062 519 
Q 1375 441 1716 441 
Q 2309 441 2620 675 
Q 2931 909 2931 1356 
Q 2931 1769 2642 2001 
Q 2353 2234 1838 2234 
L 1294 2234 
L 1294 2753 
L 1863 2753 
Q 2328 2753 2575 2939 
Q 2822 3125 2822 3475 
Q 2822 3834 2567 4026 
Q 2313 4219 1838 4219 
Q 1578 4219 1281 4162 
Q 984 4106 628 3988 
L 628 4550 
Q 988 4650 1302 4700 
Q 1616 4750 1894 4750 
Q 2613 4750 3031 4423 
Q 3450 4097 3450 3541 
Q 3450 3153 3228 2886 
Q 3006 2619 2597 2516 
z
" transform="scale(0.015625)"/>
       </defs>
       <use xlink:href="#DejaVuSans-33"/>
       <use xlink:href="#DejaVuSans-30" x="63.623047"/>
      </g>
     </g>
    </g>
    <g id="xtick_5">
     <g id="line2d_9">
      <path d="M 579.195435 360.1296 
L 579.195435 48.5568 
" clip-path="url(#pe9de58ae58)" style="fill: none; stroke: #b0b0b0; stroke-width: 0.8; stroke-linecap: square"/>
     </g>
     <g id="line2d_10">
      <g>
       <use xlink:href="#m7b599266c8" x="579.195435" y="360.1296" style="stroke: #000000; stroke-width: 0.8"/>
      </g>
     </g>
     <g id="text_5">
      <!-- 40 -->
      <g transform="translate(572.832935 374.728038) scale(0.1 -0.1)">
       <defs>
        <path id="DejaVuSans-34" d="M 2419 4116 
L 825 1625 
L 2419 1625 
L 2419 4116 
z
M 2253 4666 
L 3047 4666 
L 3047 1625 
L 3713 1625 
L 3713 1100 
L 3047 1100 
L 3047 0 
L 2419 0 
L 2419 1100 
L 313 1100 
L 313 1709 
L 2253 4666 
z
" transform="scale(0.015625)"/>
       </defs>
       <use xlink:href="#DejaVuSans-34"/>
       <use xlink:href="#DejaVuSans-30" x="63.623047"/>
      </g>
     </g>
    </g>
    <g id="text_6">
     <!-- Years -->
     <g transform="translate(385.327812 388.406162) scale(0.1 -0.1)">
      <defs>
       <path id="DejaVuSans-59" d="M -13 4666 
L 666 4666 
L 1959 2747 
L 3244 4666 
L 3922 4666 
L 2272 2222 
L 2272 0 
L 1638 0 
L 1638 2222 
L -13 4666 
z
" transform="scale(0.015625)"/>
       <path id="DejaVuSans-65" d="M 3597 1894 
L 3597 1613 
L 953 1613 
Q 991 1019 1311 708 
Q 1631 397 2203 397 
Q 2534 397 2845 478 
Q 3156 559 3463 722 
L 3463 178 
Q 3153 47 2828 -22 
Q 2503 -91 2169 -91 
Q 1331 -91 842 396 
Q 353 884 353 1716 
Q 353 2575 817 3079 
Q 1281 3584 2069 3584 
Q 2775 3584 3186 3129 
Q 3597 2675 3597 1894 
z
M 3022 2063 
Q 3016 2534 2758 2815 
Q 2500 3097 2075 3097 
Q 1594 3097 1305 2825 
Q 1016 2553 972 2059 
L 3022 2063 
z
" transform="scale(0.015625)"/>
       <path id="DejaVuSans-61" d="M 2194 1759 
Q 1497 1759 1228 1600 
Q 959 1441 959 1056 
Q 959 750 1161 570 
Q 1363 391 1709 391 
Q 2188 391 2477 730 
Q 2766 1069 2766 1631 
L 2766 1759 
L 2194 1759 
z
M 3341 1997 
L 3341 0 
L 2766 0 
L 2766 531 
Q 2569 213 2275 61 
Q 1981 -91 1556 -91 
Q 1019 -91 701 211 
Q 384 513 384 1019 
Q 384 1609 779 1909 
Q 1175 2209 1959 2209 
L 2766 2209 
L 2766 2266 
Q 2766 2663 2505 2880 
Q 2244 3097 1772 3097 
Q 1472 3097 1187 3025 
Q 903 2953 641 2809 
L 641 3341 
Q 956 3463 1253 3523 
Q 1550 3584 1831 3584 
Q 2591 3584 2966 3190 
Q 3341 2797 3341 1997 
z
" transform="scale(0.015625)"/>
       <path id="DejaVuSans-72" d="M 2631 2963 
Q 2534 3019 2420 3045 
Q 2306 3072 2169 3072 
Q 1681 3072 1420 2755 
Q 1159 2438 1159 1844 
L 1159 0 
L 581 0 
L 581 3500 
L 1159 3500 
L 1159 2956 
Q 1341 3275 1631 3429 
Q 1922 3584 2338 3584 
Q 2397 3584 2469 3576 
Q 2541 3569 2628 3553 
L 2631 2963 
z
" transform="scale(0.015625)"/>
       <path id="DejaVuSans-73" d="M 2834 3397 
L 2834 2853 
Q 2591 2978 2328 3040 
Q 2066 3103 1784 3103 
Q 1356 3103 1142 2972 
Q 928 2841 928 2578 
Q 928 2378 1081 2264 
Q 1234 2150 1697 2047 
L 1894 2003 
Q 2506 1872 2764 1633 
Q 3022 1394 3022 966 
Q 3022 478 2636 193 
Q 2250 -91 1575 -91 
Q 1294 -91 989 -36 
Q 684 19 347 128 
L 347 722 
Q 666 556 975 473 
Q 1284 391 1588 391 
Q 1994 391 2212 530 
Q 2431 669 2431 922 
Q 2431 1156 2273 1281 
Q 2116 1406 1581 1522 
L 1381 1569 
Q 847 1681 609 1914 
Q 372 2147 372 2553 
Q 372 3047 722 3315 
Q 1072 3584 1716 3584 
Q 2034 3584 2315 3537 
Q 2597 3491 2834 3397 
z
" transform="scale(0.015625)"/>
      </defs>
      <use xlink:href="#DejaVuSans-59"/>
      <use xlink:href="#DejaVuSans-65" x="47.833984"/>
      <use xlink:href="#DejaVuSans-61" x="109.357422"/>
      <use xlink:href="#DejaVuSans-72" x="170.636719"/>
      <use xlink:href="#DejaVuSans-73" x="211.75"/>
     </g>
    </g>
   </g>
   <g id="matplotlib.axis_2">
    <g id="ytick_1">
     <g id="line2d_11">
      <path d="M 97.2 345.9672 
L 699.84 345.9672 
" clip-path="url(#pe9de58ae58)" style="fill: none; stroke: #b0b0b0; stroke-width: 0.8; stroke-linecap: square"/>
     </g>
     <g id="line2d_12">
      <defs>
       <path id="meb297fdaa0" d="M 0 0 
L -3.5 0 
" style="stroke: #000000; stroke-width: 0.8"/>
      </defs>
      <g>
       <use xlink:href="#meb297fdaa0" x="97.2" y="345.9672" style="stroke: #000000; stroke-width: 0.8"/>
      </g>
     </g>
     <g id="text_7">
      <!-- 1 -->
      <g transform="translate(83.8375 349.766419) scale(0.1 -0.1)">
       <use xlink:href="#DejaVuSans-31"/>
      </g>
     </g>
    </g>
    <g id="ytick_2">
     <g id="line2d_13">
      <path d="M 97.2 263.003885 
L 699.84 263.003885 
" clip-path="url(#pe9de58ae58)" style="fill: none; stroke: #b0b0b0; stroke-width: 0.8; stroke-linecap: square"/>
     </g>
     <g id="line2d_14">
      <g>
       <use xlink:href="#meb297fdaa0" x="97.2" y="263.003885" style="stroke: #000000; stroke-width: 0.8"/>
      </g>
     </g>
     <g id="text_8">
      <!-- 2 -->
      <g transform="translate(83.8375 266.803104) scale(0.1 -0.1)">
       <use xlink:href="#DejaVuSans-32"/>
      </g>
     </g>
    </g>
    <g id="ytick_3">
     <g id="line2d_15">
      <path d="M 97.2 180.040571 
L 699.84 180.040571 
" clip-path="url(#pe9de58ae58)" style="fill: none; stroke: #b0b0b0; stroke-width: 0.8; stroke-linecap: square"/>
     </g>
     <g id="line2d_16">
      <g>
       <use xlink:href="#meb297fdaa0" x="97.2" y="180.040571" style="stroke: #000000; stroke-width: 0.8"/>
      </g>
     </g>
     <g id="text_9">
      <!-- 4 -->
      <g transform="translate(83.8375 183.83979) scale(0.1 -0.1)">
       <use xlink:href="#DejaVuSans-34"/>
      </g>
     </g>
    </g>
    <g id="ytick_4">
     <g id="line2d_17">
      <path d="M 97.2 131.510143 
L 699.84 131.510143 
" clip-path="url(#pe9de58ae58)" style="fill: none; stroke: #b0b0b0; stroke-width: 0.8; stroke-linecap: square"/>
     </g>
     <g id="line2d_18">
      <g>
       <use xlink:href="#meb297fdaa0" x="97.2" y="131.510143" style="stroke: #000000; stroke-width: 0.8"/>
      </g>
     </g>
     <g id="text_10">
      <!-- 6 -->
      <g transform="translate(83.8375 135.309362) scale(0.1 -0.1)">
       <defs>
        <path id="DejaVuSans-36" d="M 2113 2584 
Q 1688 2584 1439 2293 
Q 1191 2003 1191 1497 
Q 1191 994 1439 701 
Q 1688 409 2113 409 
Q 2538 409 2786 701 
Q 3034 994 3034 1497 
Q 3034 2003 2786 2293 
Q 2538 2584 2113 2584 
z
M 3366 4563 
L 3366 3988 
Q 3128 4100 2886 4159 
Q 2644 4219 2406 4219 
Q 1781 4219 1451 3797 
Q 1122 3375 1075 2522 
Q 1259 2794 1537 2939 
Q 1816 3084 2150 3084 
Q 2853 3084 3261 2657 
Q 3669 2231 3669 1497 
Q 3669 778 3244 343 
Q 2819 -91 2113 -91 
Q 1303 -91 875 529 
Q 447 1150 447 2328 
Q 447 3434 972 4092 
Q 1497 4750 2381 4750 
Q 2619 4750 2861 4703 
Q 3103 4656 3366 4563 
z
" transform="scale(0.015625)"/>
       </defs>
       <use xlink:href="#DejaVuSans-36"/>
      </g>
     </g>
    </g>
    <g id="ytick_5">
     <g id="line2d_19">
      <path d="M 97.2 97.077256 
L 699.84 97.077256 
" clip-path="url(#pe9de58ae58)" style="fill: none; stroke: #b0b0b0; stroke-width: 0.8; stroke-linecap: square"/>
     </g>
     <g id="line2d_20">
      <g>
       <use xlink:href="#meb297fdaa0" x="97.2" y="97.077256" style="stroke: #000000; stroke-width: 0.8"/>
      </g>
     </g>
     <g id="text_11">
      <!-- 8 -->
      <g transform="translate(83.8375 100.876475) scale(0.1 -0.1)">
       <defs>
        <path id="DejaVuSans-38" d="M 2034 2216 
Q 1584 2216 1326 1975 
Q 1069 1734 1069 1313 
Q 1069 891 1326 650 
Q 1584 409 2034 409 
Q 2484 409 2743 651 
Q 3003 894 3003 1313 
Q 3003 1734 2745 1975 
Q 2488 2216 2034 2216 
z
M 1403 2484 
Q 997 2584 770 2862 
Q 544 3141 544 3541 
Q 544 4100 942 4425 
Q 1341 4750 2034 4750 
Q 2731 4750 3128 4425 
Q 3525 4100 3525 3541 
Q 3525 3141 3298 2862 
Q 3072 2584 2669 2484 
Q 3125 2378 3379 2068 
Q 3634 1759 3634 1313 
Q 3634 634 3220 271 
Q 2806 -91 2034 -91 
Q 1263 -91 848 271 
Q 434 634 434 1313 
Q 434 1759 690 2068 
Q 947 2378 1403 2484 
z
M 1172 3481 
Q 1172 3119 1398 2916 
Q 1625 2713 2034 2713 
Q 2441 2713 2670 2916 
Q 2900 3119 2900 3481 
Q 2900 3844 2670 4047 
Q 2441 4250 2034 4250 
Q 1625 4250 1398 4047 
Q 1172 3844 1172 3481 
z
" transform="scale(0.015625)"/>
       </defs>
       <use xlink:href="#DejaVuSans-38"/>
      </g>
     </g>
    </g>
    <g id="ytick_6">
     <g id="line2d_21">
      <path d="M 97.2 70.369035 
L 699.84 70.369035 
" clip-path="url(#pe9de58ae58)" style="fill: none; stroke: #b0b0b0; stroke-width: 0.8; stroke-linecap: square"/>
     </g>
     <g id="line2d_22">
      <g>
       <use xlink:href="#meb297fdaa0" x="97.2" y="70.369035" style="stroke: #000000; stroke-width: 0.8"/>
      </g>
     </g>
     <g id="text_12">
      <!-- 10 -->
      <g transform="translate(77.475 74.168253) scale(0.1 -0.1)">
       <use xlink:href="#DejaVuSans-31"/>
       <use xlink:href="#DejaVuSans-30" x="63.623047"/>
      </g>
     </g>
    </g>
    <g id="ytick_7">
     <g id="line2d_23">
      <defs>
       <path id="mf7fda47489" d="M 0 0 
L -2 0 
" style="stroke: #000000; stroke-width: 0.6"/>
      </defs>
      <g>
       <use xlink:href="#mf7fda47489" x="97.2" y="358.57788" style="stroke: #000000; stroke-width: 0.6"/>
      </g>
     </g>
    </g>
    <g id="ytick_8">
     <g id="line2d_24">
      <g>
       <use xlink:href="#mf7fda47489" x="97.2" y="214.473458" style="stroke: #000000; stroke-width: 0.6"/>
      </g>
     </g>
    </g>
    <g id="ytick_9">
     <g id="line2d_25">
      <g>
       <use xlink:href="#mf7fda47489" x="97.2" y="153.332349" style="stroke: #000000; stroke-width: 0.6"/>
      </g>
     </g>
    </g>
    <g id="ytick_10">
     <g id="line2d_26">
      <g>
       <use xlink:href="#mf7fda47489" x="97.2" y="113.059731" style="stroke: #000000; stroke-width: 0.6"/>
      </g>
     </g>
    </g>
    <g id="ytick_11">
     <g id="line2d_27">
      <g>
       <use xlink:href="#mf7fda47489" x="97.2" y="82.979715" style="stroke: #000000; stroke-width: 0.6"/>
      </g>
     </g>
    </g>
    <g id="text_13">
     <!-- Multiple [XPower] -->
     <g transform="translate(71.395312 248.233825) rotate(-90) scale(0.1 -0.1)">
      <defs>
       <path id="DejaVuSans-4d" d="M 628 4666 
L 1569 4666 
L 2759 1491 
L 3956 4666 
L 4897 4666 
L 4897 0 
L 4281 0 
L 4281 4097 
L 3078 897 
L 2444 897 
L 1241 4097 
L 1241 0 
L 628 0 
L 628 4666 
z
" transform="scale(0.015625)"/>
       <path id="DejaVuSans-75" d="M 544 1381 
L 544 3500 
L 1119 3500 
L 1119 1403 
Q 1119 906 1312 657 
Q 1506 409 1894 409 
Q 2359 409 2629 706 
Q 2900 1003 2900 1516 
L 2900 3500 
L 3475 3500 
L 3475 0 
L 2900 0 
L 2900 538 
Q 2691 219 2414 64 
Q 2138 -91 1772 -91 
Q 1169 -91 856 284 
Q 544 659 544 1381 
z
M 1991 3584 
L 1991 3584 
z
" transform="scale(0.015625)"/>
       <path id="DejaVuSans-6c" d="M 603 4863 
L 1178 4863 
L 1178 0 
L 603 0 
L 603 4863 
z
" transform="scale(0.015625)"/>
       <path id="DejaVuSans-74" d="M 1172 4494 
L 1172 3500 
L 2356 3500 
L 2356 3053 
L 1172 3053 
L 1172 1153 
Q 1172 725 1289 603 
Q 1406 481 1766 481 
L 2356 481 
L 2356 0 
L 1766 0 
Q 1100 0 847 248 
Q 594 497 594 1153 
L 594 3053 
L 172 3053 
L 172 3500 
L 594 3500 
L 594 4494 
L 1172 4494 
z
" transform="scale(0.015625)"/>
       <path id="DejaVuSans-69" d="M 603 3500 
L 1178 3500 
L 1178 0 
L 603 0 
L 603 3500 
z
M 603 4863 
L 1178 4863 
L 1178 4134 
L 603 4134 
L 603 4863 
z
" transform="scale(0.015625)"/>
       <path id="DejaVuSans-70" d="M 1159 525 
L 1159 -1331 
L 581 -1331 
L 581 3500 
L 1159 3500 
L 1159 2969 
Q 1341 3281 1617 3432 
Q 1894 3584 2278 3584 
Q 2916 3584 3314 3078 
Q 3713 2572 3713 1747 
Q 3713 922 3314 415 
Q 2916 -91 2278 -91 
Q 1894 -91 1617 61 
Q 1341 213 1159 525 
z
M 3116 1747 
Q 3116 2381 2855 2742 
Q 2594 3103 2138 3103 
Q 1681 3103 1420 2742 
Q 1159 2381 1159 1747 
Q 1159 1113 1420 752 
Q 1681 391 2138 391 
Q 2594 391 2855 752 
Q 3116 1113 3116 1747 
z
" transform="scale(0.015625)"/>
       <path id="DejaVuSans-20" transform="scale(0.015625)"/>
       <path id="DejaVuSans-5b" d="M 550 4863 
L 1875 4863 
L 1875 4416 
L 1125 4416 
L 1125 -397 
L 1875 -397 
L 1875 -844 
L 550 -844 
L 550 4863 
z
" transform="scale(0.015625)"/>
       <path id="DejaVuSans-58" d="M 403 4666 
L 1081 4666 
L 2241 2931 
L 3406 4666 
L 4084 4666 
L 2584 2425 
L 4184 0 
L 3506 0 
L 2194 1984 
L 872 0 
L 191 0 
L 1856 2491 
L 403 4666 
z
" transform="scale(0.015625)"/>
       <path id="DejaVuSans-50" d="M 1259 4147 
L 1259 2394 
L 2053 2394 
Q 2494 2394 2734 2622 
Q 2975 2850 2975 3272 
Q 2975 3691 2734 3919 
Q 2494 4147 2053 4147 
L 1259 4147 
z
M 628 4666 
L 2053 4666 
Q 2838 4666 3239 4311 
Q 3641 3956 3641 3272 
Q 3641 2581 3239 2228 
Q 2838 1875 2053 1875 
L 1259 1875 
L 1259 0 
L 628 0 
L 628 4666 
z
" transform="scale(0.015625)"/>
       <path id="DejaVuSans-6f" d="M 1959 3097 
Q 1497 3097 1228 2736 
Q 959 2375 959 1747 
Q 959 1119 1226 758 
Q 1494 397 1959 397 
Q 2419 397 2687 759 
Q 2956 1122 2956 1747 
Q 2956 2369 2687 2733 
Q 2419 3097 1959 3097 
z
M 1959 3584 
Q 2709 3584 3137 3096 
Q 3566 2609 3566 1747 
Q 3566 888 3137 398 
Q 2709 -91 1959 -91 
Q 1206 -91 779 398 
Q 353 888 353 1747 
Q 353 2609 779 3096 
Q 1206 3584 1959 3584 
z
" transform="scale(0.015625)"/>
       <path id="DejaVuSans-77" d="M 269 3500 
L 844 3500 
L 1563 769 
L 2278 3500 
L 2956 3500 
L 3675 769 
L 4391 3500 
L 4966 3500 
L 4050 0 
L 3372 0 
L 2619 2869 
L 1863 0 
L 1184 0 
L 269 3500 
z
" transform="scale(0.015625)"/>
       <path id="DejaVuSans-5d" d="M 1947 4863 
L 1947 -844 
L 622 -844 
L 622 -397 
L 1369 -397 
L 1369 4416 
L 622 4416 
L 622 4863 
L 1947 4863 
z
" transform="scale(0.015625)"/>
      </defs>
      <use xlink:href="#DejaVuSans-4d"/>
      <use xlink:href="#DejaVuSans-75" x="86.279297"/>
      <use xlink:href="#DejaVuSans-6c" x="149.658203"/>
      <use xlink:href="#DejaVuSans-74" x="177.441406"/>
      <use xlink:href="#DejaVuSans-69" x="216.650391"/>
      <use xlink:href="#DejaVuSans-70" x="244.433594"/>
      <use xlink:href="#DejaVuSans-6c" x="307.910156"/>
      <use xlink:href="#DejaVuSans-65" x="335.693359"/>
      <use xlink:href="#DejaVuSans-20" x="397.216797"/>
      <use xlink:href="#DejaVuSans-5b" x="429.003906"/>
      <use xlink:href="#DejaVuSans-58" x="468.017578"/>
      <use xlink:href="#DejaVuSans-50" x="536.523438"/>
      <use xlink:href="#DejaVuSans-6f" x="593.201172"/>
      <use xlink:href="#DejaVuSans-77" x="654.382812"/>
      <use xlink:href="#DejaVuSans-65" x="736.169922"/>
      <use xlink:href="#DejaVuSans-72" x="797.693359"/>
      <use xlink:href="#DejaVuSans-5d" x="838.806641"/>
     </g>
    </g>
   </g>
   <g id="line2d_28">
    <path d="M 124.592727 340.127468 
L 136.249207 334.559452 
L 147.905687 328.202696 
L 159.562166 322.166589 
L 171.218646 316.420329 
L 182.875126 310.937351 
L 194.531605 304.842686 
L 206.188085 299.043384 
L 217.844565 292.742415 
L 229.501044 286.75663 
L 241.157524 281.055992 
L 252.814004 274.951458 
L 264.470484 269.143219 
L 276.126963 263.003885 
L 287.783443 257.164154 
L 299.439923 251.053321 
L 311.096402 245.239382 
L 322.752882 239.203275 
L 334.409362 233.457015 
L 346.065841 227.52826 
L 357.722321 221.455687 
L 369.378801 215.67639 
L 381.03528 209.39609 
L 392.69176 203.793315 
L 404.34824 197.745244 
L 416.00472 191.657961 
L 427.661199 185.865343 
L 439.317679 180.040571 
L 450.974159 174.200839 
L 462.630638 168.090007 
L 474.287118 162.276067 
L 485.943598 156.48548 
L 497.600077 150.4937 
L 509.256557 144.564946 
L 520.913037 138.704028 
L 532.569516 132.914745 
L 544.225996 127.007752 
L 555.882476 121.195469 
L 567.538956 115.303459 
L 579.195435 109.521815 
L 590.851915 103.531981 
L 602.508395 97.827671 
L 614.164874 91.952098 
L 625.821354 86.078242 
L 637.477834 80.219015 
L 649.134313 74.385472 
L 660.790793 68.587005 
L 672.447273 62.7192 
" clip-path="url(#pe9de58ae58)" style="fill: none; stroke: #000000; stroke-width: 1.5; stroke-linecap: square"/>
   </g>
   <g id="line2d_29">
    <path d="M 124.592727 341.272843 
L 136.249207 336.755674 
L 147.905687 331.338878 
L 159.562166 327.175302 
L 171.218646 322.166589 
L 182.875126 317.359085 
L 194.531605 312.737246 
L 206.188085 308.287263 
L 217.844565 303.156873 
L 229.501044 298.237382 
L 241.157524 293.512133 
L 252.814004 288.225246 
L 264.470484 283.872375 
L 276.126963 278.98636 
L 287.783443 274.292003 
L 299.439923 269.143219 
L 311.096402 264.206818 
L 322.752882 259.46597 
L 334.409362 254.90577 
L 346.065841 249.975019 
L 357.722321 245.239382 
L 369.378801 240.188389 
L 381.03528 235.341947 
L 392.69176 230.684132 
L 404.34824 225.761575 
L 416.00472 221.033497 
L 427.661199 216.080069 
L 439.317679 211.323519 
L 450.974159 206.375342 
L 462.630638 201.623635 
L 474.287118 197.053388 
L 485.943598 191.988143 
L 497.600077 187.446485 
L 509.256557 182.458648 
L 520.913037 177.670379 
L 532.569516 173.066321 
L 544.225996 168.361107 
L 555.882476 163.572838 
L 567.538956 158.718118 
L 579.195435 154.052657 
L 590.851915 149.099229 
L 602.508395 144.342679 
L 614.164874 139.767952 
L 625.821354 134.950351 
L 637.477834 130.121834 
L 649.134313 125.480576 
L 660.790793 120.647684 
L 672.447273 116.002385 
" clip-path="url(#pe9de58ae58)" style="fill: none; stroke-dasharray: 9.6,2.4,1.5,2.4; stroke-dashoffset: 0; stroke: #000000; stroke-width: 1.5"/>
   </g>
   <g id="line2d_30">
    <path d="M 124.592727 342.429284 
L 136.249207 338.99295 
L 147.905687 335.652526 
L 159.562166 331.338878 
L 171.218646 328.202696 
L 182.875126 324.144994 
L 194.531605 321.189516 
L 206.188085 317.359085 
L 217.844565 313.647446 
L 229.501044 310.047453 
L 241.157524 305.694581 
L 252.814004 302.322788 
L 264.470484 298.237382 
L 276.126963 295.066581 
L 287.783443 291.217671 
L 299.439923 287.488686 
L 311.096402 283.872375 
L 322.752882 279.672269 
L 334.409362 276.281369 
L 346.065841 272.335162 
L 357.722321 268.51492 
L 369.378801 264.812848 
L 381.03528 261.221856 
L 392.69176 257.735471 
L 404.34824 253.79236 
L 416.00472 249.975019 
L 427.661199 246.275672 
L 439.317679 242.687243 
L 450.974159 239.203275 
L 462.630638 235.341947 
L 474.287118 231.601307 
L 485.943598 227.974036 
L 497.600077 224.020587 
L 509.256557 220.612791 
L 520.913037 216.891535 
L 532.569516 212.888126 
L 544.225996 209.39609 
L 555.882476 205.631919 
L 567.538956 201.982528 
L 579.195435 198.092678 
L 590.851915 194.662908 
L 602.508395 191.000318 
L 614.164874 187.128581 
L 625.821354 183.378172 
L 637.477834 179.741717 
L 649.134313 176.212496 
L 660.790793 172.503069 
L 672.447273 168.905157 
" clip-path="url(#pe9de58ae58)" style="fill: none; stroke-dasharray: 5.55,2.4; stroke-dashoffset: 0; stroke: #000000; stroke-width: 1.5"/>
   </g>
   <g id="line2d_31">
    <path d="M 124.592727 343.597008 
L 136.249207 341.272843 
L 147.905687 338.99295 
L 159.562166 336.755674 
L 171.218646 333.47627 
L 182.875126 331.338878 
L 194.531605 329.238987 
L 206.188085 326.156651 
L 217.844565 324.144994 
L 229.501044 321.189516 
L 241.157524 318.305262 
L 252.814004 316.420329 
L 264.470484 313.647446 
L 276.126963 310.937351 
L 287.783443 308.287263 
L 299.439923 305.694581 
L 311.096402 303.156873 
L 322.752882 300.671854 
L 334.409362 298.237382 
L 346.065841 295.066581 
L 357.722321 292.742415 
L 369.378801 289.712107 
L 381.03528 287.488686 
L 392.69176 284.586949 
L 404.34824 281.753899 
L 416.00472 279.672269 
L 427.661199 276.951907 
L 439.317679 274.292003 
L 450.974159 271.689927 
L 462.630638 268.51492 
L 474.287118 266.034193 
L 485.943598 263.60384 
L 497.600077 260.633694 
L 509.256557 258.309528 
L 520.913037 255.466384 
L 532.569516 252.689211 
L 544.225996 249.975019 
L 555.882476 247.321013 
L 567.538956 244.724582 
L 579.195435 242.183282 
L 590.851915 239.203275 
L 602.508395 236.775387 
L 614.164874 233.925472 
L 625.821354 231.601307 
L 637.477834 228.8706 
L 649.134313 226.200807 
L 660.790793 223.589269 
L 672.447273 220.612791 
" clip-path="url(#pe9de58ae58)" style="fill: none; stroke-dasharray: 4.5,3,1.5,3; stroke-dashoffset: 0; stroke: #000000; stroke-width: 1.5"/>
   </g>
   <g id="line2d_32">
    <path d="M 124.592727 344.776237 
L 136.249207 343.597008 
L 147.905687 342.429284 
L 159.562166 341.272843 
L 171.218646 340.127468 
L 182.875126 337.869085 
L 194.531605 336.755674 
L 206.188085 335.652526 
L 217.844565 334.559452 
L 229.501044 333.47627 
L 241.157524 331.338878 
L 252.814004 330.284327 
L 264.470484 328.202696 
L 276.126963 327.175302 
L 287.783443 326.156651 
L 299.439923 324.144994 
L 311.096402 323.151704 
L 322.752882 321.189516 
L 334.409362 320.220355 
L 346.065841 318.305262 
L 357.722321 316.420329 
L 369.378801 315.488879 
L 381.03528 313.647446 
L 392.69176 311.833915 
L 404.34824 310.047453 
L 416.00472 308.287263 
L 427.661199 307.41678 
L 439.317679 305.694581 
L 450.974159 303.996812 
L 462.630638 302.322788 
L 474.287118 300.671854 
L 485.943598 299.043384 
L 497.600077 297.436772 
L 509.256557 295.066581 
L 520.913037 293.512133 
L 532.569516 291.977615 
L 544.225996 290.462522 
L 555.882476 288.966368 
L 567.538956 286.75663 
L 579.195435 285.305815 
L 590.851915 283.162042 
L 602.508395 281.753899 
L 614.164874 279.672269 
L 625.821354 278.304359 
L 637.477834 276.281369 
L 649.134313 274.292003 
L 660.790793 272.983894 
L 672.447273 271.048152 
" clip-path="url(#pe9de58ae58)" style="fill: none; stroke-dasharray: 1.5,2.475; stroke-dashoffset: 0; stroke: #000000; stroke-width: 1.5"/>
   </g>
   <g id="patch_3">
    <path d="M 97.2 360.1296 
L 97.2 48.5568 
" style="fill: none; stroke: #000000; stroke-width: 0.8; stroke-linejoin: miter; stroke-linecap: square"/>
   </g>
   <g id="patch_4">
    <path d="M 699.84 360.1296 
L 699.84 48.5568 
" style="fill: none; stroke: #000000; stroke-width: 0.8; stroke-linejoin: miter; stroke-linecap: square"/>
   </g>
   <g id="patch_5">
    <path d="M 97.2 360.1296 
L 699.84 360.1296 
" style="fill: none; stroke: #000000; stroke-width: 0.8; stroke-linejoin: miter; stroke-linecap: square"/>
   </g>
   <g id="patch_6">
    <path d="M 97.2 48.5568 
L 699.84 48.5568 
" style="fill: none; stroke: #000000; stroke-width: 0.8; stroke-linejoin: miter; stroke-linecap: square"/>
   </g>
   <g id="text_14">
    <!-- ROI on XPower NFTs -->
    <g transform="translate(330.200625 42.5568) scale(0.12 -0.12)">
     <defs>
      <path id="DejaVuSans-Bold-52" d="M 2297 2597 
Q 2675 2597 2839 2737 
Q 3003 2878 3003 3200 
Q 3003 3519 2839 3656 
Q 2675 3794 2297 3794 
L 1791 3794 
L 1791 2597 
L 2297 2597 
z
M 1791 1766 
L 1791 0 
L 588 0 
L 588 4666 
L 2425 4666 
Q 3347 4666 3776 4356 
Q 4206 4047 4206 3378 
Q 4206 2916 3982 2619 
Q 3759 2322 3309 2181 
Q 3556 2125 3751 1926 
Q 3947 1728 4147 1325 
L 4800 0 
L 3519 0 
L 2950 1159 
Q 2778 1509 2601 1637 
Q 2425 1766 2131 1766 
L 1791 1766 
z
" transform="scale(0.015625)"/>
      <path id="DejaVuSans-Bold-4f" d="M 2719 3878 
Q 2169 3878 1866 3472 
Q 1563 3066 1563 2328 
Q 1563 1594 1866 1187 
Q 2169 781 2719 781 
Q 3272 781 3575 1187 
Q 3878 1594 3878 2328 
Q 3878 3066 3575 3472 
Q 3272 3878 2719 3878 
z
M 2719 4750 
Q 3844 4750 4481 4106 
Q 5119 3463 5119 2328 
Q 5119 1197 4481 553 
Q 3844 -91 2719 -91 
Q 1597 -91 958 553 
Q 319 1197 319 2328 
Q 319 3463 958 4106 
Q 1597 4750 2719 4750 
z
" transform="scale(0.015625)"/>
      <path id="DejaVuSans-Bold-49" d="M 588 4666 
L 1791 4666 
L 1791 0 
L 588 0 
L 588 4666 
z
" transform="scale(0.015625)"/>
      <path id="DejaVuSans-Bold-20" transform="scale(0.015625)"/>
      <path id="DejaVuSans-Bold-6f" d="M 2203 2784 
Q 1831 2784 1636 2517 
Q 1441 2250 1441 1747 
Q 1441 1244 1636 976 
Q 1831 709 2203 709 
Q 2569 709 2762 976 
Q 2956 1244 2956 1747 
Q 2956 2250 2762 2517 
Q 2569 2784 2203 2784 
z
M 2203 3584 
Q 3106 3584 3614 3096 
Q 4122 2609 4122 1747 
Q 4122 884 3614 396 
Q 3106 -91 2203 -91 
Q 1297 -91 786 396 
Q 275 884 275 1747 
Q 275 2609 786 3096 
Q 1297 3584 2203 3584 
z
" transform="scale(0.015625)"/>
      <path id="DejaVuSans-Bold-6e" d="M 4056 2131 
L 4056 0 
L 2931 0 
L 2931 347 
L 2931 1631 
Q 2931 2084 2911 2256 
Q 2891 2428 2841 2509 
Q 2775 2619 2662 2680 
Q 2550 2741 2406 2741 
Q 2056 2741 1856 2470 
Q 1656 2200 1656 1722 
L 1656 0 
L 538 0 
L 538 3500 
L 1656 3500 
L 1656 2988 
Q 1909 3294 2193 3439 
Q 2478 3584 2822 3584 
Q 3428 3584 3742 3212 
Q 4056 2841 4056 2131 
z
" transform="scale(0.015625)"/>
      <path id="DejaVuSans-Bold-58" d="M 3188 2381 
L 4806 0 
L 3553 0 
L 2463 1594 
L 1381 0 
L 122 0 
L 1741 2381 
L 184 4666 
L 1441 4666 
L 2463 3163 
L 3481 4666 
L 4744 4666 
L 3188 2381 
z
" transform="scale(0.015625)"/>
      <path id="DejaVuSans-Bold-50" d="M 588 4666 
L 2584 4666 
Q 3475 4666 3951 4270 
Q 4428 3875 4428 3144 
Q 4428 2409 3951 2014 
Q 3475 1619 2584 1619 
L 1791 1619 
L 1791 0 
L 588 0 
L 588 4666 
z
M 1791 3794 
L 1791 2491 
L 2456 2491 
Q 2806 2491 2997 2661 
Q 3188 2831 3188 3144 
Q 3188 3456 2997 3625 
Q 2806 3794 2456 3794 
L 1791 3794 
z
" transform="scale(0.015625)"/>
      <path id="DejaVuSans-Bold-77" d="M 225 3500 
L 1313 3500 
L 1900 1088 
L 2491 3500 
L 3425 3500 
L 4013 1113 
L 4603 3500 
L 5691 3500 
L 4769 0 
L 3547 0 
L 2956 2406 
L 2369 0 
L 1147 0 
L 225 3500 
z
" transform="scale(0.015625)"/>
      <path id="DejaVuSans-Bold-65" d="M 4031 1759 
L 4031 1441 
L 1416 1441 
Q 1456 1047 1700 850 
Q 1944 653 2381 653 
Q 2734 653 3104 758 
Q 3475 863 3866 1075 
L 3866 213 
Q 3469 63 3072 -14 
Q 2675 -91 2278 -91 
Q 1328 -91 801 392 
Q 275 875 275 1747 
Q 275 2603 792 3093 
Q 1309 3584 2216 3584 
Q 3041 3584 3536 3087 
Q 4031 2591 4031 1759 
z
M 2881 2131 
Q 2881 2450 2695 2645 
Q 2509 2841 2209 2841 
Q 1884 2841 1681 2658 
Q 1478 2475 1428 2131 
L 2881 2131 
z
" transform="scale(0.015625)"/>
      <path id="DejaVuSans-Bold-72" d="M 3138 2547 
Q 2991 2616 2845 2648 
Q 2700 2681 2553 2681 
Q 2122 2681 1889 2404 
Q 1656 2128 1656 1613 
L 1656 0 
L 538 0 
L 538 3500 
L 1656 3500 
L 1656 2925 
Q 1872 3269 2151 3426 
Q 2431 3584 2822 3584 
Q 2878 3584 2943 3579 
Q 3009 3575 3134 3559 
L 3138 2547 
z
" transform="scale(0.015625)"/>
      <path id="DejaVuSans-Bold-4e" d="M 588 4666 
L 1931 4666 
L 3628 1466 
L 3628 4666 
L 4769 4666 
L 4769 0 
L 3425 0 
L 1728 3200 
L 1728 0 
L 588 0 
L 588 4666 
z
" transform="scale(0.015625)"/>
      <path id="DejaVuSans-Bold-46" d="M 588 4666 
L 3834 4666 
L 3834 3756 
L 1791 3756 
L 1791 2888 
L 3713 2888 
L 3713 1978 
L 1791 1978 
L 1791 0 
L 588 0 
L 588 4666 
z
" transform="scale(0.015625)"/>
      <path id="DejaVuSans-Bold-54" d="M 31 4666 
L 4331 4666 
L 4331 3756 
L 2784 3756 
L 2784 0 
L 1581 0 
L 1581 3756 
L 31 3756 
L 31 4666 
z
" transform="scale(0.015625)"/>
      <path id="DejaVuSans-Bold-73" d="M 3272 3391 
L 3272 2541 
Q 2913 2691 2578 2766 
Q 2244 2841 1947 2841 
Q 1628 2841 1473 2761 
Q 1319 2681 1319 2516 
Q 1319 2381 1436 2309 
Q 1553 2238 1856 2203 
L 2053 2175 
Q 2913 2066 3209 1816 
Q 3506 1566 3506 1031 
Q 3506 472 3093 190 
Q 2681 -91 1863 -91 
Q 1516 -91 1145 -36 
Q 775 19 384 128 
L 384 978 
Q 719 816 1070 734 
Q 1422 653 1784 653 
Q 2113 653 2278 743 
Q 2444 834 2444 1013 
Q 2444 1163 2330 1236 
Q 2216 1309 1875 1350 
L 1678 1375 
Q 931 1469 631 1722 
Q 331 1975 331 2491 
Q 331 3047 712 3315 
Q 1094 3584 1881 3584 
Q 2191 3584 2531 3537 
Q 2872 3491 3272 3391 
z
" transform="scale(0.015625)"/>
     </defs>
     <use xlink:href="#DejaVuSans-Bold-52"/>
     <use xlink:href="#DejaVuSans-Bold-4f" x="77.001953"/>
     <use xlink:href="#DejaVuSans-Bold-49" x="162.011719"/>
     <use xlink:href="#DejaVuSans-Bold-20" x="199.21875"/>
     <use xlink:href="#DejaVuSans-Bold-6f" x="234.033203"/>
     <use xlink:href="#DejaVuSans-Bold-6e" x="302.734375"/>
     <use xlink:href="#DejaVuSans-Bold-20" x="373.925781"/>
     <use xlink:href="#DejaVuSans-Bold-58" x="408.740234"/>
     <use xlink:href="#DejaVuSans-Bold-50" x="485.839844"/>
     <use xlink:href="#DejaVuSans-Bold-6f" x="559.130859"/>
     <use xlink:href="#DejaVuSans-Bold-77" x="627.832031"/>
     <use xlink:href="#DejaVuSans-Bold-65" x="720.214844"/>
     <use xlink:href="#DejaVuSans-Bold-72" x="788.037109"/>
     <use xlink:href="#DejaVuSans-Bold-20" x="837.353516"/>
     <use xlink:href="#DejaVuSans-Bold-4e" x="872.167969"/>
     <use xlink:href="#DejaVuSans-Bold-46" x="955.859375"/>
     <use xlink:href="#DejaVuSans-Bold-54" x="1024.169922"/>
     <use xlink:href="#DejaVuSans-Bold-73" x="1079.132812"/>
    </g>
   </g>
   <g id="legend_1">
    <g id="patch_7">
     <path d="M 104.2 129.947425 
L 185.801562 129.947425 
Q 187.801562 129.947425 187.801562 127.947425 
L 187.801562 55.5568 
Q 187.801562 53.5568 185.801562 53.5568 
L 104.2 53.5568 
Q 102.2 53.5568 102.2 55.5568 
L 102.2 127.947425 
Q 102.2 129.947425 104.2 129.947425 
z
" style="fill: #ffffff; opacity: 0.8; stroke: #cccccc; stroke-linejoin: miter"/>
    </g>
    <g id="line2d_33">
     <path d="M 106.2 61.655237 
L 116.2 61.655237 
L 126.2 61.655237 
" style="fill: none; stroke: #000000; stroke-width: 1.5; stroke-linecap: square"/>
    </g>
    <g id="text_15">
     <!-- Peta NFT -->
     <g transform="translate(134.2 65.155237) scale(0.1 -0.1)">
      <defs>
       <path id="DejaVuSans-4e" d="M 628 4666 
L 1478 4666 
L 3547 763 
L 3547 4666 
L 4159 4666 
L 4159 0 
L 3309 0 
L 1241 3903 
L 1241 0 
L 628 0 
L 628 4666 
z
" transform="scale(0.015625)"/>
       <path id="DejaVuSans-46" d="M 628 4666 
L 3309 4666 
L 3309 4134 
L 1259 4134 
L 1259 2759 
L 3109 2759 
L 3109 2228 
L 1259 2228 
L 1259 0 
L 628 0 
L 628 4666 
z
" transform="scale(0.015625)"/>
       <path id="DejaVuSans-54" d="M -19 4666 
L 3928 4666 
L 3928 4134 
L 2272 4134 
L 2272 0 
L 1638 0 
L 1638 4134 
L -19 4134 
L -19 4666 
z
" transform="scale(0.015625)"/>
      </defs>
      <use xlink:href="#DejaVuSans-50"/>
      <use xlink:href="#DejaVuSans-65" x="56.677734"/>
      <use xlink:href="#DejaVuSans-74" x="118.201172"/>
      <use xlink:href="#DejaVuSans-61" x="157.410156"/>
      <use xlink:href="#DejaVuSans-20" x="218.689453"/>
      <use xlink:href="#DejaVuSans-4e" x="250.476562"/>
      <use xlink:href="#DejaVuSans-46" x="325.28125"/>
      <use xlink:href="#DejaVuSans-54" x="381.050781"/>
     </g>
    </g>
    <g id="line2d_34">
     <path d="M 106.2 76.333363 
L 116.2 76.333363 
L 126.2 76.333363 
" style="fill: none; stroke-dasharray: 9.6,2.4,1.5,2.4; stroke-dashoffset: 0; stroke: #000000; stroke-width: 1.5"/>
    </g>
    <g id="text_16">
     <!-- Tera NFT -->
     <g transform="translate(134.2 79.833363) scale(0.1 -0.1)">
      <use xlink:href="#DejaVuSans-54"/>
      <use xlink:href="#DejaVuSans-65" x="44.083984"/>
      <use xlink:href="#DejaVuSans-72" x="105.607422"/>
      <use xlink:href="#DejaVuSans-61" x="146.720703"/>
      <use xlink:href="#DejaVuSans-20" x="208"/>
      <use xlink:href="#DejaVuSans-4e" x="239.787109"/>
      <use xlink:href="#DejaVuSans-46" x="314.591797"/>
      <use xlink:href="#DejaVuSans-54" x="370.361328"/>
     </g>
    </g>
    <g id="line2d_35">
     <path d="M 106.2 91.011487 
L 116.2 91.011487 
L 126.2 91.011487 
" style="fill: none; stroke-dasharray: 5.55,2.4; stroke-dashoffset: 0; stroke: #000000; stroke-width: 1.5"/>
    </g>
    <g id="text_17">
     <!-- Giga NFT -->
     <g transform="translate(134.2 94.511487) scale(0.1 -0.1)">
      <defs>
       <path id="DejaVuSans-47" d="M 3809 666 
L 3809 1919 
L 2778 1919 
L 2778 2438 
L 4434 2438 
L 4434 434 
Q 4069 175 3628 42 
Q 3188 -91 2688 -91 
Q 1594 -91 976 548 
Q 359 1188 359 2328 
Q 359 3472 976 4111 
Q 1594 4750 2688 4750 
Q 3144 4750 3555 4637 
Q 3966 4525 4313 4306 
L 4313 3634 
Q 3963 3931 3569 4081 
Q 3175 4231 2741 4231 
Q 1884 4231 1454 3753 
Q 1025 3275 1025 2328 
Q 1025 1384 1454 906 
Q 1884 428 2741 428 
Q 3075 428 3337 486 
Q 3600 544 3809 666 
z
" transform="scale(0.015625)"/>
       <path id="DejaVuSans-67" d="M 2906 1791 
Q 2906 2416 2648 2759 
Q 2391 3103 1925 3103 
Q 1463 3103 1205 2759 
Q 947 2416 947 1791 
Q 947 1169 1205 825 
Q 1463 481 1925 481 
Q 2391 481 2648 825 
Q 2906 1169 2906 1791 
z
M 3481 434 
Q 3481 -459 3084 -895 
Q 2688 -1331 1869 -1331 
Q 1566 -1331 1297 -1286 
Q 1028 -1241 775 -1147 
L 775 -588 
Q 1028 -725 1275 -790 
Q 1522 -856 1778 -856 
Q 2344 -856 2625 -561 
Q 2906 -266 2906 331 
L 2906 616 
Q 2728 306 2450 153 
Q 2172 0 1784 0 
Q 1141 0 747 490 
Q 353 981 353 1791 
Q 353 2603 747 3093 
Q 1141 3584 1784 3584 
Q 2172 3584 2450 3431 
Q 2728 3278 2906 2969 
L 2906 3500 
L 3481 3500 
L 3481 434 
z
" transform="scale(0.015625)"/>
      </defs>
      <use xlink:href="#DejaVuSans-47"/>
      <use xlink:href="#DejaVuSans-69" x="77.490234"/>
      <use xlink:href="#DejaVuSans-67" x="105.273438"/>
      <use xlink:href="#DejaVuSans-61" x="168.75"/>
      <use xlink:href="#DejaVuSans-20" x="230.029297"/>
      <use xlink:href="#DejaVuSans-4e" x="261.816406"/>
      <use xlink:href="#DejaVuSans-46" x="336.621094"/>
      <use xlink:href="#DejaVuSans-54" x="392.390625"/>
     </g>
    </g>
    <g id="line2d_36">
     <path d="M 106.2 105.689613 
L 116.2 105.689613 
L 126.2 105.689613 
" style="fill: none; stroke-dasharray: 4.5,3,1.5,3; stroke-dashoffset: 0; stroke: #000000; stroke-width: 1.5"/>
    </g>
    <g id="text_18">
     <!-- Mega NFT -->
     <g transform="translate(134.2 109.189613) scale(0.1 -0.1)">
      <use xlink:href="#DejaVuSans-4d"/>
      <use xlink:href="#DejaVuSans-65" x="86.279297"/>
      <use xlink:href="#DejaVuSans-67" x="147.802734"/>
      <use xlink:href="#DejaVuSans-61" x="211.279297"/>
      <use xlink:href="#DejaVuSans-20" x="272.558594"/>
      <use xlink:href="#DejaVuSans-4e" x="304.345703"/>
      <use xlink:href="#DejaVuSans-46" x="379.150391"/>
      <use xlink:href="#DejaVuSans-54" x="434.919922"/>
     </g>
    </g>
    <g id="line2d_37">
     <path d="M 106.2 120.367737 
L 116.2 120.367737 
L 126.2 120.367737 
" style="fill: none; stroke-dasharray: 1.5,2.475; stroke-dashoffset: 0; stroke: #000000; stroke-width: 1.5"/>
    </g>
    <g id="text_19">
     <!-- Kilo NFT -->
     <g transform="translate(134.2 123.867737) scale(0.1 -0.1)">
      <defs>
       <path id="DejaVuSans-4b" d="M 628 4666 
L 1259 4666 
L 1259 2694 
L 3353 4666 
L 4166 4666 
L 1850 2491 
L 4331 0 
L 3500 0 
L 1259 2247 
L 1259 0 
L 628 0 
L 628 4666 
z
" transform="scale(0.015625)"/>
      </defs>
      <use xlink:href="#DejaVuSans-4b"/>
      <use xlink:href="#DejaVuSans-69" x="65.576172"/>
      <use xlink:href="#DejaVuSans-6c" x="93.359375"/>
      <use xlink:href="#DejaVuSans-6f" x="121.142578"/>
      <use xlink:href="#DejaVuSans-20" x="182.324219"/>
      <use xlink:href="#DejaVuSans-4e" x="214.111328"/>
      <use xlink:href="#DejaVuSans-46" x="288.916016"/>
      <use xlink:href="#DejaVuSans-54" x="344.685547"/>
     </g>
    </g>
   </g>
  </g>
 </g>
 <defs>
  <clipPath id="pe9de58ae58">
   <rect x="97.2" y="48.5568" width="602.64" height="311.5728"/>
  </clipPath>
 </defs>
</svg>
